M48
;DRILL file {KiCad 201609150817+7155~55~ubuntu16.04.1-} date Mon Sep 19 12:22:15 2016
;FORMAT={-:-/ absolute / inch / decimal}
FMAT,2
INCH,TZ
T1C0.016
T2C0.040
T3C0.047
%
G90
G05
M72
T1
X4.05Y-4.745
X4.185Y-4.745
X4.195Y-4.585
X4.46Y-4.745
X5.66Y-4.585
X5.67Y-4.745
X5.775Y-4.745
X5.79Y-4.055
T2
X3.775Y-1.71
X3.775Y-1.81
X3.775Y-1.91
X3.775Y-2.01
X3.775Y-2.11
X3.775Y-2.21
X3.775Y-2.31
X3.775Y-2.41
X3.775Y-2.615
X3.775Y-2.715
X3.775Y-2.815
X3.775Y-2.915
X3.775Y-3.015
X3.775Y-3.115
X3.775Y-3.215
X3.775Y-3.315
X3.775Y-3.51
X3.775Y-3.61
X3.775Y-3.71
X3.775Y-3.81
X3.775Y-3.91
X3.775Y-4.01
X3.775Y-4.11
X3.775Y-4.21
X3.975Y-4.315
X3.975Y-4.415
X4.075Y-4.315
X4.075Y-4.415
X4.175Y-4.315
X4.175Y-4.415
X4.275Y-4.315
X4.275Y-4.415
X4.375Y-4.315
X4.375Y-4.415
X4.475Y-4.315
X4.475Y-4.415
X4.575Y-4.315
X4.575Y-4.415
X4.675Y-4.315
X4.675Y-4.415
X4.775Y-4.315
X4.775Y-4.415
X4.875Y-4.315
X4.875Y-4.415
X4.975Y-4.315
X4.975Y-4.415
X5.075Y-4.315
X5.075Y-4.415
X5.175Y-4.315
X5.175Y-4.415
X5.275Y-4.315
X5.275Y-4.415
X5.375Y-4.315
X5.375Y-4.415
X5.475Y-4.315
X5.475Y-4.415
X5.575Y-4.315
X5.575Y-4.415
X5.675Y-1.34
X5.675Y-1.44
X5.675Y-1.54
X5.675Y-1.64
X5.675Y-1.74
X5.675Y-1.84
X5.675Y-1.94
X5.675Y-2.04
X5.675Y-2.14
X5.675Y-2.24
X5.675Y-2.405
X5.675Y-2.505
X5.675Y-2.605
X5.675Y-2.705
X5.675Y-2.805
X5.675Y-2.905
X5.675Y-3.005
X5.675Y-3.105
X5.675Y-3.31
X5.675Y-3.41
X5.675Y-3.51
X5.675Y-3.61
X5.675Y-3.71
X5.675Y-3.81
X5.675Y-3.91
X5.675Y-4.01
X5.675Y-4.315
X5.675Y-4.415
T3
X3.5756Y-2.0879
X3.5756Y-2.2257
X3.5756Y-2.3635
X3.5756Y-2.5013
X3.5756Y-2.6391
X3.5756Y-2.7769
X3.5756Y-2.9147
X3.5756Y-3.0525
X3.5756Y-3.1903
X3.5756Y-3.3281
X3.5776Y-3.4677
X3.5776Y-3.6055
X3.5776Y-3.7433
X3.5776Y-3.8811
X3.5776Y-4.0189
X3.5776Y-4.1567
X3.5776Y-4.2945
X3.5776Y-4.4323
X3.7575Y-4.6674
X3.7575Y-4.9524
X3.8953Y-4.6674
X3.8953Y-4.9524
X4.0331Y-4.6674
X4.0331Y-4.9524
X4.1709Y-4.6674
X4.1709Y-4.9524
X4.3087Y-4.6674
X4.3087Y-4.9524
X4.4465Y-4.6674
X4.4465Y-4.9524
X4.5843Y-4.6674
X4.5843Y-4.9524
X4.7221Y-4.6674
X4.7221Y-4.9524
X4.8599Y-4.6674
X4.8599Y-4.9524
X4.9977Y-4.6674
X4.9977Y-4.9524
X5.1355Y-4.6674
X5.1355Y-4.9524
X5.2733Y-4.6674
X5.2733Y-4.9524
X5.4111Y-4.6674
X5.4111Y-4.9524
X5.5489Y-4.6674
X5.5489Y-4.9524
X5.6867Y-4.6674
X5.6867Y-4.9524
X5.8245Y-4.6674
X5.8245Y-4.9524
X5.8724Y-1.1859
X5.8724Y-1.3237
X5.8724Y-1.4615
X5.8724Y-1.5993
X5.8724Y-1.7371
X5.8724Y-1.8749
X5.8724Y-2.0127
X5.8724Y-2.1505
X5.8724Y-2.2883
X5.8724Y-2.4261
X5.8744Y-2.5659
X5.8744Y-2.7037
X5.8744Y-2.8415
X5.8744Y-2.9793
X5.8744Y-3.1171
X5.8744Y-3.2549
X5.8744Y-3.3927
X5.8744Y-3.5305
X5.8744Y-3.6683
X5.8744Y-3.8061
X5.8744Y-3.9453
X5.8744Y-4.0831
X5.8744Y-4.2209
X5.8744Y-4.3587
T0
M30
