M48
;DRILL file {KiCad 201609150817+7155~55~ubuntu16.04.1-} date Thu Sep 29 09:43:51 2016
;FORMAT={-:-/ absolute / metric / decimal}
FMAT,2
METRIC,TZ
T1C0.400
T2C1.016
T3C1.200
%
G90
G05
M71
T1
X56.896Y-75.692
X60.071Y-75.565
X60.071Y-88.646
X63.373Y-134.112
X65.913Y-132.588
X65.913Y-136.779
X65.913Y-140.335
X76.327Y-140.335
X78.613Y-114.935
X80.518Y-90.424
X80.518Y-97.409
X80.518Y-103.251
X80.518Y-105.029
X80.518Y-107.823
X88.011Y-140.081
X90.805Y-140.081
X94.488Y-90.424
X94.488Y-97.409
X94.488Y-100.838
X94.488Y-107.823
X106.426Y-140.081
X108.966Y-77.851
X108.966Y-87.122
X108.966Y-92.202
X108.966Y-102.362
X108.966Y-114.935
X109.093Y-117.475
X109.22Y-68.072
X109.855Y-140.081
X111.633Y-130.429
X114.554Y-142.24
T2
X63.348Y-90.881
X63.348Y-93.421
X63.348Y-95.961
X63.348Y-98.501
X63.348Y-101.041
X63.348Y-103.581
X63.348Y-106.121
X63.348Y-108.661
X63.398Y-68.021
X63.398Y-70.561
X63.398Y-73.101
X63.398Y-75.641
X63.398Y-78.181
X63.398Y-80.721
X63.398Y-83.261
X63.398Y-85.801
X63.398Y-113.741
X63.398Y-116.281
X63.398Y-118.821
X63.398Y-121.361
X63.398Y-123.901
X63.398Y-126.441
X63.398Y-128.981
X63.398Y-131.521
X63.449Y-60.147
X63.449Y-62.687
X63.449Y-65.227
X68.377Y-59.131
X68.377Y-61.671
X68.377Y-64.211
X68.377Y-66.751
X68.377Y-69.291
X68.377Y-71.831
X68.377Y-74.371
X68.377Y-76.911
X68.377Y-79.451
X68.377Y-81.991
X68.377Y-84.531
X68.377Y-87.071
X68.377Y-89.611
X68.377Y-92.151
X68.377Y-94.691
X68.377Y-97.231
X68.377Y-99.771
X68.377Y-102.311
X68.377Y-104.851
X68.377Y-107.391
X68.377Y-109.931
X68.377Y-112.471
X68.377Y-115.011
X68.377Y-117.551
X68.377Y-120.091
X68.377Y-122.631
X68.377Y-125.171
X68.377Y-127.711
X68.377Y-130.251
X68.478Y-134.264
X68.478Y-136.804
X70.917Y-59.131
X70.917Y-61.671
X70.917Y-64.211
X70.917Y-66.751
X70.917Y-69.291
X70.917Y-71.831
X70.917Y-74.371
X70.917Y-76.911
X70.917Y-79.451
X70.917Y-81.991
X70.917Y-84.531
X70.917Y-87.071
X70.917Y-89.611
X70.917Y-92.151
X70.917Y-94.691
X70.917Y-97.231
X70.917Y-99.771
X70.917Y-102.311
X70.917Y-104.851
X70.917Y-107.391
X70.917Y-109.931
X70.917Y-112.471
X70.917Y-115.011
X70.917Y-117.551
X70.917Y-120.091
X70.917Y-122.631
X70.917Y-125.171
X70.917Y-127.711
X70.917Y-130.251
X71.018Y-134.264
X71.018Y-136.804
X73.457Y-59.131
X73.457Y-61.671
X73.457Y-64.211
X73.457Y-66.751
X73.457Y-69.291
X73.457Y-71.831
X73.457Y-74.371
X73.457Y-76.911
X73.457Y-79.451
X73.457Y-81.991
X73.457Y-84.531
X73.457Y-87.071
X73.457Y-89.611
X73.457Y-92.151
X73.457Y-94.691
X73.457Y-97.231
X73.457Y-99.771
X73.457Y-102.311
X73.457Y-104.851
X73.457Y-107.391
X73.457Y-109.931
X73.457Y-112.471
X73.457Y-115.011
X73.457Y-117.551
X73.457Y-120.091
X73.457Y-122.631
X73.457Y-125.171
X73.457Y-127.711
X73.457Y-130.251
X73.558Y-134.264
X73.558Y-136.804
X75.997Y-59.131
X75.997Y-61.671
X75.997Y-64.211
X75.997Y-66.751
X75.997Y-69.291
X75.997Y-71.831
X75.997Y-74.371
X75.997Y-76.911
X75.997Y-79.451
X75.997Y-81.991
X75.997Y-84.531
X75.997Y-87.071
X75.997Y-89.611
X75.997Y-92.151
X75.997Y-94.691
X75.997Y-97.231
X75.997Y-99.771
X75.997Y-102.311
X75.997Y-104.851
X75.997Y-107.391
X75.997Y-109.931
X75.997Y-112.471
X75.997Y-115.011
X75.997Y-117.551
X75.997Y-120.091
X75.997Y-122.631
X75.997Y-125.171
X75.997Y-127.711
X75.997Y-130.251
X76.098Y-134.264
X76.098Y-136.804
X78.486Y-117.551
X78.486Y-120.091
X78.486Y-122.631
X78.486Y-125.171
X78.486Y-127.711
X78.486Y-130.251
X78.638Y-134.264
X78.638Y-136.804
X81.026Y-117.551
X81.026Y-120.091
X81.026Y-122.631
X81.026Y-125.171
X81.026Y-127.711
X81.026Y-130.251
X81.178Y-134.264
X81.178Y-136.804
X83.668Y-117.551
X83.668Y-120.091
X83.668Y-122.631
X83.668Y-125.171
X83.668Y-127.711
X83.668Y-130.251
X83.718Y-134.264
X83.718Y-136.804
X86.208Y-117.551
X86.208Y-120.091
X86.208Y-122.631
X86.208Y-125.171
X86.208Y-127.711
X86.208Y-130.251
X86.258Y-134.264
X86.258Y-136.804
X88.748Y-117.551
X88.748Y-120.091
X88.748Y-122.631
X88.748Y-125.171
X88.748Y-127.711
X88.748Y-130.251
X88.798Y-134.264
X88.798Y-136.804
X91.288Y-117.551
X91.288Y-120.091
X91.288Y-122.631
X91.288Y-125.171
X91.288Y-127.711
X91.288Y-130.251
X91.338Y-134.264
X91.338Y-136.804
X93.777Y-117.551
X93.777Y-120.091
X93.777Y-122.631
X93.777Y-125.171
X93.777Y-127.711
X93.777Y-130.251
X93.878Y-134.264
X93.878Y-136.804
X96.317Y-117.551
X96.317Y-120.091
X96.317Y-122.631
X96.317Y-125.171
X96.317Y-127.711
X96.317Y-130.251
X96.418Y-134.264
X96.418Y-136.804
X98.857Y-59.08
X98.857Y-61.62
X98.857Y-64.16
X98.857Y-66.7
X98.857Y-69.24
X98.857Y-71.78
X98.857Y-74.32
X98.857Y-76.86
X98.857Y-79.4
X98.857Y-81.94
X98.857Y-84.48
X98.857Y-87.02
X98.857Y-89.56
X98.857Y-92.1
X98.857Y-94.64
X98.857Y-97.18
X98.857Y-99.72
X98.857Y-102.26
X98.857Y-104.8
X98.857Y-107.34
X98.857Y-109.88
X98.857Y-112.42
X98.857Y-114.96
X98.857Y-117.5
X98.857Y-120.04
X98.857Y-122.58
X98.857Y-125.12
X98.857Y-127.66
X98.857Y-130.2
X98.958Y-134.264
X98.958Y-136.804
X101.397Y-59.08
X101.397Y-61.62
X101.397Y-64.16
X101.397Y-66.7
X101.397Y-69.24
X101.397Y-71.78
X101.397Y-74.32
X101.397Y-76.86
X101.397Y-79.4
X101.397Y-81.94
X101.397Y-84.48
X101.397Y-87.02
X101.397Y-89.56
X101.397Y-92.1
X101.397Y-94.64
X101.397Y-97.18
X101.397Y-99.72
X101.397Y-102.26
X101.397Y-104.8
X101.397Y-107.34
X101.397Y-109.88
X101.397Y-112.42
X101.397Y-114.96
X101.397Y-117.5
X101.397Y-120.04
X101.397Y-122.58
X101.397Y-125.12
X101.397Y-127.66
X101.397Y-130.2
X101.498Y-134.264
X101.498Y-136.804
X103.886Y-59.08
X103.886Y-61.62
X103.886Y-64.16
X103.886Y-66.7
X103.886Y-69.24
X103.886Y-71.78
X103.886Y-74.32
X103.886Y-76.86
X103.886Y-79.4
X103.886Y-81.94
X103.886Y-84.48
X103.886Y-87.02
X103.886Y-89.56
X103.886Y-92.1
X103.886Y-94.64
X103.886Y-97.18
X103.886Y-99.72
X103.886Y-102.26
X103.886Y-104.8
X103.886Y-107.34
X103.886Y-109.88
X103.886Y-112.42
X103.886Y-114.96
X103.886Y-117.5
X103.886Y-120.04
X103.886Y-122.58
X103.886Y-125.12
X103.886Y-127.66
X103.886Y-130.2
X104.038Y-134.264
X104.038Y-136.804
X106.426Y-59.08
X106.426Y-61.62
X106.426Y-64.16
X106.426Y-66.7
X106.426Y-69.24
X106.426Y-71.78
X106.426Y-74.32
X106.426Y-76.86
X106.426Y-79.4
X106.426Y-81.94
X106.426Y-84.48
X106.426Y-87.02
X106.426Y-89.56
X106.426Y-92.1
X106.426Y-94.64
X106.426Y-97.18
X106.426Y-99.72
X106.426Y-102.26
X106.426Y-104.8
X106.426Y-107.34
X106.426Y-109.88
X106.426Y-112.42
X106.426Y-114.96
X106.426Y-117.5
X106.426Y-120.04
X106.426Y-122.58
X106.426Y-125.12
X106.426Y-127.66
X106.426Y-130.2
X106.578Y-134.264
X106.578Y-136.804
X109.118Y-134.264
X109.118Y-136.804
X111.658Y-85.801
X111.658Y-88.341
X111.658Y-90.881
X111.658Y-93.421
X111.658Y-95.961
X111.658Y-98.501
X111.658Y-101.041
X111.658Y-103.581
X111.658Y-108.661
X111.658Y-111.201
X111.658Y-113.741
X111.658Y-116.281
X111.658Y-118.821
X111.658Y-121.361
X111.658Y-123.901
X111.658Y-126.441
X111.658Y-134.264
X111.658Y-136.804
X111.76Y-58.877
X111.76Y-61.417
X111.76Y-63.957
X111.76Y-66.497
X111.76Y-69.037
X111.76Y-71.577
X111.76Y-74.117
X111.76Y-76.657
X111.76Y-79.197
X111.76Y-81.737
T3
X57.952Y-59.926
X57.952Y-63.426
X57.952Y-66.926
X57.952Y-70.426
X57.952Y-73.912
X57.952Y-77.412
X57.952Y-80.912
X57.952Y-84.412
X57.952Y-87.912
X57.952Y-91.412
X57.952Y-94.912
X57.952Y-98.412
X57.952Y-101.912
X57.952Y-105.412
X57.952Y-108.908
X57.952Y-112.408
X57.952Y-115.908
X57.952Y-119.408
X57.952Y-122.908
X57.952Y-126.408
X57.952Y-129.908
X57.952Y-133.408
X59.297Y-142.251
X59.297Y-147.687
X62.797Y-142.251
X62.797Y-147.687
X66.297Y-142.251
X66.297Y-147.687
X69.797Y-142.251
X69.797Y-147.687
X73.297Y-142.251
X73.297Y-147.687
X76.797Y-142.251
X76.797Y-147.687
X80.297Y-142.251
X80.297Y-147.687
X82.488Y-59.5
X82.488Y-63.
X82.488Y-66.5
X82.488Y-70.
X82.488Y-73.5
X82.488Y-77.
X82.488Y-80.5
X82.488Y-84.
X82.488Y-87.5
X82.488Y-91.
X82.488Y-94.5
X82.488Y-98.
X82.488Y-101.5
X82.488Y-105.
X82.488Y-108.5
X82.488Y-112.
X83.797Y-142.251
X83.797Y-147.687
X87.297Y-142.251
X87.297Y-147.687
X90.797Y-142.251
X90.797Y-147.687
X92.416Y-59.5
X92.416Y-63.
X92.416Y-66.5
X92.416Y-70.
X92.416Y-73.5
X92.416Y-77.
X92.416Y-80.5
X92.416Y-84.
X92.416Y-87.5
X92.416Y-91.
X92.416Y-94.5
X92.416Y-98.
X92.416Y-101.5
X92.416Y-105.
X92.416Y-108.5
X92.416Y-112.
X94.297Y-142.251
X94.297Y-147.687
X97.797Y-142.251
X97.797Y-147.687
X101.297Y-142.251
X101.297Y-147.687
X104.797Y-142.251
X104.797Y-147.687
X108.297Y-142.251
X108.297Y-147.687
X111.797Y-142.251
X111.797Y-147.687
X117.308Y-58.926
X117.308Y-62.426
X117.308Y-65.926
X117.308Y-69.426
X117.308Y-72.926
X117.308Y-76.426
X117.308Y-79.926
X117.308Y-83.426
X117.308Y-86.926
X117.308Y-90.426
X117.308Y-93.978
X117.308Y-97.478
X117.308Y-100.978
X117.308Y-104.478
X117.308Y-107.978
X117.308Y-111.478
X117.308Y-114.978
X117.308Y-118.478
X117.308Y-121.978
X117.308Y-125.478
X117.308Y-129.014
X117.308Y-132.514
X117.308Y-136.014
X117.308Y-139.514
T0
M30
