G04 #@! TF.FileFunction,Legend,Top*
%FSLAX46Y46*%
G04 Gerber Fmt 4.6, Leading zero omitted, Abs format (unit mm)*
G04 Created by KiCad (PCBNEW 201609150817+7155~55~ubuntu16.04.1-) date Thu Sep 29 09:43:48 2016*
%MOMM*%
%LPD*%
G01*
G04 APERTURE LIST*
%ADD10C,0.100000*%
%ADD11C,0.381000*%
%ADD12C,0.150000*%
%ADD13C,0.300000*%
G04 APERTURE END LIST*
D10*
D11*
X89316400Y-57750400D02*
X89316400Y-113750400D01*
X96916400Y-57750400D02*
X89316400Y-57750400D01*
X89316400Y-113750400D02*
X96916400Y-113750400D01*
X96516400Y-113750400D02*
X96516400Y-57750400D01*
X95416400Y-113750400D02*
X95416400Y-57750400D01*
X96516400Y-99750400D02*
X96916400Y-99750400D01*
X96516400Y-106750400D02*
X96916400Y-106750400D01*
X96516400Y-110250400D02*
X96916400Y-110250400D01*
X96516400Y-96250400D02*
X96916400Y-96250400D01*
X96516400Y-92750400D02*
X96916400Y-92750400D01*
X96516400Y-103250400D02*
X96916400Y-103250400D01*
X96516400Y-89250400D02*
X96916400Y-89250400D01*
X96516400Y-82250400D02*
X96916400Y-82250400D01*
X96516400Y-85750400D02*
X96916400Y-85750400D01*
X96516400Y-78750400D02*
X96916400Y-78750400D01*
X96516400Y-75250400D02*
X96916400Y-75250400D01*
X96516400Y-68250400D02*
X96916400Y-68250400D01*
X96516400Y-71750400D02*
X96916400Y-71750400D01*
X96516400Y-64750400D02*
X96916400Y-64750400D01*
X96516400Y-61250400D02*
X96916400Y-61250400D01*
X78388000Y-110250400D02*
X77988000Y-110250400D01*
X78388000Y-106750400D02*
X77988000Y-106750400D01*
X78388000Y-99750400D02*
X77988000Y-99750400D01*
X78388000Y-103250400D02*
X77988000Y-103250400D01*
X78388000Y-96250400D02*
X77988000Y-96250400D01*
X78388000Y-92750400D02*
X77988000Y-92750400D01*
X78388000Y-85750400D02*
X77988000Y-85750400D01*
X78388000Y-89250400D02*
X77988000Y-89250400D01*
X78388000Y-82250400D02*
X77988000Y-82250400D01*
X78388000Y-68250400D02*
X77988000Y-68250400D01*
X78388000Y-78750400D02*
X77988000Y-78750400D01*
X78388000Y-75250400D02*
X77988000Y-75250400D01*
X78388000Y-61250400D02*
X77988000Y-61250400D01*
X78388000Y-64750400D02*
X77988000Y-64750400D01*
X78388000Y-71750400D02*
X77988000Y-71750400D01*
X79488000Y-57750400D02*
X79488000Y-113750400D01*
X78388000Y-57750400D02*
X78388000Y-113750400D01*
X85588000Y-57750400D02*
X77988000Y-57750400D01*
X77988000Y-113750400D02*
X85588000Y-113750400D01*
X85588000Y-113750400D02*
X85588000Y-57750400D01*
D12*
X61899200Y-58597200D02*
X64999200Y-58597200D01*
X61899200Y-60147200D02*
X61899200Y-58597200D01*
X64719200Y-61417200D02*
X62179200Y-61417200D01*
X64999200Y-58597200D02*
X64999200Y-60147200D01*
X64719200Y-66497200D02*
X64719200Y-61417200D01*
X62179200Y-66497200D02*
X64719200Y-66497200D01*
X62179200Y-61417200D02*
X62179200Y-66497200D01*
D11*
X53851600Y-61676400D02*
X53451600Y-61676400D01*
X53851600Y-65176400D02*
X53451600Y-65176400D01*
X53851600Y-68676400D02*
X53451600Y-68676400D01*
X54951600Y-58176400D02*
X54951600Y-72176400D01*
X53851600Y-58176400D02*
X53851600Y-72176400D01*
X61051600Y-58176400D02*
X53451600Y-58176400D01*
X53451600Y-72176400D02*
X61051600Y-72176400D01*
X61051600Y-72176400D02*
X61051600Y-58176400D01*
D12*
X61848400Y-66471200D02*
X64948400Y-66471200D01*
X61848400Y-68021200D02*
X61848400Y-66471200D01*
X64668400Y-69291200D02*
X62128400Y-69291200D01*
X64948400Y-66471200D02*
X64948400Y-68021200D01*
X62128400Y-87071200D02*
X62128400Y-69291200D01*
X64668400Y-87071200D02*
X62128400Y-87071200D01*
X64668400Y-69291200D02*
X64668400Y-87071200D01*
X64617600Y-92151200D02*
X64617600Y-109931200D01*
X64617600Y-109931200D02*
X62077600Y-109931200D01*
X62077600Y-109931200D02*
X62077600Y-92151200D01*
X64897600Y-89331200D02*
X64897600Y-90881200D01*
X64617600Y-92151200D02*
X62077600Y-92151200D01*
X61797600Y-90881200D02*
X61797600Y-89331200D01*
X61797600Y-89331200D02*
X64897600Y-89331200D01*
X110388400Y-125171200D02*
X110388400Y-107391200D01*
X110388400Y-107391200D02*
X112928400Y-107391200D01*
X112928400Y-107391200D02*
X112928400Y-125171200D01*
X110108400Y-127991200D02*
X110108400Y-126441200D01*
X110388400Y-125171200D02*
X112928400Y-125171200D01*
X113208400Y-126441200D02*
X113208400Y-127991200D01*
X113208400Y-127991200D02*
X110108400Y-127991200D01*
X113208400Y-105131200D02*
X110108400Y-105131200D01*
X113208400Y-103581200D02*
X113208400Y-105131200D01*
X110388400Y-102311200D02*
X112928400Y-102311200D01*
X110108400Y-105131200D02*
X110108400Y-103581200D01*
X112928400Y-84531200D02*
X112928400Y-102311200D01*
X110388400Y-84531200D02*
X112928400Y-84531200D01*
X110388400Y-102311200D02*
X110388400Y-84531200D01*
X82296000Y-131521200D02*
X82296000Y-116281200D01*
X77216000Y-118821200D02*
X77216000Y-131521200D01*
X82296000Y-131521200D02*
X77216000Y-131521200D01*
X82296000Y-116281200D02*
X79756000Y-116281200D01*
X78486000Y-116001200D02*
X76936000Y-116001200D01*
X79756000Y-116281200D02*
X79756000Y-118821200D01*
X79756000Y-118821200D02*
X77216000Y-118821200D01*
X76936000Y-116001200D02*
X76936000Y-117551200D01*
X82117600Y-116001200D02*
X82117600Y-117551200D01*
X84937600Y-118821200D02*
X82397600Y-118821200D01*
X84937600Y-116281200D02*
X84937600Y-118821200D01*
X83667600Y-116001200D02*
X82117600Y-116001200D01*
X87477600Y-116281200D02*
X84937600Y-116281200D01*
X87477600Y-131521200D02*
X82397600Y-131521200D01*
X82397600Y-118821200D02*
X82397600Y-131521200D01*
X87477600Y-131521200D02*
X87477600Y-116281200D01*
X92557600Y-131521200D02*
X92557600Y-116281200D01*
X87477600Y-118821200D02*
X87477600Y-131521200D01*
X92557600Y-131521200D02*
X87477600Y-131521200D01*
X92557600Y-116281200D02*
X90017600Y-116281200D01*
X88747600Y-116001200D02*
X87197600Y-116001200D01*
X90017600Y-116281200D02*
X90017600Y-118821200D01*
X90017600Y-118821200D02*
X87477600Y-118821200D01*
X87197600Y-116001200D02*
X87197600Y-117551200D01*
X92226800Y-116001200D02*
X92226800Y-117551200D01*
X95046800Y-118821200D02*
X92506800Y-118821200D01*
X95046800Y-116281200D02*
X95046800Y-118821200D01*
X93776800Y-116001200D02*
X92226800Y-116001200D01*
X97586800Y-116281200D02*
X95046800Y-116281200D01*
X97586800Y-131521200D02*
X92506800Y-131521200D01*
X92506800Y-118821200D02*
X92506800Y-131521200D01*
X97586800Y-131521200D02*
X97586800Y-116281200D01*
X66928400Y-138354400D02*
X68478400Y-138354400D01*
X69748400Y-135534400D02*
X69748400Y-138074400D01*
X67208400Y-135534400D02*
X69748400Y-135534400D01*
X66928400Y-136804400D02*
X66928400Y-138354400D01*
X67208400Y-132994400D02*
X67208400Y-135534400D01*
X112928400Y-132994400D02*
X112928400Y-138074400D01*
X112928400Y-138074400D02*
X69748400Y-138074400D01*
X67208400Y-132994400D02*
X112928400Y-132994400D01*
X77266800Y-131521200D02*
X77266800Y-57861200D01*
X72186800Y-60401200D02*
X72186800Y-131521200D01*
X77266800Y-131521200D02*
X72186800Y-131521200D01*
X77266800Y-57861200D02*
X74726800Y-57861200D01*
X73456800Y-57581200D02*
X71906800Y-57581200D01*
X74726800Y-57861200D02*
X74726800Y-60401200D01*
X74726800Y-60401200D02*
X72186800Y-60401200D01*
X71906800Y-57581200D02*
X71906800Y-59131200D01*
X102336000Y-57530400D02*
X102336000Y-59080400D01*
X105156000Y-60350400D02*
X102616000Y-60350400D01*
X105156000Y-57810400D02*
X105156000Y-60350400D01*
X103886000Y-57530400D02*
X102336000Y-57530400D01*
X107696000Y-57810400D02*
X105156000Y-57810400D01*
X107696000Y-131470400D02*
X102616000Y-131470400D01*
X102616000Y-60350400D02*
X102616000Y-131470400D01*
X107696000Y-131470400D02*
X107696000Y-57810400D01*
X102666800Y-131470400D02*
X102666800Y-57810400D01*
X97586800Y-60350400D02*
X97586800Y-131470400D01*
X102666800Y-131470400D02*
X97586800Y-131470400D01*
X102666800Y-57810400D02*
X100126800Y-57810400D01*
X98856800Y-57530400D02*
X97306800Y-57530400D01*
X100126800Y-57810400D02*
X100126800Y-60350400D01*
X100126800Y-60350400D02*
X97586800Y-60350400D01*
X97306800Y-57530400D02*
X97306800Y-59080400D01*
X66826800Y-57581200D02*
X66826800Y-59131200D01*
X69646800Y-60401200D02*
X67106800Y-60401200D01*
X69646800Y-57861200D02*
X69646800Y-60401200D01*
X68376800Y-57581200D02*
X66826800Y-57581200D01*
X72186800Y-57861200D02*
X69646800Y-57861200D01*
X72186800Y-131521200D02*
X67106800Y-131521200D01*
X67106800Y-60401200D02*
X67106800Y-131521200D01*
X72186800Y-131521200D02*
X72186800Y-57861200D01*
D11*
X121408400Y-64176000D02*
X121808400Y-64176000D01*
X121408400Y-60676000D02*
X121808400Y-60676000D01*
X121408400Y-67676000D02*
X121808400Y-67676000D01*
X121408400Y-81676000D02*
X121808400Y-81676000D01*
X121408400Y-71176000D02*
X121808400Y-71176000D01*
X121408400Y-74676000D02*
X121808400Y-74676000D01*
X121408400Y-88676000D02*
X121808400Y-88676000D01*
X121408400Y-85176000D02*
X121808400Y-85176000D01*
X121408400Y-78176000D02*
X121808400Y-78176000D01*
X120308400Y-92176000D02*
X120308400Y-57176000D01*
X121408400Y-92176000D02*
X121408400Y-57176000D01*
X114208400Y-92176000D02*
X121808400Y-92176000D01*
X121808400Y-57176000D02*
X114208400Y-57176000D01*
X114208400Y-57176000D02*
X114208400Y-92176000D01*
X114208400Y-92228000D02*
X114208400Y-127228000D01*
X121808400Y-92228000D02*
X114208400Y-92228000D01*
X114208400Y-127228000D02*
X121808400Y-127228000D01*
X121408400Y-127228000D02*
X121408400Y-92228000D01*
X120308400Y-127228000D02*
X120308400Y-92228000D01*
X121408400Y-113228000D02*
X121808400Y-113228000D01*
X121408400Y-120228000D02*
X121808400Y-120228000D01*
X121408400Y-123728000D02*
X121808400Y-123728000D01*
X121408400Y-109728000D02*
X121808400Y-109728000D01*
X121408400Y-106228000D02*
X121808400Y-106228000D01*
X121408400Y-116728000D02*
X121808400Y-116728000D01*
X121408400Y-102728000D02*
X121808400Y-102728000D01*
X121408400Y-95728000D02*
X121808400Y-95728000D01*
X121408400Y-99228000D02*
X121808400Y-99228000D01*
X53851600Y-100162000D02*
X53451600Y-100162000D01*
X53851600Y-103662000D02*
X53451600Y-103662000D01*
X53851600Y-96662000D02*
X53451600Y-96662000D01*
X53851600Y-82662000D02*
X53451600Y-82662000D01*
X53851600Y-93162000D02*
X53451600Y-93162000D01*
X53851600Y-89662000D02*
X53451600Y-89662000D01*
X53851600Y-75662000D02*
X53451600Y-75662000D01*
X53851600Y-79162000D02*
X53451600Y-79162000D01*
X53851600Y-86162000D02*
X53451600Y-86162000D01*
X54951600Y-72162000D02*
X54951600Y-107162000D01*
X53851600Y-72162000D02*
X53851600Y-107162000D01*
X61051600Y-72162000D02*
X53451600Y-72162000D01*
X53451600Y-107162000D02*
X61051600Y-107162000D01*
X61051600Y-107162000D02*
X61051600Y-72162000D01*
X113547200Y-139151200D02*
X57547200Y-139151200D01*
X113547200Y-146751200D02*
X113547200Y-139151200D01*
X57547200Y-139151200D02*
X57547200Y-146751200D01*
X57547200Y-146351200D02*
X113547200Y-146351200D01*
X57547200Y-145251200D02*
X113547200Y-145251200D01*
X71547200Y-146351200D02*
X71547200Y-146751200D01*
X64547200Y-146351200D02*
X64547200Y-146751200D01*
X61047200Y-146351200D02*
X61047200Y-146751200D01*
X75047200Y-146351200D02*
X75047200Y-146751200D01*
X78547200Y-146351200D02*
X78547200Y-146751200D01*
X68047200Y-146351200D02*
X68047200Y-146751200D01*
X82047200Y-146351200D02*
X82047200Y-146751200D01*
X89047200Y-146351200D02*
X89047200Y-146751200D01*
X85547200Y-146351200D02*
X85547200Y-146751200D01*
X92547200Y-146351200D02*
X92547200Y-146751200D01*
X96047200Y-146351200D02*
X96047200Y-146751200D01*
X103047200Y-146351200D02*
X103047200Y-146751200D01*
X99547200Y-146351200D02*
X99547200Y-146751200D01*
X106547200Y-146351200D02*
X106547200Y-146751200D01*
X110047200Y-146351200D02*
X110047200Y-146751200D01*
X110047200Y-151786800D02*
X110047200Y-152186800D01*
X106547200Y-151786800D02*
X106547200Y-152186800D01*
X99547200Y-151786800D02*
X99547200Y-152186800D01*
X103047200Y-151786800D02*
X103047200Y-152186800D01*
X96047200Y-151786800D02*
X96047200Y-152186800D01*
X92547200Y-151786800D02*
X92547200Y-152186800D01*
X85547200Y-151786800D02*
X85547200Y-152186800D01*
X89047200Y-151786800D02*
X89047200Y-152186800D01*
X82047200Y-151786800D02*
X82047200Y-152186800D01*
X68047200Y-151786800D02*
X68047200Y-152186800D01*
X78547200Y-151786800D02*
X78547200Y-152186800D01*
X75047200Y-151786800D02*
X75047200Y-152186800D01*
X61047200Y-151786800D02*
X61047200Y-152186800D01*
X64547200Y-151786800D02*
X64547200Y-152186800D01*
X71547200Y-151786800D02*
X71547200Y-152186800D01*
X57547200Y-150686800D02*
X113547200Y-150686800D01*
X57547200Y-151786800D02*
X113547200Y-151786800D01*
X57547200Y-144586800D02*
X57547200Y-152186800D01*
X113547200Y-152186800D02*
X113547200Y-144586800D01*
X113547200Y-144586800D02*
X57547200Y-144586800D01*
X121408400Y-137764400D02*
X121808400Y-137764400D01*
X121408400Y-134264400D02*
X121808400Y-134264400D01*
X121408400Y-130764400D02*
X121808400Y-130764400D01*
X120308400Y-141264400D02*
X120308400Y-127264400D01*
X121408400Y-141264400D02*
X121408400Y-127264400D01*
X114208400Y-141264400D02*
X121808400Y-141264400D01*
X121808400Y-127264400D02*
X114208400Y-127264400D01*
X114208400Y-127264400D02*
X114208400Y-141264400D01*
X53851600Y-131658000D02*
X53451600Y-131658000D01*
X53851600Y-117658000D02*
X53451600Y-117658000D01*
X53851600Y-128158000D02*
X53451600Y-128158000D01*
X53851600Y-124658000D02*
X53451600Y-124658000D01*
X53851600Y-110658000D02*
X53451600Y-110658000D01*
X53851600Y-114158000D02*
X53451600Y-114158000D01*
X53851600Y-121158000D02*
X53451600Y-121158000D01*
X54951600Y-107158000D02*
X54951600Y-135158000D01*
X53851600Y-107158000D02*
X53851600Y-135158000D01*
X61051600Y-107158000D02*
X53451600Y-107158000D01*
X53451600Y-135158000D02*
X61051600Y-135158000D01*
X61051600Y-135158000D02*
X61051600Y-107158000D01*
D12*
X113310000Y-83287200D02*
X110210000Y-83287200D01*
X113310000Y-81737200D02*
X113310000Y-83287200D01*
X110490000Y-80467200D02*
X113030000Y-80467200D01*
X110210000Y-83287200D02*
X110210000Y-81737200D01*
X113030000Y-57607200D02*
X113030000Y-80467200D01*
X110490000Y-57607200D02*
X113030000Y-57607200D01*
X110490000Y-80467200D02*
X110490000Y-57607200D01*
X61848400Y-112191200D02*
X64948400Y-112191200D01*
X61848400Y-113741200D02*
X61848400Y-112191200D01*
X64668400Y-115011200D02*
X62128400Y-115011200D01*
X64948400Y-112191200D02*
X64948400Y-113741200D01*
X62128400Y-132791200D02*
X62128400Y-115011200D01*
X64668400Y-132791200D02*
X62128400Y-132791200D01*
X64668400Y-115011200D02*
X64668400Y-132791200D01*
D13*
D12*
X66668571Y-70382609D02*
X65525714Y-70382609D01*
X66401904Y-69811180D02*
X65601904Y-69811180D01*
X66401904Y-69354038D01*
X65601904Y-69354038D01*
X66325714Y-68515942D02*
X66363809Y-68554038D01*
X66401904Y-68668323D01*
X66401904Y-68744514D01*
X66363809Y-68858800D01*
X66287619Y-68934990D01*
X66211428Y-68973085D01*
X66059047Y-69011180D01*
X65944761Y-69011180D01*
X65792380Y-68973085D01*
X65716190Y-68934990D01*
X65640000Y-68858800D01*
X65601904Y-68744514D01*
X65601904Y-68668323D01*
X65640000Y-68554038D01*
X65678095Y-68515942D01*
X66401904Y-67754038D02*
X66401904Y-68211180D01*
X66401904Y-67982609D02*
X65601904Y-67982609D01*
X65716190Y-68058800D01*
X65792380Y-68134990D01*
X65830476Y-68211180D01*
X66668571Y-67220704D02*
X65525714Y-67220704D01*
X66401904Y-66649276D02*
X65601904Y-66649276D01*
X66401904Y-66192133D01*
X65601904Y-66192133D01*
X66325714Y-65354038D02*
X66363809Y-65392133D01*
X66401904Y-65506419D01*
X66401904Y-65582609D01*
X66363809Y-65696895D01*
X66287619Y-65773085D01*
X66211428Y-65811180D01*
X66059047Y-65849276D01*
X65944761Y-65849276D01*
X65792380Y-65811180D01*
X65716190Y-65773085D01*
X65640000Y-65696895D01*
X65601904Y-65582609D01*
X65601904Y-65506419D01*
X65640000Y-65392133D01*
X65678095Y-65354038D01*
X65678095Y-65049276D02*
X65640000Y-65011180D01*
X65601904Y-64934990D01*
X65601904Y-64744514D01*
X65640000Y-64668323D01*
X65678095Y-64630228D01*
X65754285Y-64592133D01*
X65830476Y-64592133D01*
X65944761Y-64630228D01*
X66401904Y-65087371D01*
X66401904Y-64592133D01*
X66668571Y-64058800D02*
X65525714Y-64058800D01*
X66401904Y-63487371D02*
X65601904Y-63487371D01*
X66401904Y-63030228D01*
X65601904Y-63030228D01*
X66325714Y-62192133D02*
X66363809Y-62230228D01*
X66401904Y-62344514D01*
X66401904Y-62420704D01*
X66363809Y-62534990D01*
X66287619Y-62611180D01*
X66211428Y-62649276D01*
X66059047Y-62687371D01*
X65944761Y-62687371D01*
X65792380Y-62649276D01*
X65716190Y-62611180D01*
X65640000Y-62534990D01*
X65601904Y-62420704D01*
X65601904Y-62344514D01*
X65640000Y-62230228D01*
X65678095Y-62192133D01*
X65601904Y-61925466D02*
X65601904Y-61430228D01*
X65906666Y-61696895D01*
X65906666Y-61582609D01*
X65944761Y-61506419D01*
X65982857Y-61468323D01*
X66059047Y-61430228D01*
X66249523Y-61430228D01*
X66325714Y-61468323D01*
X66363809Y-61506419D01*
X66401904Y-61582609D01*
X66401904Y-61811180D01*
X66363809Y-61887371D01*
X66325714Y-61925466D01*
X66668571Y-60896895D02*
X65525714Y-60896895D01*
X66401904Y-60325466D02*
X65601904Y-60325466D01*
X66401904Y-59868323D01*
X65601904Y-59868323D01*
X66325714Y-59030228D02*
X66363809Y-59068323D01*
X66401904Y-59182609D01*
X66401904Y-59258800D01*
X66363809Y-59373085D01*
X66287619Y-59449276D01*
X66211428Y-59487371D01*
X66059047Y-59525466D01*
X65944761Y-59525466D01*
X65792380Y-59487371D01*
X65716190Y-59449276D01*
X65640000Y-59373085D01*
X65601904Y-59258800D01*
X65601904Y-59182609D01*
X65640000Y-59068323D01*
X65678095Y-59030228D01*
X65868571Y-58344514D02*
X66401904Y-58344514D01*
X65563809Y-58534990D02*
X66135238Y-58725466D01*
X66135238Y-58230228D01*
X66668571Y-57734990D02*
X65525714Y-57734990D01*
D13*
D12*
X123941619Y-76666323D02*
X123941619Y-77294895D01*
X123941619Y-76980609D02*
X122841619Y-76980609D01*
X122998761Y-77085371D01*
X123103523Y-77190133D01*
X123155904Y-77294895D01*
X122841619Y-75985371D02*
X122841619Y-75880609D01*
X122894000Y-75775847D01*
X122946380Y-75723466D01*
X123051142Y-75671085D01*
X123260666Y-75618704D01*
X123522571Y-75618704D01*
X123732095Y-75671085D01*
X123836857Y-75723466D01*
X123889238Y-75775847D01*
X123941619Y-75880609D01*
X123941619Y-75985371D01*
X123889238Y-76090133D01*
X123836857Y-76142514D01*
X123732095Y-76194895D01*
X123522571Y-76247276D01*
X123260666Y-76247276D01*
X123051142Y-76194895D01*
X122946380Y-76142514D01*
X122894000Y-76090133D01*
X122841619Y-75985371D01*
X124308285Y-74885371D02*
X122736857Y-74885371D01*
X123941619Y-73523466D02*
X123941619Y-74152038D01*
X123941619Y-73837752D02*
X122841619Y-73837752D01*
X122998761Y-73942514D01*
X123103523Y-74047276D01*
X123155904Y-74152038D01*
X123941619Y-72475847D02*
X123941619Y-73104419D01*
X123941619Y-72790133D02*
X122841619Y-72790133D01*
X122998761Y-72894895D01*
X123103523Y-72999657D01*
X123155904Y-73104419D01*
X124308285Y-71742514D02*
X122736857Y-71742514D01*
X123941619Y-70380609D02*
X123941619Y-71009180D01*
X123941619Y-70694895D02*
X122841619Y-70694895D01*
X122998761Y-70799657D01*
X123103523Y-70904419D01*
X123155904Y-71009180D01*
X122946380Y-69961561D02*
X122894000Y-69909180D01*
X122841619Y-69804419D01*
X122841619Y-69542514D01*
X122894000Y-69437752D01*
X122946380Y-69385371D01*
X123051142Y-69332990D01*
X123155904Y-69332990D01*
X123313047Y-69385371D01*
X123941619Y-70013942D01*
X123941619Y-69332990D01*
X124308285Y-68599657D02*
X122736857Y-68599657D01*
X123941619Y-67237752D02*
X123941619Y-67866323D01*
X123941619Y-67552038D02*
X122841619Y-67552038D01*
X122998761Y-67656800D01*
X123103523Y-67761561D01*
X123155904Y-67866323D01*
X122841619Y-66871085D02*
X122841619Y-66190133D01*
X123260666Y-66556800D01*
X123260666Y-66399657D01*
X123313047Y-66294895D01*
X123365428Y-66242514D01*
X123470190Y-66190133D01*
X123732095Y-66190133D01*
X123836857Y-66242514D01*
X123889238Y-66294895D01*
X123941619Y-66399657D01*
X123941619Y-66713942D01*
X123889238Y-66818704D01*
X123836857Y-66871085D01*
X124308285Y-65456800D02*
X122736857Y-65456800D01*
X123889238Y-64723466D02*
X123941619Y-64566323D01*
X123941619Y-64304419D01*
X123889238Y-64199657D01*
X123836857Y-64147276D01*
X123732095Y-64094895D01*
X123627333Y-64094895D01*
X123522571Y-64147276D01*
X123470190Y-64199657D01*
X123417809Y-64304419D01*
X123365428Y-64513942D01*
X123313047Y-64618704D01*
X123260666Y-64671085D01*
X123155904Y-64723466D01*
X123051142Y-64723466D01*
X122946380Y-64671085D01*
X122894000Y-64618704D01*
X122841619Y-64513942D01*
X122841619Y-64252038D01*
X122894000Y-64094895D01*
X123941619Y-63623466D02*
X122841619Y-63623466D01*
X122841619Y-63361561D01*
X122894000Y-63204419D01*
X122998761Y-63099657D01*
X123103523Y-63047276D01*
X123313047Y-62994895D01*
X123470190Y-62994895D01*
X123679714Y-63047276D01*
X123784476Y-63099657D01*
X123889238Y-63204419D01*
X123941619Y-63361561D01*
X123941619Y-63623466D01*
X123627333Y-62575847D02*
X123627333Y-62052038D01*
X123941619Y-62680609D02*
X122841619Y-62313942D01*
X123941619Y-61947276D01*
X124308285Y-61318704D02*
X122736857Y-61318704D01*
X123889238Y-60585371D02*
X123941619Y-60428228D01*
X123941619Y-60166323D01*
X123889238Y-60061561D01*
X123836857Y-60009180D01*
X123732095Y-59956800D01*
X123627333Y-59956800D01*
X123522571Y-60009180D01*
X123470190Y-60061561D01*
X123417809Y-60166323D01*
X123365428Y-60375847D01*
X123313047Y-60480609D01*
X123260666Y-60532990D01*
X123155904Y-60585371D01*
X123051142Y-60585371D01*
X122946380Y-60532990D01*
X122894000Y-60480609D01*
X122841619Y-60375847D01*
X122841619Y-60113942D01*
X122894000Y-59956800D01*
X123836857Y-58856800D02*
X123889238Y-58909180D01*
X123941619Y-59066323D01*
X123941619Y-59171085D01*
X123889238Y-59328228D01*
X123784476Y-59432990D01*
X123679714Y-59485371D01*
X123470190Y-59537752D01*
X123313047Y-59537752D01*
X123103523Y-59485371D01*
X122998761Y-59432990D01*
X122894000Y-59328228D01*
X122841619Y-59171085D01*
X122841619Y-59066323D01*
X122894000Y-58909180D01*
X122946380Y-58856800D01*
X123941619Y-57861561D02*
X123941619Y-58385371D01*
X122841619Y-58385371D01*
X124308285Y-57232990D02*
X122736857Y-57232990D01*
X52550914Y-135289599D02*
X51122342Y-135289599D01*
X51931866Y-134622933D02*
X51931866Y-134146742D01*
X52217580Y-134718171D02*
X51217580Y-134384838D01*
X52217580Y-134051504D01*
X52217580Y-133194361D02*
X52217580Y-133765790D01*
X52217580Y-133480076D02*
X51217580Y-133480076D01*
X51360438Y-133575314D01*
X51455676Y-133670552D01*
X51503295Y-133765790D01*
X51217580Y-132289599D02*
X51217580Y-132765790D01*
X51693771Y-132813409D01*
X51646152Y-132765790D01*
X51598533Y-132670552D01*
X51598533Y-132432457D01*
X51646152Y-132337219D01*
X51693771Y-132289599D01*
X51789009Y-132241980D01*
X52027104Y-132241980D01*
X52122342Y-132289599D01*
X52169961Y-132337219D01*
X52217580Y-132432457D01*
X52217580Y-132670552D01*
X52169961Y-132765790D01*
X52122342Y-132813409D01*
X52550914Y-131575314D02*
X51122342Y-131575314D01*
X51931866Y-130908647D02*
X51931866Y-130432457D01*
X52217580Y-131003885D02*
X51217580Y-130670552D01*
X52217580Y-130337219D01*
X52217580Y-129480076D02*
X52217580Y-130051504D01*
X52217580Y-129765790D02*
X51217580Y-129765790D01*
X51360438Y-129861028D01*
X51455676Y-129956266D01*
X51503295Y-130051504D01*
X51550914Y-128622933D02*
X52217580Y-128622933D01*
X51169961Y-128861028D02*
X51884247Y-129099123D01*
X51884247Y-128480076D01*
X52550914Y-127861028D02*
X51122342Y-127861028D01*
X51931866Y-127194361D02*
X51931866Y-126718171D01*
X52217580Y-127289599D02*
X51217580Y-126956266D01*
X52217580Y-126622933D01*
X52217580Y-125765790D02*
X52217580Y-126337219D01*
X52217580Y-126051504D02*
X51217580Y-126051504D01*
X51360438Y-126146742D01*
X51455676Y-126241980D01*
X51503295Y-126337219D01*
X51217580Y-125432457D02*
X51217580Y-124813409D01*
X51598533Y-125146742D01*
X51598533Y-125003885D01*
X51646152Y-124908647D01*
X51693771Y-124861028D01*
X51789009Y-124813409D01*
X52027104Y-124813409D01*
X52122342Y-124861028D01*
X52169961Y-124908647D01*
X52217580Y-125003885D01*
X52217580Y-125289599D01*
X52169961Y-125384838D01*
X52122342Y-125432457D01*
X52550914Y-124146742D02*
X51122342Y-124146742D01*
X51931866Y-123480076D02*
X51931866Y-123003885D01*
X52217580Y-123575314D02*
X51217580Y-123241980D01*
X52217580Y-122908647D01*
X52217580Y-122051504D02*
X52217580Y-122622933D01*
X52217580Y-122337219D02*
X51217580Y-122337219D01*
X51360438Y-122432457D01*
X51455676Y-122527695D01*
X51503295Y-122622933D01*
X51312819Y-121670552D02*
X51265200Y-121622933D01*
X51217580Y-121527695D01*
X51217580Y-121289599D01*
X51265200Y-121194361D01*
X51312819Y-121146742D01*
X51408057Y-121099123D01*
X51503295Y-121099123D01*
X51646152Y-121146742D01*
X52217580Y-121718171D01*
X52217580Y-121099123D01*
X52550914Y-120432457D02*
X51122342Y-120432457D01*
X51931866Y-119765790D02*
X51931866Y-119289599D01*
X52217580Y-119861028D02*
X51217580Y-119527695D01*
X52217580Y-119194361D01*
X52217580Y-118337219D02*
X52217580Y-118908647D01*
X52217580Y-118622933D02*
X51217580Y-118622933D01*
X51360438Y-118718171D01*
X51455676Y-118813409D01*
X51503295Y-118908647D01*
X52217580Y-117384838D02*
X52217580Y-117956266D01*
X52217580Y-117670552D02*
X51217580Y-117670552D01*
X51360438Y-117765790D01*
X51455676Y-117861028D01*
X51503295Y-117956266D01*
X52550914Y-116718171D02*
X51122342Y-116718171D01*
X51931866Y-116051504D02*
X51931866Y-115575314D01*
X52217580Y-116146742D02*
X51217580Y-115813409D01*
X52217580Y-115480076D01*
X52217580Y-114622933D02*
X52217580Y-115194361D01*
X52217580Y-114908647D02*
X51217580Y-114908647D01*
X51360438Y-115003885D01*
X51455676Y-115099123D01*
X51503295Y-115194361D01*
X51217580Y-114003885D02*
X51217580Y-113908647D01*
X51265200Y-113813409D01*
X51312819Y-113765790D01*
X51408057Y-113718171D01*
X51598533Y-113670552D01*
X51836628Y-113670552D01*
X52027104Y-113718171D01*
X52122342Y-113765790D01*
X52169961Y-113813409D01*
X52217580Y-113908647D01*
X52217580Y-114003885D01*
X52169961Y-114099123D01*
X52122342Y-114146742D01*
X52027104Y-114194361D01*
X51836628Y-114241980D01*
X51598533Y-114241980D01*
X51408057Y-114194361D01*
X51312819Y-114146742D01*
X51265200Y-114099123D01*
X51217580Y-114003885D01*
X52550914Y-113003885D02*
X51122342Y-113003885D01*
X51931866Y-112337219D02*
X51931866Y-111861028D01*
X52217580Y-112432457D02*
X51217580Y-112099123D01*
X52217580Y-111765790D01*
X52217580Y-111384838D02*
X52217580Y-111194361D01*
X52169961Y-111099123D01*
X52122342Y-111051504D01*
X51979485Y-110956266D01*
X51789009Y-110908647D01*
X51408057Y-110908647D01*
X51312819Y-110956266D01*
X51265200Y-111003885D01*
X51217580Y-111099123D01*
X51217580Y-111289599D01*
X51265200Y-111384838D01*
X51312819Y-111432457D01*
X51408057Y-111480076D01*
X51646152Y-111480076D01*
X51741390Y-111432457D01*
X51789009Y-111384838D01*
X51836628Y-111289599D01*
X51836628Y-111099123D01*
X51789009Y-111003885D01*
X51741390Y-110956266D01*
X51646152Y-110908647D01*
X52550914Y-110241980D02*
X51122342Y-110241980D01*
X51931866Y-109575314D02*
X51931866Y-109099123D01*
X52217580Y-109670552D02*
X51217580Y-109337219D01*
X52217580Y-109003885D01*
X51646152Y-108527695D02*
X51598533Y-108622933D01*
X51550914Y-108670552D01*
X51455676Y-108718171D01*
X51408057Y-108718171D01*
X51312819Y-108670552D01*
X51265200Y-108622933D01*
X51217580Y-108527695D01*
X51217580Y-108337219D01*
X51265200Y-108241980D01*
X51312819Y-108194361D01*
X51408057Y-108146742D01*
X51455676Y-108146742D01*
X51550914Y-108194361D01*
X51598533Y-108241980D01*
X51646152Y-108337219D01*
X51646152Y-108527695D01*
X51693771Y-108622933D01*
X51741390Y-108670552D01*
X51836628Y-108718171D01*
X52027104Y-108718171D01*
X52122342Y-108670552D01*
X52169961Y-108622933D01*
X52217580Y-108527695D01*
X52217580Y-108337219D01*
X52169961Y-108241980D01*
X52122342Y-108194361D01*
X52027104Y-108146742D01*
X51836628Y-108146742D01*
X51741390Y-108194361D01*
X51693771Y-108241980D01*
X51646152Y-108337219D01*
X52550914Y-107480076D02*
X51122342Y-107480076D01*
X51931866Y-106051504D02*
X51931866Y-105575314D01*
X52217580Y-106146742D02*
X51217580Y-105813409D01*
X52217580Y-105480076D01*
X51217580Y-105241980D02*
X51217580Y-104575314D01*
X52217580Y-105003885D01*
X52550914Y-103956266D02*
X51122342Y-103956266D01*
X51931866Y-102527695D02*
X51931866Y-102051504D01*
X52217580Y-102622933D02*
X51217580Y-102289599D01*
X52217580Y-101956266D01*
X51217580Y-101194361D02*
X51217580Y-101384838D01*
X51265200Y-101480076D01*
X51312819Y-101527695D01*
X51455676Y-101622933D01*
X51646152Y-101670552D01*
X52027104Y-101670552D01*
X52122342Y-101622933D01*
X52169961Y-101575314D01*
X52217580Y-101480076D01*
X52217580Y-101289599D01*
X52169961Y-101194361D01*
X52122342Y-101146742D01*
X52027104Y-101099123D01*
X51789009Y-101099123D01*
X51693771Y-101146742D01*
X51646152Y-101194361D01*
X51598533Y-101289599D01*
X51598533Y-101480076D01*
X51646152Y-101575314D01*
X51693771Y-101622933D01*
X51789009Y-101670552D01*
X52550914Y-100432457D02*
X51122342Y-100432457D01*
X51931866Y-99003885D02*
X51931866Y-98527695D01*
X52217580Y-99099123D02*
X51217580Y-98765790D01*
X52217580Y-98432457D01*
X51217580Y-97622933D02*
X51217580Y-98099123D01*
X51693771Y-98146742D01*
X51646152Y-98099123D01*
X51598533Y-98003885D01*
X51598533Y-97765790D01*
X51646152Y-97670552D01*
X51693771Y-97622933D01*
X51789009Y-97575314D01*
X52027104Y-97575314D01*
X52122342Y-97622933D01*
X52169961Y-97670552D01*
X52217580Y-97765790D01*
X52217580Y-98003885D01*
X52169961Y-98099123D01*
X52122342Y-98146742D01*
X52550914Y-96908647D02*
X51122342Y-96908647D01*
X51931866Y-95480076D02*
X51931866Y-95003885D01*
X52217580Y-95575314D02*
X51217580Y-95241980D01*
X52217580Y-94908647D01*
X51550914Y-94146742D02*
X52217580Y-94146742D01*
X51169961Y-94384838D02*
X51884247Y-94622933D01*
X51884247Y-94003885D01*
X52550914Y-93384838D02*
X51122342Y-93384838D01*
X51931866Y-91956266D02*
X51931866Y-91480076D01*
X52217580Y-92051504D02*
X51217580Y-91718171D01*
X52217580Y-91384838D01*
X51217580Y-91146742D02*
X51217580Y-90527695D01*
X51598533Y-90861028D01*
X51598533Y-90718171D01*
X51646152Y-90622933D01*
X51693771Y-90575314D01*
X51789009Y-90527695D01*
X52027104Y-90527695D01*
X52122342Y-90575314D01*
X52169961Y-90622933D01*
X52217580Y-90718171D01*
X52217580Y-91003885D01*
X52169961Y-91099123D01*
X52122342Y-91146742D01*
X52550914Y-89861028D02*
X51122342Y-89861028D01*
X51931866Y-88432457D02*
X51931866Y-87956266D01*
X52217580Y-88527695D02*
X51217580Y-88194361D01*
X52217580Y-87861028D01*
X51312819Y-87575314D02*
X51265200Y-87527695D01*
X51217580Y-87432457D01*
X51217580Y-87194361D01*
X51265200Y-87099123D01*
X51312819Y-87051504D01*
X51408057Y-87003885D01*
X51503295Y-87003885D01*
X51646152Y-87051504D01*
X52217580Y-87622933D01*
X52217580Y-87003885D01*
X52550914Y-86337219D02*
X51122342Y-86337219D01*
X51931866Y-84908647D02*
X51931866Y-84432457D01*
X52217580Y-85003885D02*
X51217580Y-84670552D01*
X52217580Y-84337219D01*
X52217580Y-83480076D02*
X52217580Y-84051504D01*
X52217580Y-83765790D02*
X51217580Y-83765790D01*
X51360438Y-83861028D01*
X51455676Y-83956266D01*
X51503295Y-84051504D01*
X52550914Y-82813409D02*
X51122342Y-82813409D01*
X51931866Y-81384838D02*
X51931866Y-80908647D01*
X52217580Y-81480076D02*
X51217580Y-81146742D01*
X52217580Y-80813409D01*
X51217580Y-80289599D02*
X51217580Y-80194361D01*
X51265200Y-80099123D01*
X51312819Y-80051504D01*
X51408057Y-80003885D01*
X51598533Y-79956266D01*
X51836628Y-79956266D01*
X52027104Y-80003885D01*
X52122342Y-80051504D01*
X52169961Y-80099123D01*
X52217580Y-80194361D01*
X52217580Y-80289599D01*
X52169961Y-80384838D01*
X52122342Y-80432457D01*
X52027104Y-80480076D01*
X51836628Y-80527695D01*
X51598533Y-80527695D01*
X51408057Y-80480076D01*
X51312819Y-80432457D01*
X51265200Y-80384838D01*
X51217580Y-80289599D01*
X52550914Y-79289599D02*
X51122342Y-79289599D01*
X122736057Y-111700857D02*
X122736057Y-111586571D01*
X122793200Y-111472285D01*
X122850342Y-111415142D01*
X122964628Y-111358000D01*
X123193200Y-111300857D01*
X123478914Y-111300857D01*
X123707485Y-111358000D01*
X123821771Y-111415142D01*
X123878914Y-111472285D01*
X123936057Y-111586571D01*
X123936057Y-111700857D01*
X123878914Y-111815142D01*
X123821771Y-111872285D01*
X123707485Y-111929428D01*
X123478914Y-111986571D01*
X123193200Y-111986571D01*
X122964628Y-111929428D01*
X122850342Y-111872285D01*
X122793200Y-111815142D01*
X122736057Y-111700857D01*
X124336057Y-109586571D02*
X122621771Y-109586571D01*
X123936057Y-107186571D02*
X123936057Y-107872285D01*
X123936057Y-107529428D02*
X122736057Y-107529428D01*
X122907485Y-107643714D01*
X123021771Y-107758000D01*
X123078914Y-107872285D01*
X124336057Y-105472285D02*
X122621771Y-105472285D01*
X122850342Y-104672285D02*
X122793200Y-104615142D01*
X122736057Y-104500857D01*
X122736057Y-104215142D01*
X122793200Y-104100857D01*
X122850342Y-104043714D01*
X122964628Y-103986571D01*
X123078914Y-103986571D01*
X123250342Y-104043714D01*
X123936057Y-104729428D01*
X123936057Y-103986571D01*
X124336057Y-102272285D02*
X122621771Y-102272285D01*
X122736057Y-101529428D02*
X122736057Y-100786571D01*
X123193200Y-101186571D01*
X123193200Y-101015142D01*
X123250342Y-100900857D01*
X123307485Y-100843714D01*
X123421771Y-100786571D01*
X123707485Y-100786571D01*
X123821771Y-100843714D01*
X123878914Y-100900857D01*
X123936057Y-101015142D01*
X123936057Y-101358000D01*
X123878914Y-101472285D01*
X123821771Y-101529428D01*
X124336057Y-99072285D02*
X122621771Y-99072285D01*
X123136057Y-97700857D02*
X123936057Y-97700857D01*
X122678914Y-97986571D02*
X123536057Y-98272285D01*
X123536057Y-97529428D01*
X124336057Y-95872285D02*
X122621771Y-95872285D01*
X122736057Y-93529428D02*
X122736057Y-94100857D01*
X123307485Y-94158000D01*
X123250342Y-94100857D01*
X123193200Y-93986571D01*
X123193200Y-93700857D01*
X123250342Y-93586571D01*
X123307485Y-93529428D01*
X123421771Y-93472285D01*
X123707485Y-93472285D01*
X123821771Y-93529428D01*
X123878914Y-93586571D01*
X123936057Y-93700857D01*
X123936057Y-93986571D01*
X123878914Y-94100857D01*
X123821771Y-94158000D01*
X124336057Y-91758000D02*
X122621771Y-91758000D01*
X122736057Y-89472285D02*
X122736057Y-89700857D01*
X122793200Y-89815142D01*
X122850342Y-89872285D01*
X123021771Y-89986571D01*
X123250342Y-90043714D01*
X123707485Y-90043714D01*
X123821771Y-89986571D01*
X123878914Y-89929428D01*
X123936057Y-89815142D01*
X123936057Y-89586571D01*
X123878914Y-89472285D01*
X123821771Y-89415142D01*
X123707485Y-89358000D01*
X123421771Y-89358000D01*
X123307485Y-89415142D01*
X123250342Y-89472285D01*
X123193200Y-89586571D01*
X123193200Y-89815142D01*
X123250342Y-89929428D01*
X123307485Y-89986571D01*
X123421771Y-90043714D01*
X124336057Y-87643714D02*
X122621771Y-87643714D01*
X122736057Y-86900857D02*
X122736057Y-86100857D01*
X123936057Y-86615142D01*
X124336057Y-84443714D02*
X122621771Y-84443714D01*
X123250342Y-83415142D02*
X123193200Y-83529428D01*
X123136057Y-83586571D01*
X123021771Y-83643714D01*
X122964628Y-83643714D01*
X122850342Y-83586571D01*
X122793200Y-83529428D01*
X122736057Y-83415142D01*
X122736057Y-83186571D01*
X122793200Y-83072285D01*
X122850342Y-83015142D01*
X122964628Y-82958000D01*
X123021771Y-82958000D01*
X123136057Y-83015142D01*
X123193200Y-83072285D01*
X123250342Y-83186571D01*
X123250342Y-83415142D01*
X123307485Y-83529428D01*
X123364628Y-83586571D01*
X123478914Y-83643714D01*
X123707485Y-83643714D01*
X123821771Y-83586571D01*
X123878914Y-83529428D01*
X123936057Y-83415142D01*
X123936057Y-83186571D01*
X123878914Y-83072285D01*
X123821771Y-83015142D01*
X123707485Y-82958000D01*
X123478914Y-82958000D01*
X123364628Y-83015142D01*
X123307485Y-83072285D01*
X123250342Y-83186571D01*
X124336057Y-81243714D02*
X122621771Y-81243714D01*
X123936057Y-80329428D02*
X123936057Y-80100857D01*
X123878914Y-79986571D01*
X123821771Y-79929428D01*
X123650342Y-79815142D01*
X123421771Y-79758000D01*
X122964628Y-79758000D01*
X122850342Y-79815142D01*
X122793200Y-79872285D01*
X122736057Y-79986571D01*
X122736057Y-80215142D01*
X122793200Y-80329428D01*
X122850342Y-80386571D01*
X122964628Y-80443714D01*
X123250342Y-80443714D01*
X123364628Y-80386571D01*
X123421771Y-80329428D01*
X123478914Y-80215142D01*
X123478914Y-79986571D01*
X123421771Y-79872285D01*
X123364628Y-79815142D01*
X123250342Y-79758000D01*
X124336057Y-78958000D02*
X122621771Y-78958000D01*
X65878104Y-117079780D02*
X65401914Y-117079780D01*
X65354295Y-117555971D01*
X65401914Y-117508352D01*
X65497152Y-117460733D01*
X65735247Y-117460733D01*
X65830485Y-117508352D01*
X65878104Y-117555971D01*
X65925723Y-117651209D01*
X65925723Y-117889304D01*
X65878104Y-117984542D01*
X65830485Y-118032161D01*
X65735247Y-118079780D01*
X65497152Y-118079780D01*
X65401914Y-118032161D01*
X65354295Y-117984542D01*
X66306676Y-117175019D02*
X66354295Y-117127400D01*
X66449533Y-117079780D01*
X66687628Y-117079780D01*
X66782866Y-117127400D01*
X66830485Y-117175019D01*
X66878104Y-117270257D01*
X66878104Y-117365495D01*
X66830485Y-117508352D01*
X66259057Y-118079780D01*
X66878104Y-118079780D01*
X65801904Y-129881380D02*
X65325714Y-129881380D01*
X65278095Y-130357571D01*
X65325714Y-130309952D01*
X65420952Y-130262333D01*
X65659047Y-130262333D01*
X65754285Y-130309952D01*
X65801904Y-130357571D01*
X65849523Y-130452809D01*
X65849523Y-130690904D01*
X65801904Y-130786142D01*
X65754285Y-130833761D01*
X65659047Y-130881380D01*
X65420952Y-130881380D01*
X65325714Y-130833761D01*
X65278095Y-130786142D01*
X66182857Y-129881380D02*
X66801904Y-129881380D01*
X66468571Y-130262333D01*
X66611428Y-130262333D01*
X66706666Y-130309952D01*
X66754285Y-130357571D01*
X66801904Y-130452809D01*
X66801904Y-130690904D01*
X66754285Y-130786142D01*
X66706666Y-130833761D01*
X66611428Y-130881380D01*
X66325714Y-130881380D01*
X66230476Y-130833761D01*
X66182857Y-130786142D01*
X108280295Y-117403619D02*
X108327914Y-117356000D01*
X108423152Y-117308380D01*
X108661247Y-117308380D01*
X108756485Y-117356000D01*
X108804104Y-117403619D01*
X108851723Y-117498857D01*
X108851723Y-117594095D01*
X108804104Y-117736952D01*
X108232676Y-118308380D01*
X108851723Y-118308380D01*
X109232676Y-117403619D02*
X109280295Y-117356000D01*
X109375533Y-117308380D01*
X109613628Y-117308380D01*
X109708866Y-117356000D01*
X109756485Y-117403619D01*
X109804104Y-117498857D01*
X109804104Y-117594095D01*
X109756485Y-117736952D01*
X109185057Y-118308380D01*
X109804104Y-118308380D01*
X108686695Y-130154419D02*
X108734314Y-130106800D01*
X108829552Y-130059180D01*
X109067647Y-130059180D01*
X109162885Y-130106800D01*
X109210504Y-130154419D01*
X109258123Y-130249657D01*
X109258123Y-130344895D01*
X109210504Y-130487752D01*
X108639076Y-131059180D01*
X109258123Y-131059180D01*
X109591457Y-130059180D02*
X110210504Y-130059180D01*
X109877171Y-130440133D01*
X110020028Y-130440133D01*
X110115266Y-130487752D01*
X110162885Y-130535371D01*
X110210504Y-130630609D01*
X110210504Y-130868704D01*
X110162885Y-130963942D01*
X110115266Y-131011561D01*
X110020028Y-131059180D01*
X109734314Y-131059180D01*
X109639076Y-131011561D01*
X109591457Y-130963942D01*
X124183657Y-141172342D02*
X122469371Y-141172342D01*
X122697942Y-140372342D02*
X122640800Y-140315200D01*
X122583657Y-140200914D01*
X122583657Y-139915200D01*
X122640800Y-139800914D01*
X122697942Y-139743771D01*
X122812228Y-139686628D01*
X122926514Y-139686628D01*
X123097942Y-139743771D01*
X123783657Y-140429485D01*
X123783657Y-139686628D01*
X123783657Y-138543771D02*
X123783657Y-139229485D01*
X123783657Y-138886628D02*
X122583657Y-138886628D01*
X122755085Y-139000914D01*
X122869371Y-139115200D01*
X122926514Y-139229485D01*
X124183657Y-137743771D02*
X122469371Y-137743771D01*
X122697942Y-136943771D02*
X122640800Y-136886628D01*
X122583657Y-136772342D01*
X122583657Y-136486628D01*
X122640800Y-136372342D01*
X122697942Y-136315200D01*
X122812228Y-136258057D01*
X122926514Y-136258057D01*
X123097942Y-136315200D01*
X123783657Y-137000914D01*
X123783657Y-136258057D01*
X122583657Y-135515200D02*
X122583657Y-135400914D01*
X122640800Y-135286628D01*
X122697942Y-135229485D01*
X122812228Y-135172342D01*
X123040800Y-135115200D01*
X123326514Y-135115200D01*
X123555085Y-135172342D01*
X123669371Y-135229485D01*
X123726514Y-135286628D01*
X123783657Y-135400914D01*
X123783657Y-135515200D01*
X123726514Y-135629485D01*
X123669371Y-135686628D01*
X123555085Y-135743771D01*
X123326514Y-135800914D01*
X123040800Y-135800914D01*
X122812228Y-135743771D01*
X122697942Y-135686628D01*
X122640800Y-135629485D01*
X122583657Y-135515200D01*
X124183657Y-134315200D02*
X122469371Y-134315200D01*
X123783657Y-132829485D02*
X123783657Y-133515200D01*
X123783657Y-133172342D02*
X122583657Y-133172342D01*
X122755085Y-133286628D01*
X122869371Y-133400914D01*
X122926514Y-133515200D01*
X123783657Y-132258057D02*
X123783657Y-132029485D01*
X123726514Y-131915200D01*
X123669371Y-131858057D01*
X123497942Y-131743771D01*
X123269371Y-131686628D01*
X122812228Y-131686628D01*
X122697942Y-131743771D01*
X122640800Y-131800914D01*
X122583657Y-131915200D01*
X122583657Y-132143771D01*
X122640800Y-132258057D01*
X122697942Y-132315200D01*
X122812228Y-132372342D01*
X123097942Y-132372342D01*
X123212228Y-132315200D01*
X123269371Y-132258057D01*
X123326514Y-132143771D01*
X123326514Y-131915200D01*
X123269371Y-131800914D01*
X123212228Y-131743771D01*
X123097942Y-131686628D01*
X124183657Y-130886628D02*
X122469371Y-130886628D01*
X123783657Y-129400914D02*
X123783657Y-130086628D01*
X123783657Y-129743771D02*
X122583657Y-129743771D01*
X122755085Y-129858057D01*
X122869371Y-129972342D01*
X122926514Y-130086628D01*
X123097942Y-128715200D02*
X123040800Y-128829485D01*
X122983657Y-128886628D01*
X122869371Y-128943771D01*
X122812228Y-128943771D01*
X122697942Y-128886628D01*
X122640800Y-128829485D01*
X122583657Y-128715200D01*
X122583657Y-128486628D01*
X122640800Y-128372342D01*
X122697942Y-128315200D01*
X122812228Y-128258057D01*
X122869371Y-128258057D01*
X122983657Y-128315200D01*
X123040800Y-128372342D01*
X123097942Y-128486628D01*
X123097942Y-128715200D01*
X123155085Y-128829485D01*
X123212228Y-128886628D01*
X123326514Y-128943771D01*
X123555085Y-128943771D01*
X123669371Y-128886628D01*
X123726514Y-128829485D01*
X123783657Y-128715200D01*
X123783657Y-128486628D01*
X123726514Y-128372342D01*
X123669371Y-128315200D01*
X123555085Y-128258057D01*
X123326514Y-128258057D01*
X123212228Y-128315200D01*
X123155085Y-128372342D01*
X123097942Y-128486628D01*
X124183657Y-127458057D02*
X122469371Y-127458057D01*
X109523114Y-116275990D02*
X108094542Y-116275990D01*
X108285019Y-115609323D02*
X108237400Y-115561704D01*
X108189780Y-115466466D01*
X108189780Y-115228371D01*
X108237400Y-115133133D01*
X108285019Y-115085514D01*
X108380257Y-115037895D01*
X108475495Y-115037895D01*
X108618352Y-115085514D01*
X109189780Y-115656942D01*
X109189780Y-115037895D01*
X109189780Y-114085514D02*
X109189780Y-114656942D01*
X109189780Y-114371228D02*
X108189780Y-114371228D01*
X108332638Y-114466466D01*
X108427876Y-114561704D01*
X108475495Y-114656942D01*
X109523114Y-113418847D02*
X108094542Y-113418847D01*
X108285019Y-112752180D02*
X108237400Y-112704561D01*
X108189780Y-112609323D01*
X108189780Y-112371228D01*
X108237400Y-112275990D01*
X108285019Y-112228371D01*
X108380257Y-112180752D01*
X108475495Y-112180752D01*
X108618352Y-112228371D01*
X109189780Y-112799799D01*
X109189780Y-112180752D01*
X108189780Y-111561704D02*
X108189780Y-111466466D01*
X108237400Y-111371228D01*
X108285019Y-111323609D01*
X108380257Y-111275990D01*
X108570733Y-111228371D01*
X108808828Y-111228371D01*
X108999304Y-111275990D01*
X109094542Y-111323609D01*
X109142161Y-111371228D01*
X109189780Y-111466466D01*
X109189780Y-111561704D01*
X109142161Y-111656942D01*
X109094542Y-111704561D01*
X108999304Y-111752180D01*
X108808828Y-111799799D01*
X108570733Y-111799799D01*
X108380257Y-111752180D01*
X108285019Y-111704561D01*
X108237400Y-111656942D01*
X108189780Y-111561704D01*
X109523114Y-110561704D02*
X108094542Y-110561704D01*
X109189780Y-109323609D02*
X109189780Y-109895038D01*
X109189780Y-109609323D02*
X108189780Y-109609323D01*
X108332638Y-109704561D01*
X108427876Y-109799799D01*
X108475495Y-109895038D01*
X109189780Y-108847419D02*
X109189780Y-108656942D01*
X109142161Y-108561704D01*
X109094542Y-108514085D01*
X108951685Y-108418847D01*
X108761209Y-108371228D01*
X108380257Y-108371228D01*
X108285019Y-108418847D01*
X108237400Y-108466466D01*
X108189780Y-108561704D01*
X108189780Y-108752180D01*
X108237400Y-108847419D01*
X108285019Y-108895038D01*
X108380257Y-108942657D01*
X108618352Y-108942657D01*
X108713590Y-108895038D01*
X108761209Y-108847419D01*
X108808828Y-108752180D01*
X108808828Y-108561704D01*
X108761209Y-108466466D01*
X108713590Y-108418847D01*
X108618352Y-108371228D01*
X109523114Y-107704561D02*
X108094542Y-107704561D01*
X109189780Y-106466466D02*
X109189780Y-107037895D01*
X109189780Y-106752180D02*
X108189780Y-106752180D01*
X108332638Y-106847419D01*
X108427876Y-106942657D01*
X108475495Y-107037895D01*
X108618352Y-105895038D02*
X108570733Y-105990276D01*
X108523114Y-106037895D01*
X108427876Y-106085514D01*
X108380257Y-106085514D01*
X108285019Y-106037895D01*
X108237400Y-105990276D01*
X108189780Y-105895038D01*
X108189780Y-105704561D01*
X108237400Y-105609323D01*
X108285019Y-105561704D01*
X108380257Y-105514085D01*
X108427876Y-105514085D01*
X108523114Y-105561704D01*
X108570733Y-105609323D01*
X108618352Y-105704561D01*
X108618352Y-105895038D01*
X108665971Y-105990276D01*
X108713590Y-106037895D01*
X108808828Y-106085514D01*
X108999304Y-106085514D01*
X109094542Y-106037895D01*
X109142161Y-105990276D01*
X109189780Y-105895038D01*
X109189780Y-105704561D01*
X109142161Y-105609323D01*
X109094542Y-105561704D01*
X108999304Y-105514085D01*
X108808828Y-105514085D01*
X108713590Y-105561704D01*
X108665971Y-105609323D01*
X108618352Y-105704561D01*
X109523114Y-104847419D02*
X108094542Y-104847419D01*
X109189780Y-103609323D02*
X109189780Y-104180752D01*
X109189780Y-103895038D02*
X108189780Y-103895038D01*
X108332638Y-103990276D01*
X108427876Y-104085514D01*
X108475495Y-104180752D01*
X108189780Y-103275990D02*
X108189780Y-102609323D01*
X109189780Y-103037895D01*
X109523114Y-101990276D02*
X108094542Y-101990276D01*
X109189780Y-100752180D02*
X109189780Y-101323609D01*
X109189780Y-101037895D02*
X108189780Y-101037895D01*
X108332638Y-101133133D01*
X108427876Y-101228371D01*
X108475495Y-101323609D01*
X108189780Y-99895038D02*
X108189780Y-100085514D01*
X108237400Y-100180752D01*
X108285019Y-100228371D01*
X108427876Y-100323609D01*
X108618352Y-100371228D01*
X108999304Y-100371228D01*
X109094542Y-100323609D01*
X109142161Y-100275990D01*
X109189780Y-100180752D01*
X109189780Y-99990276D01*
X109142161Y-99895038D01*
X109094542Y-99847419D01*
X108999304Y-99799799D01*
X108761209Y-99799799D01*
X108665971Y-99847419D01*
X108618352Y-99895038D01*
X108570733Y-99990276D01*
X108570733Y-100180752D01*
X108618352Y-100275990D01*
X108665971Y-100323609D01*
X108761209Y-100371228D01*
X109523114Y-99133133D02*
X108094542Y-99133133D01*
X109189780Y-97895038D02*
X109189780Y-98466466D01*
X109189780Y-98180752D02*
X108189780Y-98180752D01*
X108332638Y-98275990D01*
X108427876Y-98371228D01*
X108475495Y-98466466D01*
X108189780Y-96990276D02*
X108189780Y-97466466D01*
X108665971Y-97514085D01*
X108618352Y-97466466D01*
X108570733Y-97371228D01*
X108570733Y-97133133D01*
X108618352Y-97037895D01*
X108665971Y-96990276D01*
X108761209Y-96942657D01*
X108999304Y-96942657D01*
X109094542Y-96990276D01*
X109142161Y-97037895D01*
X109189780Y-97133133D01*
X109189780Y-97371228D01*
X109142161Y-97466466D01*
X109094542Y-97514085D01*
X109523114Y-96275990D02*
X108094542Y-96275990D01*
X109189780Y-95037895D02*
X109189780Y-95609323D01*
X109189780Y-95323609D02*
X108189780Y-95323609D01*
X108332638Y-95418847D01*
X108427876Y-95514085D01*
X108475495Y-95609323D01*
X108523114Y-94180752D02*
X109189780Y-94180752D01*
X108142161Y-94418847D02*
X108856447Y-94656942D01*
X108856447Y-94037895D01*
X109523114Y-93418847D02*
X108094542Y-93418847D01*
X108189780Y-92514085D02*
X108189780Y-92418847D01*
X108237400Y-92323609D01*
X108285019Y-92275990D01*
X108380257Y-92228371D01*
X108570733Y-92180752D01*
X108808828Y-92180752D01*
X108999304Y-92228371D01*
X109094542Y-92275990D01*
X109142161Y-92323609D01*
X109189780Y-92418847D01*
X109189780Y-92514085D01*
X109142161Y-92609323D01*
X109094542Y-92656942D01*
X108999304Y-92704561D01*
X108808828Y-92752180D01*
X108570733Y-92752180D01*
X108380257Y-92704561D01*
X108285019Y-92656942D01*
X108237400Y-92609323D01*
X108189780Y-92514085D01*
X109523114Y-91514085D02*
X108094542Y-91514085D01*
X109189780Y-90275990D02*
X109189780Y-90847419D01*
X109189780Y-90561704D02*
X108189780Y-90561704D01*
X108332638Y-90656942D01*
X108427876Y-90752180D01*
X108475495Y-90847419D01*
X109523114Y-89609323D02*
X108094542Y-89609323D01*
X108285019Y-88942657D02*
X108237400Y-88895038D01*
X108189780Y-88799799D01*
X108189780Y-88561704D01*
X108237400Y-88466466D01*
X108285019Y-88418847D01*
X108380257Y-88371228D01*
X108475495Y-88371228D01*
X108618352Y-88418847D01*
X109189780Y-88990276D01*
X109189780Y-88371228D01*
X109523114Y-87704561D02*
X108094542Y-87704561D01*
X108189780Y-87085514D02*
X108189780Y-86466466D01*
X108570733Y-86799799D01*
X108570733Y-86656942D01*
X108618352Y-86561704D01*
X108665971Y-86514085D01*
X108761209Y-86466466D01*
X108999304Y-86466466D01*
X109094542Y-86514085D01*
X109142161Y-86561704D01*
X109189780Y-86656942D01*
X109189780Y-86942657D01*
X109142161Y-87037895D01*
X109094542Y-87085514D01*
X109523114Y-85799799D02*
X108094542Y-85799799D01*
X108523114Y-84656942D02*
X109189780Y-84656942D01*
X108142161Y-84895038D02*
X108856447Y-85133133D01*
X108856447Y-84514085D01*
X109523114Y-83895038D02*
X108094542Y-83895038D01*
X108189780Y-82704561D02*
X108189780Y-83180752D01*
X108665971Y-83228371D01*
X108618352Y-83180752D01*
X108570733Y-83085514D01*
X108570733Y-82847419D01*
X108618352Y-82752180D01*
X108665971Y-82704561D01*
X108761209Y-82656942D01*
X108999304Y-82656942D01*
X109094542Y-82704561D01*
X109142161Y-82752180D01*
X109189780Y-82847419D01*
X109189780Y-83085514D01*
X109142161Y-83180752D01*
X109094542Y-83228371D01*
X109523114Y-81990276D02*
X108094542Y-81990276D01*
X108189780Y-80847419D02*
X108189780Y-81037895D01*
X108237400Y-81133133D01*
X108285019Y-81180752D01*
X108427876Y-81275990D01*
X108618352Y-81323609D01*
X108999304Y-81323609D01*
X109094542Y-81275990D01*
X109142161Y-81228371D01*
X109189780Y-81133133D01*
X109189780Y-80942657D01*
X109142161Y-80847419D01*
X109094542Y-80799799D01*
X108999304Y-80752180D01*
X108761209Y-80752180D01*
X108665971Y-80799799D01*
X108618352Y-80847419D01*
X108570733Y-80942657D01*
X108570733Y-81133133D01*
X108618352Y-81228371D01*
X108665971Y-81275990D01*
X108761209Y-81323609D01*
X109523114Y-80085514D02*
X108094542Y-80085514D01*
X108189780Y-79466466D02*
X108189780Y-78799799D01*
X109189780Y-79228371D01*
X109523114Y-78180752D02*
X108094542Y-78180752D01*
X108618352Y-77323609D02*
X108570733Y-77418847D01*
X108523114Y-77466466D01*
X108427876Y-77514085D01*
X108380257Y-77514085D01*
X108285019Y-77466466D01*
X108237400Y-77418847D01*
X108189780Y-77323609D01*
X108189780Y-77133133D01*
X108237400Y-77037895D01*
X108285019Y-76990276D01*
X108380257Y-76942657D01*
X108427876Y-76942657D01*
X108523114Y-76990276D01*
X108570733Y-77037895D01*
X108618352Y-77133133D01*
X108618352Y-77323609D01*
X108665971Y-77418847D01*
X108713590Y-77466466D01*
X108808828Y-77514085D01*
X108999304Y-77514085D01*
X109094542Y-77466466D01*
X109142161Y-77418847D01*
X109189780Y-77323609D01*
X109189780Y-77133133D01*
X109142161Y-77037895D01*
X109094542Y-76990276D01*
X108999304Y-76942657D01*
X108808828Y-76942657D01*
X108713590Y-76990276D01*
X108665971Y-77037895D01*
X108618352Y-77133133D01*
X109523114Y-76275990D02*
X108094542Y-76275990D01*
X109189780Y-75514085D02*
X109189780Y-75323609D01*
X109142161Y-75228371D01*
X109094542Y-75180752D01*
X108951685Y-75085514D01*
X108761209Y-75037895D01*
X108380257Y-75037895D01*
X108285019Y-75085514D01*
X108237400Y-75133133D01*
X108189780Y-75228371D01*
X108189780Y-75418847D01*
X108237400Y-75514085D01*
X108285019Y-75561704D01*
X108380257Y-75609323D01*
X108618352Y-75609323D01*
X108713590Y-75561704D01*
X108761209Y-75514085D01*
X108808828Y-75418847D01*
X108808828Y-75228371D01*
X108761209Y-75133133D01*
X108713590Y-75085514D01*
X108618352Y-75037895D01*
X109523114Y-74371228D02*
X108094542Y-74371228D01*
X109189780Y-73133133D02*
X109189780Y-73704561D01*
X109189780Y-73418847D02*
X108189780Y-73418847D01*
X108332638Y-73514085D01*
X108427876Y-73609323D01*
X108475495Y-73704561D01*
X108189780Y-72514085D02*
X108189780Y-72418847D01*
X108237400Y-72323609D01*
X108285019Y-72275990D01*
X108380257Y-72228371D01*
X108570733Y-72180752D01*
X108808828Y-72180752D01*
X108999304Y-72228371D01*
X109094542Y-72275990D01*
X109142161Y-72323609D01*
X109189780Y-72418847D01*
X109189780Y-72514085D01*
X109142161Y-72609323D01*
X109094542Y-72656942D01*
X108999304Y-72704561D01*
X108808828Y-72752180D01*
X108570733Y-72752180D01*
X108380257Y-72704561D01*
X108285019Y-72656942D01*
X108237400Y-72609323D01*
X108189780Y-72514085D01*
X109523114Y-71514085D02*
X108094542Y-71514085D01*
X109189780Y-70275990D02*
X109189780Y-70847419D01*
X109189780Y-70561704D02*
X108189780Y-70561704D01*
X108332638Y-70656942D01*
X108427876Y-70752180D01*
X108475495Y-70847419D01*
X109189780Y-69323609D02*
X109189780Y-69895038D01*
X109189780Y-69609323D02*
X108189780Y-69609323D01*
X108332638Y-69704561D01*
X108427876Y-69799799D01*
X108475495Y-69895038D01*
X109523114Y-68656942D02*
X108094542Y-68656942D01*
X109189780Y-67418847D02*
X109189780Y-67990276D01*
X109189780Y-67704561D02*
X108189780Y-67704561D01*
X108332638Y-67799799D01*
X108427876Y-67895038D01*
X108475495Y-67990276D01*
X108285019Y-67037895D02*
X108237400Y-66990276D01*
X108189780Y-66895038D01*
X108189780Y-66656942D01*
X108237400Y-66561704D01*
X108285019Y-66514085D01*
X108380257Y-66466466D01*
X108475495Y-66466466D01*
X108618352Y-66514085D01*
X109189780Y-67085514D01*
X109189780Y-66466466D01*
X109523114Y-65799799D02*
X108094542Y-65799799D01*
X109142161Y-65133133D02*
X109189780Y-64990276D01*
X109189780Y-64752180D01*
X109142161Y-64656942D01*
X109094542Y-64609323D01*
X108999304Y-64561704D01*
X108904066Y-64561704D01*
X108808828Y-64609323D01*
X108761209Y-64656942D01*
X108713590Y-64752180D01*
X108665971Y-64942657D01*
X108618352Y-65037895D01*
X108570733Y-65085514D01*
X108475495Y-65133133D01*
X108380257Y-65133133D01*
X108285019Y-65085514D01*
X108237400Y-65037895D01*
X108189780Y-64942657D01*
X108189780Y-64704561D01*
X108237400Y-64561704D01*
X109189780Y-64133133D02*
X108189780Y-64133133D01*
X108189780Y-63895038D01*
X108237400Y-63752180D01*
X108332638Y-63656942D01*
X108427876Y-63609323D01*
X108618352Y-63561704D01*
X108761209Y-63561704D01*
X108951685Y-63609323D01*
X109046923Y-63656942D01*
X109142161Y-63752180D01*
X109189780Y-63895038D01*
X109189780Y-64133133D01*
X108904066Y-63180752D02*
X108904066Y-62704561D01*
X109189780Y-63275990D02*
X108189780Y-62942657D01*
X109189780Y-62609323D01*
X109523114Y-62037895D02*
X108094542Y-62037895D01*
X109142161Y-61371228D02*
X109189780Y-61228371D01*
X109189780Y-60990276D01*
X109142161Y-60895038D01*
X109094542Y-60847419D01*
X108999304Y-60799799D01*
X108904066Y-60799799D01*
X108808828Y-60847419D01*
X108761209Y-60895038D01*
X108713590Y-60990276D01*
X108665971Y-61180752D01*
X108618352Y-61275990D01*
X108570733Y-61323609D01*
X108475495Y-61371228D01*
X108380257Y-61371228D01*
X108285019Y-61323609D01*
X108237400Y-61275990D01*
X108189780Y-61180752D01*
X108189780Y-60942657D01*
X108237400Y-60799799D01*
X109094542Y-59799799D02*
X109142161Y-59847419D01*
X109189780Y-59990276D01*
X109189780Y-60085514D01*
X109142161Y-60228371D01*
X109046923Y-60323609D01*
X108951685Y-60371228D01*
X108761209Y-60418847D01*
X108618352Y-60418847D01*
X108427876Y-60371228D01*
X108332638Y-60323609D01*
X108237400Y-60228371D01*
X108189780Y-60085514D01*
X108189780Y-59990276D01*
X108237400Y-59847419D01*
X108285019Y-59799799D01*
X109189780Y-58895038D02*
X109189780Y-59371228D01*
X108189780Y-59371228D01*
X109523114Y-58323609D02*
X108094542Y-58323609D01*
X52342971Y-70916009D02*
X51200114Y-70916009D01*
X52076304Y-70344580D02*
X51276304Y-70344580D01*
X52076304Y-69887438D01*
X51276304Y-69887438D01*
X52000114Y-69049342D02*
X52038209Y-69087438D01*
X52076304Y-69201723D01*
X52076304Y-69277914D01*
X52038209Y-69392200D01*
X51962019Y-69468390D01*
X51885828Y-69506485D01*
X51733447Y-69544580D01*
X51619161Y-69544580D01*
X51466780Y-69506485D01*
X51390590Y-69468390D01*
X51314400Y-69392200D01*
X51276304Y-69277914D01*
X51276304Y-69201723D01*
X51314400Y-69087438D01*
X51352495Y-69049342D01*
X52076304Y-68287438D02*
X52076304Y-68744580D01*
X52076304Y-68516009D02*
X51276304Y-68516009D01*
X51390590Y-68592200D01*
X51466780Y-68668390D01*
X51504876Y-68744580D01*
X52342971Y-67754104D02*
X51200114Y-67754104D01*
X52076304Y-67182676D02*
X51276304Y-67182676D01*
X52076304Y-66725533D01*
X51276304Y-66725533D01*
X52000114Y-65887438D02*
X52038209Y-65925533D01*
X52076304Y-66039819D01*
X52076304Y-66116009D01*
X52038209Y-66230295D01*
X51962019Y-66306485D01*
X51885828Y-66344580D01*
X51733447Y-66382676D01*
X51619161Y-66382676D01*
X51466780Y-66344580D01*
X51390590Y-66306485D01*
X51314400Y-66230295D01*
X51276304Y-66116009D01*
X51276304Y-66039819D01*
X51314400Y-65925533D01*
X51352495Y-65887438D01*
X51352495Y-65582676D02*
X51314400Y-65544580D01*
X51276304Y-65468390D01*
X51276304Y-65277914D01*
X51314400Y-65201723D01*
X51352495Y-65163628D01*
X51428685Y-65125533D01*
X51504876Y-65125533D01*
X51619161Y-65163628D01*
X52076304Y-65620771D01*
X52076304Y-65125533D01*
X52342971Y-64592200D02*
X51200114Y-64592200D01*
X52076304Y-64020771D02*
X51276304Y-64020771D01*
X52076304Y-63563628D01*
X51276304Y-63563628D01*
X52000114Y-62725533D02*
X52038209Y-62763628D01*
X52076304Y-62877914D01*
X52076304Y-62954104D01*
X52038209Y-63068390D01*
X51962019Y-63144580D01*
X51885828Y-63182676D01*
X51733447Y-63220771D01*
X51619161Y-63220771D01*
X51466780Y-63182676D01*
X51390590Y-63144580D01*
X51314400Y-63068390D01*
X51276304Y-62954104D01*
X51276304Y-62877914D01*
X51314400Y-62763628D01*
X51352495Y-62725533D01*
X51276304Y-62458866D02*
X51276304Y-61963628D01*
X51581066Y-62230295D01*
X51581066Y-62116009D01*
X51619161Y-62039819D01*
X51657257Y-62001723D01*
X51733447Y-61963628D01*
X51923923Y-61963628D01*
X52000114Y-62001723D01*
X52038209Y-62039819D01*
X52076304Y-62116009D01*
X52076304Y-62344580D01*
X52038209Y-62420771D01*
X52000114Y-62458866D01*
X52342971Y-61430295D02*
X51200114Y-61430295D01*
X52076304Y-60858866D02*
X51276304Y-60858866D01*
X52076304Y-60401723D01*
X51276304Y-60401723D01*
X52000114Y-59563628D02*
X52038209Y-59601723D01*
X52076304Y-59716009D01*
X52076304Y-59792200D01*
X52038209Y-59906485D01*
X51962019Y-59982676D01*
X51885828Y-60020771D01*
X51733447Y-60058866D01*
X51619161Y-60058866D01*
X51466780Y-60020771D01*
X51390590Y-59982676D01*
X51314400Y-59906485D01*
X51276304Y-59792200D01*
X51276304Y-59716009D01*
X51314400Y-59601723D01*
X51352495Y-59563628D01*
X51542971Y-58877914D02*
X52076304Y-58877914D01*
X51238209Y-59068390D02*
X51809638Y-59258866D01*
X51809638Y-58763628D01*
X52342971Y-58268390D02*
X51200114Y-58268390D01*
D13*
X55243457Y-147082771D02*
X54529171Y-147082771D01*
X54457742Y-147797057D01*
X54529171Y-147725628D01*
X54672028Y-147654200D01*
X55029171Y-147654200D01*
X55172028Y-147725628D01*
X55243457Y-147797057D01*
X55314885Y-147939914D01*
X55314885Y-148297057D01*
X55243457Y-148439914D01*
X55172028Y-148511342D01*
X55029171Y-148582771D01*
X54672028Y-148582771D01*
X54529171Y-148511342D01*
X54457742Y-148439914D01*
X55814885Y-147082771D02*
X56743457Y-147082771D01*
X56243457Y-147654200D01*
X56457742Y-147654200D01*
X56600600Y-147725628D01*
X56672028Y-147797057D01*
X56743457Y-147939914D01*
X56743457Y-148297057D01*
X56672028Y-148439914D01*
X56600600Y-148511342D01*
X56457742Y-148582771D01*
X56029171Y-148582771D01*
X55886314Y-148511342D01*
X55814885Y-148439914D01*
X55421257Y-141291571D02*
X54706971Y-141291571D01*
X54635542Y-142005857D01*
X54706971Y-141934428D01*
X54849828Y-141863000D01*
X55206971Y-141863000D01*
X55349828Y-141934428D01*
X55421257Y-142005857D01*
X55492685Y-142148714D01*
X55492685Y-142505857D01*
X55421257Y-142648714D01*
X55349828Y-142720142D01*
X55206971Y-142791571D01*
X54849828Y-142791571D01*
X54706971Y-142720142D01*
X54635542Y-142648714D01*
X56064114Y-141434428D02*
X56135542Y-141363000D01*
X56278400Y-141291571D01*
X56635542Y-141291571D01*
X56778400Y-141363000D01*
X56849828Y-141434428D01*
X56921257Y-141577285D01*
X56921257Y-141720142D01*
X56849828Y-141934428D01*
X55992685Y-142791571D01*
X56921257Y-142791571D01*
X115265342Y-146895428D02*
X115336771Y-146824000D01*
X115479628Y-146752571D01*
X115836771Y-146752571D01*
X115979628Y-146824000D01*
X116051057Y-146895428D01*
X116122485Y-147038285D01*
X116122485Y-147181142D01*
X116051057Y-147395428D01*
X115193914Y-148252571D01*
X116122485Y-148252571D01*
X116622485Y-146752571D02*
X117551057Y-146752571D01*
X117051057Y-147324000D01*
X117265342Y-147324000D01*
X117408200Y-147395428D01*
X117479628Y-147466857D01*
X117551057Y-147609714D01*
X117551057Y-147966857D01*
X117479628Y-148109714D01*
X117408200Y-148181142D01*
X117265342Y-148252571D01*
X116836771Y-148252571D01*
X116693914Y-148181142D01*
X116622485Y-148109714D01*
D12*
X66668571Y-116291028D02*
X65525714Y-116291028D01*
X66173333Y-115757695D02*
X66173333Y-115376742D01*
X66401904Y-115833885D02*
X65601904Y-115567219D01*
X66401904Y-115300552D01*
X66401904Y-114614838D02*
X66401904Y-115071980D01*
X66401904Y-114843409D02*
X65601904Y-114843409D01*
X65716190Y-114919599D01*
X65792380Y-114995790D01*
X65830476Y-115071980D01*
X65601904Y-113891028D02*
X65601904Y-114271980D01*
X65982857Y-114310076D01*
X65944761Y-114271980D01*
X65906666Y-114195790D01*
X65906666Y-114005314D01*
X65944761Y-113929123D01*
X65982857Y-113891028D01*
X66059047Y-113852933D01*
X66249523Y-113852933D01*
X66325714Y-113891028D01*
X66363809Y-113929123D01*
X66401904Y-114005314D01*
X66401904Y-114195790D01*
X66363809Y-114271980D01*
X66325714Y-114310076D01*
X66668571Y-113319599D02*
X65525714Y-113319599D01*
X66173333Y-112786266D02*
X66173333Y-112405314D01*
X66401904Y-112862457D02*
X65601904Y-112595790D01*
X66401904Y-112329123D01*
X66401904Y-111643409D02*
X66401904Y-112100552D01*
X66401904Y-111871980D02*
X65601904Y-111871980D01*
X65716190Y-111948171D01*
X65792380Y-112024361D01*
X65830476Y-112100552D01*
X65868571Y-110957695D02*
X66401904Y-110957695D01*
X65563809Y-111148171D02*
X66135238Y-111338647D01*
X66135238Y-110843409D01*
X66668571Y-110348171D02*
X65525714Y-110348171D01*
X66173333Y-109814838D02*
X66173333Y-109433885D01*
X66401904Y-109891028D02*
X65601904Y-109624361D01*
X66401904Y-109357695D01*
X66401904Y-108671980D02*
X66401904Y-109129123D01*
X66401904Y-108900552D02*
X65601904Y-108900552D01*
X65716190Y-108976742D01*
X65792380Y-109052933D01*
X65830476Y-109129123D01*
X65601904Y-108405314D02*
X65601904Y-107910076D01*
X65906666Y-108176742D01*
X65906666Y-108062457D01*
X65944761Y-107986266D01*
X65982857Y-107948171D01*
X66059047Y-107910076D01*
X66249523Y-107910076D01*
X66325714Y-107948171D01*
X66363809Y-107986266D01*
X66401904Y-108062457D01*
X66401904Y-108291028D01*
X66363809Y-108367219D01*
X66325714Y-108405314D01*
X66668571Y-107376742D02*
X65525714Y-107376742D01*
X66173333Y-106843409D02*
X66173333Y-106462457D01*
X66401904Y-106919599D02*
X65601904Y-106652933D01*
X66401904Y-106386266D01*
X66401904Y-105700552D02*
X66401904Y-106157695D01*
X66401904Y-105929123D02*
X65601904Y-105929123D01*
X65716190Y-106005314D01*
X65792380Y-106081504D01*
X65830476Y-106157695D01*
X65678095Y-105395790D02*
X65640000Y-105357695D01*
X65601904Y-105281504D01*
X65601904Y-105091028D01*
X65640000Y-105014838D01*
X65678095Y-104976742D01*
X65754285Y-104938647D01*
X65830476Y-104938647D01*
X65944761Y-104976742D01*
X66401904Y-105433885D01*
X66401904Y-104938647D01*
X66668571Y-104405314D02*
X65525714Y-104405314D01*
X66173333Y-103871980D02*
X66173333Y-103491028D01*
X66401904Y-103948171D02*
X65601904Y-103681504D01*
X66401904Y-103414838D01*
X66401904Y-102729123D02*
X66401904Y-103186266D01*
X66401904Y-102957695D02*
X65601904Y-102957695D01*
X65716190Y-103033885D01*
X65792380Y-103110076D01*
X65830476Y-103186266D01*
X66401904Y-101967219D02*
X66401904Y-102424361D01*
X66401904Y-102195790D02*
X65601904Y-102195790D01*
X65716190Y-102271980D01*
X65792380Y-102348171D01*
X65830476Y-102424361D01*
X66668571Y-101433885D02*
X65525714Y-101433885D01*
X66173333Y-100900552D02*
X66173333Y-100519599D01*
X66401904Y-100976742D02*
X65601904Y-100710076D01*
X66401904Y-100443409D01*
X66401904Y-99757695D02*
X66401904Y-100214838D01*
X66401904Y-99986266D02*
X65601904Y-99986266D01*
X65716190Y-100062457D01*
X65792380Y-100138647D01*
X65830476Y-100214838D01*
X65601904Y-99262457D02*
X65601904Y-99186266D01*
X65640000Y-99110076D01*
X65678095Y-99071980D01*
X65754285Y-99033885D01*
X65906666Y-98995790D01*
X66097142Y-98995790D01*
X66249523Y-99033885D01*
X66325714Y-99071980D01*
X66363809Y-99110076D01*
X66401904Y-99186266D01*
X66401904Y-99262457D01*
X66363809Y-99338647D01*
X66325714Y-99376742D01*
X66249523Y-99414838D01*
X66097142Y-99452933D01*
X65906666Y-99452933D01*
X65754285Y-99414838D01*
X65678095Y-99376742D01*
X65640000Y-99338647D01*
X65601904Y-99262457D01*
X66668571Y-98462457D02*
X65525714Y-98462457D01*
X66173333Y-97929123D02*
X66173333Y-97548171D01*
X66401904Y-98005314D02*
X65601904Y-97738647D01*
X66401904Y-97471980D01*
X66401904Y-97167219D02*
X66401904Y-97014838D01*
X66363809Y-96938647D01*
X66325714Y-96900552D01*
X66211428Y-96824361D01*
X66059047Y-96786266D01*
X65754285Y-96786266D01*
X65678095Y-96824361D01*
X65640000Y-96862457D01*
X65601904Y-96938647D01*
X65601904Y-97091028D01*
X65640000Y-97167219D01*
X65678095Y-97205314D01*
X65754285Y-97243409D01*
X65944761Y-97243409D01*
X66020952Y-97205314D01*
X66059047Y-97167219D01*
X66097142Y-97091028D01*
X66097142Y-96938647D01*
X66059047Y-96862457D01*
X66020952Y-96824361D01*
X65944761Y-96786266D01*
X66668571Y-96252933D02*
X65525714Y-96252933D01*
X66173333Y-95719599D02*
X66173333Y-95338647D01*
X66401904Y-95795790D02*
X65601904Y-95529123D01*
X66401904Y-95262457D01*
X65944761Y-94881504D02*
X65906666Y-94957695D01*
X65868571Y-94995790D01*
X65792380Y-95033885D01*
X65754285Y-95033885D01*
X65678095Y-94995790D01*
X65640000Y-94957695D01*
X65601904Y-94881504D01*
X65601904Y-94729123D01*
X65640000Y-94652933D01*
X65678095Y-94614838D01*
X65754285Y-94576742D01*
X65792380Y-94576742D01*
X65868571Y-94614838D01*
X65906666Y-94652933D01*
X65944761Y-94729123D01*
X65944761Y-94881504D01*
X65982857Y-94957695D01*
X66020952Y-94995790D01*
X66097142Y-95033885D01*
X66249523Y-95033885D01*
X66325714Y-94995790D01*
X66363809Y-94957695D01*
X66401904Y-94881504D01*
X66401904Y-94729123D01*
X66363809Y-94652933D01*
X66325714Y-94614838D01*
X66249523Y-94576742D01*
X66097142Y-94576742D01*
X66020952Y-94614838D01*
X65982857Y-94652933D01*
X65944761Y-94729123D01*
X66668571Y-94043409D02*
X65525714Y-94043409D01*
X66173333Y-93510076D02*
X66173333Y-93129123D01*
X66401904Y-93586266D02*
X65601904Y-93319599D01*
X66401904Y-93052933D01*
X65601904Y-92862457D02*
X65601904Y-92329123D01*
X66401904Y-92671980D01*
X66668571Y-91833885D02*
X65525714Y-91833885D01*
X66173333Y-91300552D02*
X66173333Y-90919599D01*
X66401904Y-91376742D02*
X65601904Y-91110076D01*
X66401904Y-90843409D01*
X65601904Y-90233885D02*
X65601904Y-90386266D01*
X65640000Y-90462457D01*
X65678095Y-90500552D01*
X65792380Y-90576742D01*
X65944761Y-90614838D01*
X66249523Y-90614838D01*
X66325714Y-90576742D01*
X66363809Y-90538647D01*
X66401904Y-90462457D01*
X66401904Y-90310076D01*
X66363809Y-90233885D01*
X66325714Y-90195790D01*
X66249523Y-90157695D01*
X66059047Y-90157695D01*
X65982857Y-90195790D01*
X65944761Y-90233885D01*
X65906666Y-90310076D01*
X65906666Y-90462457D01*
X65944761Y-90538647D01*
X65982857Y-90576742D01*
X66059047Y-90614838D01*
X66668571Y-89624361D02*
X65525714Y-89624361D01*
X66173333Y-89091028D02*
X66173333Y-88710076D01*
X66401904Y-89167219D02*
X65601904Y-88900552D01*
X66401904Y-88633885D01*
X65601904Y-87986266D02*
X65601904Y-88367219D01*
X65982857Y-88405314D01*
X65944761Y-88367219D01*
X65906666Y-88291028D01*
X65906666Y-88100552D01*
X65944761Y-88024361D01*
X65982857Y-87986266D01*
X66059047Y-87948171D01*
X66249523Y-87948171D01*
X66325714Y-87986266D01*
X66363809Y-88024361D01*
X66401904Y-88100552D01*
X66401904Y-88291028D01*
X66363809Y-88367219D01*
X66325714Y-88405314D01*
X66668571Y-87414838D02*
X65525714Y-87414838D01*
X66173333Y-86881504D02*
X66173333Y-86500552D01*
X66401904Y-86957695D02*
X65601904Y-86691028D01*
X66401904Y-86424361D01*
X65868571Y-85814838D02*
X66401904Y-85814838D01*
X65563809Y-86005314D02*
X66135238Y-86195790D01*
X66135238Y-85700552D01*
X66668571Y-85205314D02*
X65525714Y-85205314D01*
X66173333Y-84671980D02*
X66173333Y-84291028D01*
X66401904Y-84748171D02*
X65601904Y-84481504D01*
X66401904Y-84214838D01*
X65601904Y-84024361D02*
X65601904Y-83529123D01*
X65906666Y-83795790D01*
X65906666Y-83681504D01*
X65944761Y-83605314D01*
X65982857Y-83567219D01*
X66059047Y-83529123D01*
X66249523Y-83529123D01*
X66325714Y-83567219D01*
X66363809Y-83605314D01*
X66401904Y-83681504D01*
X66401904Y-83910076D01*
X66363809Y-83986266D01*
X66325714Y-84024361D01*
X66668571Y-82995790D02*
X65525714Y-82995790D01*
X66173333Y-82462457D02*
X66173333Y-82081504D01*
X66401904Y-82538647D02*
X65601904Y-82271980D01*
X66401904Y-82005314D01*
X65678095Y-81776742D02*
X65640000Y-81738647D01*
X65601904Y-81662457D01*
X65601904Y-81471980D01*
X65640000Y-81395790D01*
X65678095Y-81357695D01*
X65754285Y-81319599D01*
X65830476Y-81319599D01*
X65944761Y-81357695D01*
X66401904Y-81814838D01*
X66401904Y-81319599D01*
X66668571Y-80786266D02*
X65525714Y-80786266D01*
X66173333Y-80252933D02*
X66173333Y-79871980D01*
X66401904Y-80329123D02*
X65601904Y-80062457D01*
X66401904Y-79795790D01*
X66401904Y-79110076D02*
X66401904Y-79567219D01*
X66401904Y-79338647D02*
X65601904Y-79338647D01*
X65716190Y-79414838D01*
X65792380Y-79491028D01*
X65830476Y-79567219D01*
X66668571Y-78576742D02*
X65525714Y-78576742D01*
X66173333Y-78043409D02*
X66173333Y-77662457D01*
X66401904Y-78119599D02*
X65601904Y-77852933D01*
X66401904Y-77586266D01*
X65601904Y-77167219D02*
X65601904Y-77091028D01*
X65640000Y-77014838D01*
X65678095Y-76976742D01*
X65754285Y-76938647D01*
X65906666Y-76900552D01*
X66097142Y-76900552D01*
X66249523Y-76938647D01*
X66325714Y-76976742D01*
X66363809Y-77014838D01*
X66401904Y-77091028D01*
X66401904Y-77167219D01*
X66363809Y-77243409D01*
X66325714Y-77281504D01*
X66249523Y-77319599D01*
X66097142Y-77357695D01*
X65906666Y-77357695D01*
X65754285Y-77319599D01*
X65678095Y-77281504D01*
X65640000Y-77243409D01*
X65601904Y-77167219D01*
X66668571Y-76367219D02*
X65525714Y-76367219D01*
X65640000Y-75376742D02*
X65601904Y-75452933D01*
X65601904Y-75567219D01*
X65640000Y-75681504D01*
X65716190Y-75757695D01*
X65792380Y-75795790D01*
X65944761Y-75833885D01*
X66059047Y-75833885D01*
X66211428Y-75795790D01*
X66287619Y-75757695D01*
X66363809Y-75681504D01*
X66401904Y-75567219D01*
X66401904Y-75491028D01*
X66363809Y-75376742D01*
X66325714Y-75338647D01*
X66059047Y-75338647D01*
X66059047Y-75491028D01*
X65868571Y-74995790D02*
X66401904Y-74995790D01*
X65944761Y-74995790D02*
X65906666Y-74957695D01*
X65868571Y-74881504D01*
X65868571Y-74767219D01*
X65906666Y-74691028D01*
X65982857Y-74652933D01*
X66401904Y-74652933D01*
X66401904Y-73929123D02*
X65601904Y-73929123D01*
X66363809Y-73929123D02*
X66401904Y-74005314D01*
X66401904Y-74157695D01*
X66363809Y-74233885D01*
X66325714Y-74271980D01*
X66249523Y-74310076D01*
X66020952Y-74310076D01*
X65944761Y-74271980D01*
X65906666Y-74233885D01*
X65868571Y-74157695D01*
X65868571Y-74005314D01*
X65906666Y-73929123D01*
X66668571Y-73357695D02*
X65525714Y-73357695D01*
X65640000Y-72367219D02*
X65601904Y-72443409D01*
X65601904Y-72557695D01*
X65640000Y-72671980D01*
X65716190Y-72748171D01*
X65792380Y-72786266D01*
X65944761Y-72824361D01*
X66059047Y-72824361D01*
X66211428Y-72786266D01*
X66287619Y-72748171D01*
X66363809Y-72671980D01*
X66401904Y-72557695D01*
X66401904Y-72481504D01*
X66363809Y-72367219D01*
X66325714Y-72329123D01*
X66059047Y-72329123D01*
X66059047Y-72481504D01*
X65868571Y-71986266D02*
X66401904Y-71986266D01*
X65944761Y-71986266D02*
X65906666Y-71948171D01*
X65868571Y-71871980D01*
X65868571Y-71757695D01*
X65906666Y-71681504D01*
X65982857Y-71643409D01*
X66401904Y-71643409D01*
X66401904Y-70919600D02*
X65601904Y-70919600D01*
X66363809Y-70919600D02*
X66401904Y-70995790D01*
X66401904Y-71148171D01*
X66363809Y-71224361D01*
X66325714Y-71262457D01*
X66249523Y-71300552D01*
X66020952Y-71300552D01*
X65944761Y-71262457D01*
X65906666Y-71224361D01*
X65868571Y-71148171D01*
X65868571Y-70995790D01*
X65906666Y-70919600D01*
X66668571Y-70348171D02*
X65525714Y-70348171D01*
D13*
X115189142Y-142196428D02*
X115260571Y-142125000D01*
X115403428Y-142053571D01*
X115760571Y-142053571D01*
X115903428Y-142125000D01*
X115974857Y-142196428D01*
X116046285Y-142339285D01*
X116046285Y-142482142D01*
X115974857Y-142696428D01*
X115117714Y-143553571D01*
X116046285Y-143553571D01*
X116617714Y-142196428D02*
X116689142Y-142125000D01*
X116832000Y-142053571D01*
X117189142Y-142053571D01*
X117332000Y-142125000D01*
X117403428Y-142196428D01*
X117474857Y-142339285D01*
X117474857Y-142482142D01*
X117403428Y-142696428D01*
X116546285Y-143553571D01*
X117474857Y-143553571D01*
D12*
X123783657Y-125678457D02*
X123783657Y-126364171D01*
X123783657Y-126021314D02*
X122583657Y-126021314D01*
X122755085Y-126135600D01*
X122869371Y-126249885D01*
X122926514Y-126364171D01*
X122583657Y-125278457D02*
X122583657Y-124478457D01*
X123783657Y-124992742D01*
X124183657Y-123735600D02*
X122469371Y-123735600D01*
X123783657Y-122249885D02*
X123783657Y-122935600D01*
X123783657Y-122592742D02*
X122583657Y-122592742D01*
X122755085Y-122707028D01*
X122869371Y-122821314D01*
X122926514Y-122935600D01*
X122583657Y-121221314D02*
X122583657Y-121449885D01*
X122640800Y-121564171D01*
X122697942Y-121621314D01*
X122869371Y-121735600D01*
X123097942Y-121792742D01*
X123555085Y-121792742D01*
X123669371Y-121735600D01*
X123726514Y-121678457D01*
X123783657Y-121564171D01*
X123783657Y-121335600D01*
X123726514Y-121221314D01*
X123669371Y-121164171D01*
X123555085Y-121107028D01*
X123269371Y-121107028D01*
X123155085Y-121164171D01*
X123097942Y-121221314D01*
X123040800Y-121335600D01*
X123040800Y-121564171D01*
X123097942Y-121678457D01*
X123155085Y-121735600D01*
X123269371Y-121792742D01*
X124183657Y-120307028D02*
X122469371Y-120307028D01*
X123783657Y-118821314D02*
X123783657Y-119507028D01*
X123783657Y-119164171D02*
X122583657Y-119164171D01*
X122755085Y-119278457D01*
X122869371Y-119392742D01*
X122926514Y-119507028D01*
X122583657Y-117735600D02*
X122583657Y-118307028D01*
X123155085Y-118364171D01*
X123097942Y-118307028D01*
X123040800Y-118192742D01*
X123040800Y-117907028D01*
X123097942Y-117792742D01*
X123155085Y-117735600D01*
X123269371Y-117678457D01*
X123555085Y-117678457D01*
X123669371Y-117735600D01*
X123726514Y-117792742D01*
X123783657Y-117907028D01*
X123783657Y-118192742D01*
X123726514Y-118307028D01*
X123669371Y-118364171D01*
X124183657Y-116878457D02*
X122469371Y-116878457D01*
X123783657Y-115392742D02*
X123783657Y-116078457D01*
X123783657Y-115735600D02*
X122583657Y-115735600D01*
X122755085Y-115849885D01*
X122869371Y-115964171D01*
X122926514Y-116078457D01*
X122983657Y-114364171D02*
X123783657Y-114364171D01*
X122526514Y-114649885D02*
X123383657Y-114935600D01*
X123383657Y-114192742D01*
X124183657Y-113449885D02*
X122469371Y-113449885D01*
D13*
D12*
X51214400Y-78184000D02*
X51166780Y-78279238D01*
X51166780Y-78422095D01*
X51214400Y-78564952D01*
X51309638Y-78660190D01*
X51404876Y-78707809D01*
X51595352Y-78755428D01*
X51738209Y-78755428D01*
X51928685Y-78707809D01*
X52023923Y-78660190D01*
X52119161Y-78564952D01*
X52166780Y-78422095D01*
X52166780Y-78326857D01*
X52119161Y-78184000D01*
X52071542Y-78136380D01*
X51738209Y-78136380D01*
X51738209Y-78326857D01*
X51500114Y-77707809D02*
X52166780Y-77707809D01*
X51595352Y-77707809D02*
X51547733Y-77660190D01*
X51500114Y-77564952D01*
X51500114Y-77422095D01*
X51547733Y-77326857D01*
X51642971Y-77279238D01*
X52166780Y-77279238D01*
X52166780Y-76374476D02*
X51166780Y-76374476D01*
X52119161Y-76374476D02*
X52166780Y-76469714D01*
X52166780Y-76660190D01*
X52119161Y-76755428D01*
X52071542Y-76803047D01*
X51976304Y-76850666D01*
X51690590Y-76850666D01*
X51595352Y-76803047D01*
X51547733Y-76755428D01*
X51500114Y-76660190D01*
X51500114Y-76469714D01*
X51547733Y-76374476D01*
X52500114Y-75660190D02*
X51071542Y-75660190D01*
X51214400Y-74422095D02*
X51166780Y-74517333D01*
X51166780Y-74660190D01*
X51214400Y-74803047D01*
X51309638Y-74898285D01*
X51404876Y-74945904D01*
X51595352Y-74993523D01*
X51738209Y-74993523D01*
X51928685Y-74945904D01*
X52023923Y-74898285D01*
X52119161Y-74803047D01*
X52166780Y-74660190D01*
X52166780Y-74564952D01*
X52119161Y-74422095D01*
X52071542Y-74374476D01*
X51738209Y-74374476D01*
X51738209Y-74564952D01*
X51500114Y-73945904D02*
X52166780Y-73945904D01*
X51595352Y-73945904D02*
X51547733Y-73898285D01*
X51500114Y-73803047D01*
X51500114Y-73660190D01*
X51547733Y-73564952D01*
X51642971Y-73517333D01*
X52166780Y-73517333D01*
X52166780Y-72612571D02*
X51166780Y-72612571D01*
X52119161Y-72612571D02*
X52166780Y-72707809D01*
X52166780Y-72898285D01*
X52119161Y-72993523D01*
X52071542Y-73041142D01*
X51976304Y-73088761D01*
X51690590Y-73088761D01*
X51595352Y-73041142D01*
X51547733Y-72993523D01*
X51500114Y-72898285D01*
X51500114Y-72707809D01*
X51547733Y-72612571D01*
X52500114Y-71898285D02*
X51071542Y-71898285D01*
M02*
