G04 #@! TF.FileFunction,Copper,L2,Bot,Signal*
%FSLAX46Y46*%
G04 Gerber Fmt 4.6, Leading zero omitted, Abs format (unit mm)*
G04 Created by KiCad (PCBNEW 201609150817+7155~55~ubuntu16.04.1-) date Thu Sep 29 09:43:48 2016*
%MOMM*%
%LPD*%
G01*
G04 APERTURE LIST*
%ADD10C,0.100000*%
%ADD11C,2.400000*%
%ADD12R,2.400000X2.400000*%
%ADD13R,2.032000X1.727200*%
%ADD14O,2.032000X1.727200*%
%ADD15O,1.727200X1.727200*%
%ADD16R,1.727200X1.727200*%
%ADD17C,0.800000*%
%ADD18C,0.250000*%
G04 APERTURE END LIST*
D10*
D11*
X92416400Y-66500400D03*
X92416400Y-63000400D03*
X92416400Y-70000400D03*
X92416400Y-73500400D03*
X92416400Y-77000400D03*
X92416400Y-80500400D03*
D12*
X92416400Y-59500400D03*
D11*
X92416400Y-84000400D03*
X92416400Y-87500400D03*
X92416400Y-91000400D03*
X92416400Y-94500400D03*
X92416400Y-98000400D03*
X92416400Y-101500400D03*
X92416400Y-105000400D03*
X92416400Y-108500400D03*
X92416400Y-112000400D03*
X82488000Y-59500400D03*
X82488000Y-63000400D03*
X82488000Y-66500400D03*
X82488000Y-70000400D03*
X82488000Y-73500400D03*
X82488000Y-77000400D03*
X82488000Y-80500400D03*
X82488000Y-84000400D03*
X82488000Y-87500400D03*
D12*
X82488000Y-112000400D03*
D11*
X82488000Y-91000400D03*
X82488000Y-94500400D03*
X82488000Y-98000400D03*
X82488000Y-101500400D03*
X82488000Y-108500400D03*
X82488000Y-105000400D03*
D13*
X63449200Y-60147200D03*
D14*
X63449200Y-62687200D03*
X63449200Y-65227200D03*
D11*
X57951600Y-59926400D03*
X57951600Y-63426400D03*
D12*
X57951600Y-70426400D03*
D11*
X57951600Y-66926400D03*
D13*
X63398400Y-68021200D03*
D14*
X63398400Y-70561200D03*
X63398400Y-73101200D03*
X63398400Y-75641200D03*
X63398400Y-78181200D03*
X63398400Y-80721200D03*
X63398400Y-83261200D03*
X63398400Y-85801200D03*
X63347600Y-108661200D03*
X63347600Y-106121200D03*
X63347600Y-103581200D03*
X63347600Y-101041200D03*
X63347600Y-98501200D03*
X63347600Y-95961200D03*
X63347600Y-93421200D03*
D13*
X63347600Y-90881200D03*
D14*
X111658400Y-108661200D03*
X111658400Y-111201200D03*
X111658400Y-113741200D03*
X111658400Y-116281200D03*
X111658400Y-118821200D03*
X111658400Y-121361200D03*
X111658400Y-123901200D03*
D13*
X111658400Y-126441200D03*
X111658400Y-103581200D03*
D14*
X111658400Y-101041200D03*
X111658400Y-98501200D03*
X111658400Y-95961200D03*
X111658400Y-93421200D03*
X111658400Y-90881200D03*
X111658400Y-88341200D03*
X111658400Y-85801200D03*
D15*
X81026000Y-130251200D03*
X78486000Y-130251200D03*
X81026000Y-127711200D03*
X78486000Y-127711200D03*
X81026000Y-125171200D03*
X78486000Y-125171200D03*
X81026000Y-122631200D03*
X78486000Y-122631200D03*
X81026000Y-120091200D03*
X78486000Y-120091200D03*
X81026000Y-117551200D03*
D16*
X78486000Y-117551200D03*
X83667600Y-117551200D03*
D15*
X86207600Y-117551200D03*
X83667600Y-120091200D03*
X86207600Y-120091200D03*
X83667600Y-122631200D03*
X86207600Y-122631200D03*
X83667600Y-125171200D03*
X86207600Y-125171200D03*
X83667600Y-127711200D03*
X86207600Y-127711200D03*
X83667600Y-130251200D03*
X86207600Y-130251200D03*
X91287600Y-130251200D03*
X88747600Y-130251200D03*
X91287600Y-127711200D03*
X88747600Y-127711200D03*
X91287600Y-125171200D03*
X88747600Y-125171200D03*
X91287600Y-122631200D03*
X88747600Y-122631200D03*
X91287600Y-120091200D03*
X88747600Y-120091200D03*
X91287600Y-117551200D03*
D16*
X88747600Y-117551200D03*
X93776800Y-117551200D03*
D15*
X96316800Y-117551200D03*
X93776800Y-120091200D03*
X96316800Y-120091200D03*
X93776800Y-122631200D03*
X96316800Y-122631200D03*
X93776800Y-125171200D03*
X96316800Y-125171200D03*
X93776800Y-127711200D03*
X96316800Y-127711200D03*
X93776800Y-130251200D03*
X96316800Y-130251200D03*
D16*
X68478400Y-136804400D03*
D15*
X68478400Y-134264400D03*
X71018400Y-136804400D03*
X71018400Y-134264400D03*
X73558400Y-136804400D03*
X73558400Y-134264400D03*
X76098400Y-136804400D03*
X76098400Y-134264400D03*
X78638400Y-136804400D03*
X78638400Y-134264400D03*
X81178400Y-136804400D03*
X81178400Y-134264400D03*
X83718400Y-136804400D03*
X83718400Y-134264400D03*
X86258400Y-136804400D03*
X86258400Y-134264400D03*
X88798400Y-136804400D03*
X88798400Y-134264400D03*
X91338400Y-136804400D03*
X91338400Y-134264400D03*
X93878400Y-136804400D03*
X93878400Y-134264400D03*
X96418400Y-136804400D03*
X96418400Y-134264400D03*
X98958400Y-136804400D03*
X98958400Y-134264400D03*
X101498400Y-136804400D03*
X101498400Y-134264400D03*
X104038400Y-136804400D03*
X104038400Y-134264400D03*
X106578400Y-136804400D03*
X106578400Y-134264400D03*
X109118400Y-136804400D03*
X109118400Y-134264400D03*
X111658400Y-136804400D03*
X111658400Y-134264400D03*
X75996800Y-130251200D03*
X73456800Y-130251200D03*
X75996800Y-127711200D03*
X73456800Y-127711200D03*
X75996800Y-125171200D03*
X73456800Y-125171200D03*
X75996800Y-122631200D03*
X73456800Y-122631200D03*
X75996800Y-120091200D03*
X73456800Y-120091200D03*
X75996800Y-117551200D03*
X73456800Y-117551200D03*
X75996800Y-115011200D03*
X73456800Y-115011200D03*
X75996800Y-112471200D03*
X73456800Y-112471200D03*
X75996800Y-109931200D03*
X73456800Y-109931200D03*
X75996800Y-107391200D03*
X73456800Y-107391200D03*
X75996800Y-104851200D03*
X73456800Y-104851200D03*
X75996800Y-102311200D03*
X73456800Y-102311200D03*
X75996800Y-99771200D03*
X73456800Y-99771200D03*
X75996800Y-97231200D03*
X73456800Y-97231200D03*
X75996800Y-94691200D03*
X73456800Y-94691200D03*
X75996800Y-92151200D03*
X73456800Y-92151200D03*
X75996800Y-89611200D03*
X73456800Y-89611200D03*
X75996800Y-87071200D03*
X73456800Y-87071200D03*
X75996800Y-84531200D03*
X73456800Y-84531200D03*
X75996800Y-81991200D03*
X73456800Y-81991200D03*
X75996800Y-79451200D03*
X73456800Y-79451200D03*
X75996800Y-76911200D03*
X73456800Y-76911200D03*
X75996800Y-74371200D03*
X73456800Y-74371200D03*
X75996800Y-71831200D03*
X73456800Y-71831200D03*
X75996800Y-69291200D03*
X73456800Y-69291200D03*
X75996800Y-66751200D03*
X73456800Y-66751200D03*
X75996800Y-64211200D03*
X73456800Y-64211200D03*
X75996800Y-61671200D03*
X73456800Y-61671200D03*
X75996800Y-59131200D03*
D16*
X73456800Y-59131200D03*
X103886000Y-59080400D03*
D15*
X106426000Y-59080400D03*
X103886000Y-61620400D03*
X106426000Y-61620400D03*
X103886000Y-64160400D03*
X106426000Y-64160400D03*
X103886000Y-66700400D03*
X106426000Y-66700400D03*
X103886000Y-69240400D03*
X106426000Y-69240400D03*
X103886000Y-71780400D03*
X106426000Y-71780400D03*
X103886000Y-74320400D03*
X106426000Y-74320400D03*
X103886000Y-76860400D03*
X106426000Y-76860400D03*
X103886000Y-79400400D03*
X106426000Y-79400400D03*
X103886000Y-81940400D03*
X106426000Y-81940400D03*
X103886000Y-84480400D03*
X106426000Y-84480400D03*
X103886000Y-87020400D03*
X106426000Y-87020400D03*
X103886000Y-89560400D03*
X106426000Y-89560400D03*
X103886000Y-92100400D03*
X106426000Y-92100400D03*
X103886000Y-94640400D03*
X106426000Y-94640400D03*
X103886000Y-97180400D03*
X106426000Y-97180400D03*
X103886000Y-99720400D03*
X106426000Y-99720400D03*
X103886000Y-102260400D03*
X106426000Y-102260400D03*
X103886000Y-104800400D03*
X106426000Y-104800400D03*
X103886000Y-107340400D03*
X106426000Y-107340400D03*
X103886000Y-109880400D03*
X106426000Y-109880400D03*
X103886000Y-112420400D03*
X106426000Y-112420400D03*
X103886000Y-114960400D03*
X106426000Y-114960400D03*
X103886000Y-117500400D03*
X106426000Y-117500400D03*
X103886000Y-120040400D03*
X106426000Y-120040400D03*
X103886000Y-122580400D03*
X106426000Y-122580400D03*
X103886000Y-125120400D03*
X106426000Y-125120400D03*
X103886000Y-127660400D03*
X106426000Y-127660400D03*
X103886000Y-130200400D03*
X106426000Y-130200400D03*
X101396800Y-130200400D03*
X98856800Y-130200400D03*
X101396800Y-127660400D03*
X98856800Y-127660400D03*
X101396800Y-125120400D03*
X98856800Y-125120400D03*
X101396800Y-122580400D03*
X98856800Y-122580400D03*
X101396800Y-120040400D03*
X98856800Y-120040400D03*
X101396800Y-117500400D03*
X98856800Y-117500400D03*
X101396800Y-114960400D03*
X98856800Y-114960400D03*
X101396800Y-112420400D03*
X98856800Y-112420400D03*
X101396800Y-109880400D03*
X98856800Y-109880400D03*
X101396800Y-107340400D03*
X98856800Y-107340400D03*
X101396800Y-104800400D03*
X98856800Y-104800400D03*
X101396800Y-102260400D03*
X98856800Y-102260400D03*
X101396800Y-99720400D03*
X98856800Y-99720400D03*
X101396800Y-97180400D03*
X98856800Y-97180400D03*
X101396800Y-94640400D03*
X98856800Y-94640400D03*
X101396800Y-92100400D03*
X98856800Y-92100400D03*
X101396800Y-89560400D03*
X98856800Y-89560400D03*
X101396800Y-87020400D03*
X98856800Y-87020400D03*
X101396800Y-84480400D03*
X98856800Y-84480400D03*
X101396800Y-81940400D03*
X98856800Y-81940400D03*
X101396800Y-79400400D03*
X98856800Y-79400400D03*
X101396800Y-76860400D03*
X98856800Y-76860400D03*
X101396800Y-74320400D03*
X98856800Y-74320400D03*
X101396800Y-71780400D03*
X98856800Y-71780400D03*
X101396800Y-69240400D03*
X98856800Y-69240400D03*
X101396800Y-66700400D03*
X98856800Y-66700400D03*
X101396800Y-64160400D03*
X98856800Y-64160400D03*
X101396800Y-61620400D03*
X98856800Y-61620400D03*
X101396800Y-59080400D03*
D16*
X98856800Y-59080400D03*
X68376800Y-59131200D03*
D15*
X70916800Y-59131200D03*
X68376800Y-61671200D03*
X70916800Y-61671200D03*
X68376800Y-64211200D03*
X70916800Y-64211200D03*
X68376800Y-66751200D03*
X70916800Y-66751200D03*
X68376800Y-69291200D03*
X70916800Y-69291200D03*
X68376800Y-71831200D03*
X70916800Y-71831200D03*
X68376800Y-74371200D03*
X70916800Y-74371200D03*
X68376800Y-76911200D03*
X70916800Y-76911200D03*
X68376800Y-79451200D03*
X70916800Y-79451200D03*
X68376800Y-81991200D03*
X70916800Y-81991200D03*
X68376800Y-84531200D03*
X70916800Y-84531200D03*
X68376800Y-87071200D03*
X70916800Y-87071200D03*
X68376800Y-89611200D03*
X70916800Y-89611200D03*
X68376800Y-92151200D03*
X70916800Y-92151200D03*
X68376800Y-94691200D03*
X70916800Y-94691200D03*
X68376800Y-97231200D03*
X70916800Y-97231200D03*
X68376800Y-99771200D03*
X70916800Y-99771200D03*
X68376800Y-102311200D03*
X70916800Y-102311200D03*
X68376800Y-104851200D03*
X70916800Y-104851200D03*
X68376800Y-107391200D03*
X70916800Y-107391200D03*
X68376800Y-109931200D03*
X70916800Y-109931200D03*
X68376800Y-112471200D03*
X70916800Y-112471200D03*
X68376800Y-115011200D03*
X70916800Y-115011200D03*
X68376800Y-117551200D03*
X70916800Y-117551200D03*
X68376800Y-120091200D03*
X70916800Y-120091200D03*
X68376800Y-122631200D03*
X70916800Y-122631200D03*
X68376800Y-125171200D03*
X70916800Y-125171200D03*
X68376800Y-127711200D03*
X70916800Y-127711200D03*
X68376800Y-130251200D03*
X70916800Y-130251200D03*
D11*
X117308400Y-65926000D03*
X117308400Y-62426000D03*
X117308400Y-69426000D03*
X117308400Y-72926000D03*
X117308400Y-76426000D03*
X117308400Y-79926000D03*
D12*
X117308400Y-58926000D03*
D11*
X117308400Y-83426000D03*
X117308400Y-86926000D03*
X117308400Y-90426000D03*
X117308400Y-125478000D03*
X117308400Y-121978000D03*
X117308400Y-118478000D03*
D12*
X117308400Y-93978000D03*
D11*
X117308400Y-114978000D03*
X117308400Y-111478000D03*
X117308400Y-107978000D03*
X117308400Y-104478000D03*
X117308400Y-97478000D03*
X117308400Y-100978000D03*
X57951600Y-98412000D03*
X57951600Y-101912000D03*
X57951600Y-94912000D03*
X57951600Y-91412000D03*
X57951600Y-87912000D03*
X57951600Y-84412000D03*
D12*
X57951600Y-105412000D03*
D11*
X57951600Y-80912000D03*
X57951600Y-77412000D03*
X57951600Y-73912000D03*
X59297200Y-142251200D03*
X62797200Y-142251200D03*
X66297200Y-142251200D03*
X69797200Y-142251200D03*
X73297200Y-142251200D03*
X76797200Y-142251200D03*
X80297200Y-142251200D03*
X83797200Y-142251200D03*
X87297200Y-142251200D03*
D12*
X111797200Y-142251200D03*
D11*
X90797200Y-142251200D03*
X94297200Y-142251200D03*
X97797200Y-142251200D03*
X101297200Y-142251200D03*
X108297200Y-142251200D03*
X104797200Y-142251200D03*
X104797200Y-147686800D03*
X108297200Y-147686800D03*
X101297200Y-147686800D03*
X97797200Y-147686800D03*
X94297200Y-147686800D03*
X90797200Y-147686800D03*
D12*
X111797200Y-147686800D03*
D11*
X87297200Y-147686800D03*
X83797200Y-147686800D03*
X80297200Y-147686800D03*
X76797200Y-147686800D03*
X73297200Y-147686800D03*
X69797200Y-147686800D03*
X66297200Y-147686800D03*
X62797200Y-147686800D03*
X59297200Y-147686800D03*
X117308400Y-132514400D03*
D12*
X117308400Y-129014400D03*
D11*
X117308400Y-136014400D03*
X117308400Y-139514400D03*
X57951600Y-126408000D03*
X57951600Y-129908000D03*
X57951600Y-122908000D03*
X57951600Y-119408000D03*
X57951600Y-115908000D03*
X57951600Y-112408000D03*
D12*
X57951600Y-133408000D03*
D11*
X57951600Y-108908000D03*
D14*
X111760000Y-58877200D03*
X111760000Y-61417200D03*
X111760000Y-63957200D03*
X111760000Y-66497200D03*
X111760000Y-69037200D03*
X111760000Y-71577200D03*
X111760000Y-74117200D03*
X111760000Y-76657200D03*
X111760000Y-79197200D03*
D13*
X111760000Y-81737200D03*
D14*
X63398400Y-131521200D03*
X63398400Y-128981200D03*
X63398400Y-126441200D03*
X63398400Y-123901200D03*
X63398400Y-121361200D03*
X63398400Y-118821200D03*
X63398400Y-116281200D03*
D13*
X63398400Y-113741200D03*
D17*
X109093000Y-117475000D03*
X108966000Y-114935000D03*
X111633000Y-130429000D03*
X106426000Y-140081000D03*
X109855000Y-140081000D03*
X114554000Y-142240000D03*
X76327000Y-140335000D03*
X65913000Y-140335000D03*
X63373000Y-134112000D03*
X65913000Y-132588000D03*
X65913000Y-136779000D03*
X78613000Y-114935000D03*
X88011000Y-140081000D03*
X90805000Y-140081000D03*
X94488000Y-100838000D03*
X94488000Y-97409000D03*
X94488000Y-90424000D03*
X56896000Y-75692000D03*
X60071000Y-75565000D03*
X60071000Y-88646000D03*
X108966000Y-87122000D03*
X108966000Y-102362000D03*
X108966000Y-92202000D03*
X109220000Y-68072000D03*
X108966000Y-77851000D03*
X80518000Y-107823000D03*
X80518000Y-105029000D03*
X80518000Y-103251000D03*
X80518000Y-97409000D03*
X80518000Y-90424000D03*
X94488000Y-107823000D03*
D18*
X111760000Y-69037200D02*
X111760000Y-69088000D01*
X111760000Y-69088000D02*
X114935000Y-65913000D01*
X114935000Y-65913000D02*
X117348000Y-65913000D01*
X117348000Y-65913000D02*
X117308400Y-65926000D01*
X68376800Y-109931200D02*
X68326000Y-109982000D01*
X68326000Y-109982000D02*
X68326000Y-110109000D01*
X68326000Y-110109000D02*
X67183000Y-111252000D01*
X67183000Y-111252000D02*
X67183000Y-122682000D01*
X67183000Y-122682000D02*
X63373000Y-126492000D01*
X63373000Y-126492000D02*
X63398400Y-126441200D01*
X63398400Y-126441200D02*
X63373000Y-126492000D01*
X63373000Y-126492000D02*
X63246000Y-126365000D01*
X63246000Y-126365000D02*
X57912000Y-126365000D01*
X57912000Y-126365000D02*
X57951600Y-126408000D01*
X63398400Y-128981200D02*
X63373000Y-129032000D01*
X63373000Y-129032000D02*
X62484000Y-129921000D01*
X62484000Y-129921000D02*
X57912000Y-129921000D01*
X57912000Y-129921000D02*
X57951600Y-129908000D01*
X63398400Y-123901200D02*
X63373000Y-123952000D01*
X63373000Y-123952000D02*
X64770000Y-122555000D01*
X64770000Y-122555000D02*
X64770000Y-121031000D01*
X64770000Y-121031000D02*
X65278000Y-120523000D01*
X65278000Y-120523000D02*
X65278000Y-120396000D01*
X65278000Y-120396000D02*
X65405000Y-120269000D01*
X65405000Y-120269000D02*
X65405000Y-118872000D01*
X65405000Y-118872000D02*
X65786000Y-118491000D01*
X65786000Y-118491000D02*
X65786000Y-118364000D01*
X65786000Y-118364000D02*
X65913000Y-118237000D01*
X65913000Y-118237000D02*
X65913000Y-118110000D01*
X65913000Y-118110000D02*
X66040000Y-117983000D01*
X66040000Y-117983000D02*
X66040000Y-109728000D01*
X66040000Y-109728000D02*
X68376800Y-107391200D01*
X63398400Y-123901200D02*
X63373000Y-123952000D01*
X63373000Y-123952000D02*
X62357000Y-122936000D01*
X62357000Y-122936000D02*
X57912000Y-122936000D01*
X57912000Y-122936000D02*
X57951600Y-122908000D01*
X63398400Y-121361200D02*
X63373000Y-121412000D01*
X63373000Y-121412000D02*
X64770000Y-120015000D01*
X64770000Y-120015000D02*
X64770000Y-118491000D01*
X64770000Y-118491000D02*
X65278000Y-117983000D01*
X65278000Y-117983000D02*
X65278000Y-117856000D01*
X65278000Y-117856000D02*
X65405000Y-117729000D01*
X65405000Y-117729000D02*
X65405000Y-107823000D01*
X65405000Y-107823000D02*
X68376800Y-104851200D01*
X57951600Y-119408000D02*
X57912000Y-119380000D01*
X57912000Y-119380000D02*
X59944000Y-121412000D01*
X59944000Y-121412000D02*
X63373000Y-121412000D01*
X63373000Y-121412000D02*
X63398400Y-121361200D01*
X63398400Y-118821200D02*
X63373000Y-118872000D01*
X63373000Y-118872000D02*
X64770000Y-117475000D01*
X64770000Y-117475000D02*
X64770000Y-105918000D01*
X64770000Y-105918000D02*
X68376800Y-102311200D01*
X63398400Y-118821200D02*
X63373000Y-118872000D01*
X63373000Y-118872000D02*
X60452000Y-115951000D01*
X60452000Y-115951000D02*
X57912000Y-115951000D01*
X57912000Y-115951000D02*
X57951600Y-115908000D01*
X57951600Y-112408000D02*
X57912000Y-112395000D01*
X57912000Y-112395000D02*
X61849000Y-116332000D01*
X61849000Y-116332000D02*
X63373000Y-116332000D01*
X63373000Y-116332000D02*
X63398400Y-116281200D01*
X57951600Y-133408000D02*
X57912000Y-133350000D01*
X57912000Y-133350000D02*
X59690000Y-131572000D01*
X59690000Y-131572000D02*
X63373000Y-131572000D01*
X63373000Y-131572000D02*
X63398400Y-131521200D01*
X63398400Y-113741200D02*
X63373000Y-113792000D01*
X63373000Y-113792000D02*
X58547000Y-108966000D01*
X58547000Y-108966000D02*
X57912000Y-108966000D01*
X57912000Y-108966000D02*
X57951600Y-108908000D01*
X111658400Y-123901200D02*
X111633000Y-123952000D01*
X111633000Y-123952000D02*
X110236000Y-122555000D01*
X110236000Y-122555000D02*
X110236000Y-118618000D01*
X110236000Y-118618000D02*
X109093000Y-117475000D01*
X108966000Y-114935000D02*
X106426000Y-112395000D01*
X106426000Y-112395000D02*
X106426000Y-112420400D01*
X111658400Y-126441200D02*
X111633000Y-126492000D01*
X111633000Y-126492000D02*
X111633000Y-130429000D01*
X106426000Y-114960400D02*
X106426000Y-114935000D01*
X106426000Y-114935000D02*
X107696000Y-116205000D01*
X107696000Y-116205000D02*
X107696000Y-122555000D01*
X107696000Y-122555000D02*
X111633000Y-126492000D01*
X111633000Y-126492000D02*
X111658400Y-126441200D01*
X104038400Y-136804400D02*
X104013000Y-136779000D01*
X104013000Y-136779000D02*
X104013000Y-137668000D01*
X104013000Y-137668000D02*
X106426000Y-140081000D01*
X109855000Y-140081000D02*
X106578400Y-136804400D01*
X106578400Y-136804400D02*
X105283000Y-135509000D01*
X105283000Y-135509000D02*
X105283000Y-131572000D01*
X105283000Y-131572000D02*
X103886000Y-130175000D01*
X103886000Y-130175000D02*
X103886000Y-130200400D01*
X98856800Y-130200400D02*
X98806000Y-130175000D01*
X98806000Y-130175000D02*
X98806000Y-131572000D01*
X98806000Y-131572000D02*
X100203000Y-132969000D01*
X100203000Y-132969000D02*
X100203000Y-135509000D01*
X100203000Y-135509000D02*
X101498400Y-136804400D01*
X96316800Y-130251200D02*
X96266000Y-130302000D01*
X96266000Y-130302000D02*
X96266000Y-131572000D01*
X96266000Y-131572000D02*
X97663000Y-132969000D01*
X97663000Y-132969000D02*
X97663000Y-135509000D01*
X97663000Y-135509000D02*
X98958400Y-136804400D01*
X93776800Y-130251200D02*
X93726000Y-130302000D01*
X93726000Y-130302000D02*
X93726000Y-131572000D01*
X93726000Y-131572000D02*
X95123000Y-132969000D01*
X95123000Y-132969000D02*
X95123000Y-135509000D01*
X95123000Y-135509000D02*
X96418400Y-136804400D01*
X109118400Y-136804400D02*
X113030000Y-140716000D01*
X113030000Y-140716000D02*
X113411000Y-140716000D01*
X113411000Y-140716000D02*
X113411000Y-141097000D01*
X113411000Y-141097000D02*
X114554000Y-142240000D01*
X109118400Y-136804400D02*
X107823000Y-135509000D01*
X107823000Y-135509000D02*
X107823000Y-131572000D01*
X107823000Y-131572000D02*
X106426000Y-130175000D01*
X106426000Y-130175000D02*
X106426000Y-130200400D01*
X81178400Y-136804400D02*
X81026000Y-136906000D01*
X81026000Y-136906000D02*
X77597000Y-140335000D01*
X77597000Y-140335000D02*
X76327000Y-140335000D01*
X76098400Y-136804400D02*
X76098400Y-136855200D01*
X76098400Y-136855200D02*
X71577200Y-141376400D01*
X68391200Y-145592800D02*
X66297200Y-147686800D01*
X69443600Y-145592800D02*
X68391200Y-145592800D01*
X71577200Y-143459200D02*
X69443600Y-145592800D01*
X71577200Y-141376400D02*
X71577200Y-143459200D01*
X73558400Y-136804400D02*
X73406000Y-136906000D01*
X73406000Y-136906000D02*
X70231000Y-140081000D01*
X70231000Y-140081000D02*
X68834000Y-140081000D01*
X68834000Y-140081000D02*
X68707000Y-140208000D01*
X68707000Y-140208000D02*
X68580000Y-140208000D01*
X68580000Y-140208000D02*
X68453000Y-140335000D01*
X68453000Y-140335000D02*
X65913000Y-140335000D01*
X71018400Y-136804400D02*
X70866000Y-136906000D01*
X70866000Y-136906000D02*
X68199000Y-139573000D01*
X68199000Y-139573000D02*
X65532000Y-139573000D01*
X65532000Y-139573000D02*
X65405000Y-139700000D01*
X65405000Y-139700000D02*
X65278000Y-139700000D01*
X65278000Y-139700000D02*
X65278000Y-139827000D01*
X65278000Y-139827000D02*
X65151000Y-139954000D01*
X65151000Y-139954000D02*
X65151000Y-141097000D01*
X65151000Y-141097000D02*
X64897000Y-141351000D01*
X64897000Y-141351000D02*
X64897000Y-141478000D01*
X64897000Y-141478000D02*
X64770000Y-141605000D01*
X64770000Y-141605000D02*
X64770000Y-142621000D01*
X64770000Y-142621000D02*
X59690000Y-147701000D01*
X59690000Y-147701000D02*
X59309000Y-147701000D01*
X59309000Y-147701000D02*
X59297200Y-147686800D01*
X71018400Y-134264400D02*
X70993000Y-134239000D01*
X70993000Y-134239000D02*
X70993000Y-133223000D01*
X70993000Y-133223000D02*
X69596000Y-131826000D01*
X69596000Y-131826000D02*
X65532000Y-131826000D01*
X65532000Y-131826000D02*
X65405000Y-131953000D01*
X65405000Y-131953000D02*
X65278000Y-131953000D01*
X65278000Y-131953000D02*
X65278000Y-132080000D01*
X65278000Y-132080000D02*
X65151000Y-132207000D01*
X65151000Y-132207000D02*
X65151000Y-132334000D01*
X65151000Y-132334000D02*
X63373000Y-134112000D01*
X65913000Y-132588000D02*
X66294000Y-132969000D01*
X66294000Y-132969000D02*
X69723000Y-132969000D01*
X69723000Y-132969000D02*
X71018400Y-134264400D01*
X73558400Y-134264400D02*
X73406000Y-134366000D01*
X73406000Y-134366000D02*
X72263000Y-135509000D01*
X72263000Y-135509000D02*
X67183000Y-135509000D01*
X67183000Y-135509000D02*
X65913000Y-136779000D01*
X73558400Y-134264400D02*
X73533000Y-134239000D01*
X73533000Y-134239000D02*
X73533000Y-132715000D01*
X73533000Y-132715000D02*
X72263000Y-131445000D01*
X72263000Y-131445000D02*
X72263000Y-118999000D01*
X72263000Y-118999000D02*
X70866000Y-117602000D01*
X70866000Y-117602000D02*
X70916800Y-117551200D01*
X76098400Y-134264400D02*
X75946000Y-134366000D01*
X75946000Y-134366000D02*
X74803000Y-135509000D01*
X74803000Y-135509000D02*
X74803000Y-137439400D01*
X74803000Y-137439400D02*
X71526400Y-140716000D01*
X71526400Y-140716000D02*
X69088000Y-140716000D01*
X69088000Y-140716000D02*
X68834000Y-140970000D01*
X68834000Y-140970000D02*
X68707000Y-140970000D01*
X68707000Y-140970000D02*
X67437000Y-142240000D01*
X67437000Y-142240000D02*
X66294000Y-142240000D01*
X66294000Y-142240000D02*
X66297200Y-142251200D01*
X78613000Y-114935000D02*
X78613000Y-115189000D01*
X78613000Y-115189000D02*
X79756000Y-116332000D01*
X79756000Y-116332000D02*
X79756000Y-133096000D01*
X79756000Y-133096000D02*
X78613000Y-134239000D01*
X78613000Y-134239000D02*
X78638400Y-134264400D01*
X81178400Y-134264400D02*
X81026000Y-134366000D01*
X81026000Y-134366000D02*
X79883000Y-135509000D01*
X79883000Y-135509000D02*
X77343000Y-135509000D01*
X77343000Y-135509000D02*
X77343000Y-138049000D01*
X77343000Y-138049000D02*
X75692000Y-139700000D01*
X75692000Y-139700000D02*
X75692000Y-139827000D01*
X75692000Y-139827000D02*
X73279000Y-142240000D01*
X73279000Y-142240000D02*
X73297200Y-142251200D01*
X83718400Y-134264400D02*
X83566000Y-134366000D01*
X83566000Y-134366000D02*
X82423000Y-135509000D01*
X82423000Y-135509000D02*
X82423000Y-138049000D01*
X82423000Y-138049000D02*
X79756000Y-140716000D01*
X79756000Y-140716000D02*
X79629000Y-140716000D01*
X79629000Y-140716000D02*
X79502000Y-140843000D01*
X79502000Y-140843000D02*
X79375000Y-140843000D01*
X79375000Y-140843000D02*
X77978000Y-142240000D01*
X77978000Y-142240000D02*
X76835000Y-142240000D01*
X76835000Y-142240000D02*
X76797200Y-142251200D01*
X86258400Y-134264400D02*
X86106000Y-134366000D01*
X86106000Y-134366000D02*
X84963000Y-135509000D01*
X84963000Y-135509000D02*
X84963000Y-138049000D01*
X84963000Y-138049000D02*
X80772000Y-142240000D01*
X80772000Y-142240000D02*
X80264000Y-142240000D01*
X80264000Y-142240000D02*
X80297200Y-142251200D01*
X83797200Y-142251200D02*
X83820000Y-142240000D01*
X83820000Y-142240000D02*
X83820000Y-141732000D01*
X83820000Y-141732000D02*
X87503000Y-138049000D01*
X87503000Y-138049000D02*
X87503000Y-135509000D01*
X87503000Y-135509000D02*
X88773000Y-134239000D01*
X88773000Y-134239000D02*
X88798400Y-134264400D01*
X91338400Y-134264400D02*
X91186000Y-134366000D01*
X91186000Y-134366000D02*
X90043000Y-135509000D01*
X90043000Y-135509000D02*
X90043000Y-138049000D01*
X90043000Y-138049000D02*
X88011000Y-140081000D01*
X93878400Y-134264400D02*
X93726000Y-134366000D01*
X93726000Y-134366000D02*
X92583000Y-135509000D01*
X92583000Y-135509000D02*
X92583000Y-138303000D01*
X92583000Y-138303000D02*
X90805000Y-140081000D01*
X94488000Y-100838000D02*
X94488000Y-98679000D01*
X94488000Y-98679000D02*
X95123000Y-98044000D01*
X95123000Y-98044000D02*
X95123000Y-97917000D01*
X95123000Y-97917000D02*
X95250000Y-97790000D01*
X95250000Y-97790000D02*
X95250000Y-95631000D01*
X95250000Y-95631000D02*
X98806000Y-92075000D01*
X98806000Y-92075000D02*
X98856800Y-92100400D01*
X94488000Y-97409000D02*
X94488000Y-93853000D01*
X94488000Y-93853000D02*
X98806000Y-89535000D01*
X98806000Y-89535000D02*
X98856800Y-89560400D01*
X94488000Y-90424000D02*
X94488000Y-88773000D01*
X94488000Y-88773000D02*
X98806000Y-84455000D01*
X98806000Y-84455000D02*
X98856800Y-84480400D01*
X98856800Y-59080400D02*
X98806000Y-59055000D01*
X98806000Y-59055000D02*
X98298000Y-59563000D01*
X98298000Y-59563000D02*
X92456000Y-59563000D01*
X92456000Y-59563000D02*
X92416400Y-59500400D01*
X92416400Y-80500400D02*
X92456000Y-80518000D01*
X92456000Y-80518000D02*
X98679000Y-74295000D01*
X98679000Y-74295000D02*
X98806000Y-74295000D01*
X98806000Y-74295000D02*
X98856800Y-74320400D01*
X92416400Y-77000400D02*
X92456000Y-76962000D01*
X92456000Y-76962000D02*
X97663000Y-71755000D01*
X97663000Y-71755000D02*
X98806000Y-71755000D01*
X98806000Y-71755000D02*
X98856800Y-71780400D01*
X92416400Y-73500400D02*
X92456000Y-73533000D01*
X92456000Y-73533000D02*
X96774000Y-69215000D01*
X96774000Y-69215000D02*
X98806000Y-69215000D01*
X98806000Y-69215000D02*
X98856800Y-69240400D01*
X92416400Y-70000400D02*
X92456000Y-69977000D01*
X92456000Y-69977000D02*
X95758000Y-66675000D01*
X95758000Y-66675000D02*
X98806000Y-66675000D01*
X98806000Y-66675000D02*
X98856800Y-66700400D01*
X98856800Y-61620400D02*
X98806000Y-61595000D01*
X98806000Y-61595000D02*
X97409000Y-62992000D01*
X97409000Y-62992000D02*
X92456000Y-62992000D01*
X92456000Y-62992000D02*
X92416400Y-63000400D01*
X92416400Y-66500400D02*
X92456000Y-66548000D01*
X92456000Y-66548000D02*
X94869000Y-64135000D01*
X94869000Y-64135000D02*
X98806000Y-64135000D01*
X98806000Y-64135000D02*
X98856800Y-64160400D01*
X63347600Y-103581200D02*
X63373000Y-103632000D01*
X63373000Y-103632000D02*
X64770000Y-102235000D01*
X64770000Y-102235000D02*
X64770000Y-93218000D01*
X64770000Y-93218000D02*
X68376800Y-89611200D01*
X63347600Y-103581200D02*
X63373000Y-103632000D01*
X63373000Y-103632000D02*
X58166000Y-98425000D01*
X58166000Y-98425000D02*
X57912000Y-98425000D01*
X57912000Y-98425000D02*
X57951600Y-98412000D01*
X63347600Y-106121200D02*
X63373000Y-106172000D01*
X63373000Y-106172000D02*
X64770000Y-104775000D01*
X64770000Y-104775000D02*
X64770000Y-103251000D01*
X64770000Y-103251000D02*
X65278000Y-102743000D01*
X65278000Y-102743000D02*
X65278000Y-102616000D01*
X65278000Y-102616000D02*
X65405000Y-102489000D01*
X65405000Y-102489000D02*
X65405000Y-95123000D01*
X65405000Y-95123000D02*
X68376800Y-92151200D01*
X63347600Y-106121200D02*
X63373000Y-106172000D01*
X63373000Y-106172000D02*
X59055000Y-101854000D01*
X59055000Y-101854000D02*
X57912000Y-101854000D01*
X57912000Y-101854000D02*
X57951600Y-101912000D01*
X56896000Y-75692000D02*
X57023000Y-75565000D01*
X57023000Y-75565000D02*
X60071000Y-75565000D01*
X57951600Y-87912000D02*
X57912000Y-87884000D01*
X57912000Y-87884000D02*
X61341000Y-84455000D01*
X61341000Y-84455000D02*
X64770000Y-84455000D01*
X64770000Y-84455000D02*
X67183000Y-82042000D01*
X67183000Y-82042000D02*
X68326000Y-82042000D01*
X68326000Y-82042000D02*
X68376800Y-81991200D01*
X60071000Y-88646000D02*
X60071000Y-90170000D01*
X60071000Y-90170000D02*
X63373000Y-93472000D01*
X63373000Y-93472000D02*
X63347600Y-93421200D01*
X57951600Y-84412000D02*
X57912000Y-84455000D01*
X57912000Y-84455000D02*
X60452000Y-81915000D01*
X60452000Y-81915000D02*
X64770000Y-81915000D01*
X64770000Y-81915000D02*
X67183000Y-79502000D01*
X67183000Y-79502000D02*
X68326000Y-79502000D01*
X68326000Y-79502000D02*
X68376800Y-79451200D01*
X63347600Y-108661200D02*
X63373000Y-108712000D01*
X63373000Y-108712000D02*
X60071000Y-105410000D01*
X60071000Y-105410000D02*
X57912000Y-105410000D01*
X57912000Y-105410000D02*
X57951600Y-105412000D01*
X57951600Y-80912000D02*
X57912000Y-80899000D01*
X57912000Y-80899000D02*
X59436000Y-79375000D01*
X59436000Y-79375000D02*
X64770000Y-79375000D01*
X64770000Y-79375000D02*
X67183000Y-76962000D01*
X67183000Y-76962000D02*
X68326000Y-76962000D01*
X68326000Y-76962000D02*
X68376800Y-76911200D01*
X68376800Y-74371200D02*
X65786000Y-76962000D01*
X65786000Y-76962000D02*
X61976000Y-76962000D01*
X61976000Y-76962000D02*
X61468000Y-77470000D01*
X61468000Y-77470000D02*
X57912000Y-77470000D01*
X57912000Y-77470000D02*
X57951600Y-77412000D01*
X57951600Y-73912000D02*
X57912000Y-73914000D01*
X57912000Y-73914000D02*
X59944000Y-71882000D01*
X59944000Y-71882000D02*
X68326000Y-71882000D01*
X68326000Y-71882000D02*
X68376800Y-71831200D01*
X106426000Y-104800400D02*
X106426000Y-104775000D01*
X106426000Y-104775000D02*
X105156000Y-106045000D01*
X105156000Y-106045000D02*
X105156000Y-111125000D01*
X105156000Y-111125000D02*
X107696000Y-111125000D01*
X107696000Y-111125000D02*
X107696000Y-112395000D01*
X107696000Y-112395000D02*
X111633000Y-116332000D01*
X111633000Y-116332000D02*
X111658400Y-116281200D01*
X106426000Y-102260400D02*
X106426000Y-102235000D01*
X106426000Y-102235000D02*
X107696000Y-103505000D01*
X107696000Y-103505000D02*
X107696000Y-109855000D01*
X107696000Y-109855000D02*
X111633000Y-113792000D01*
X111633000Y-113792000D02*
X111658400Y-113741200D01*
X108966000Y-87122000D02*
X108966000Y-84455000D01*
X108966000Y-84455000D02*
X106426000Y-81915000D01*
X106426000Y-81915000D02*
X106426000Y-81940400D01*
X117308400Y-93978000D02*
X117348000Y-93980000D01*
X117348000Y-93980000D02*
X114300000Y-90932000D01*
X114300000Y-90932000D02*
X111633000Y-90932000D01*
X111633000Y-90932000D02*
X111658400Y-90881200D01*
X108966000Y-102362000D02*
X108966000Y-99695000D01*
X108966000Y-99695000D02*
X106426000Y-97155000D01*
X106426000Y-97155000D02*
X106426000Y-97180400D01*
X117308400Y-97478000D02*
X117348000Y-97536000D01*
X117348000Y-97536000D02*
X113284000Y-93472000D01*
X113284000Y-93472000D02*
X111633000Y-93472000D01*
X111633000Y-93472000D02*
X111658400Y-93421200D01*
X106426000Y-87020400D02*
X106426000Y-86995000D01*
X106426000Y-86995000D02*
X107696000Y-88265000D01*
X107696000Y-88265000D02*
X107696000Y-90932000D01*
X107696000Y-90932000D02*
X108966000Y-92202000D01*
X111658400Y-95961200D02*
X111633000Y-96012000D01*
X111633000Y-96012000D02*
X112903000Y-97282000D01*
X112903000Y-97282000D02*
X113030000Y-97282000D01*
X113030000Y-97282000D02*
X116713000Y-100965000D01*
X116713000Y-100965000D02*
X117348000Y-100965000D01*
X117348000Y-100965000D02*
X117308400Y-100978000D01*
X111760000Y-61417200D02*
X111760000Y-61468000D01*
X111760000Y-61468000D02*
X112776000Y-62484000D01*
X112776000Y-62484000D02*
X117348000Y-62484000D01*
X117348000Y-62484000D02*
X117308400Y-62426000D01*
X106426000Y-61620400D02*
X106426000Y-61595000D01*
X106426000Y-61595000D02*
X106553000Y-61468000D01*
X106553000Y-61468000D02*
X111760000Y-61468000D01*
X111760000Y-61468000D02*
X111760000Y-61417200D01*
X111760000Y-71577200D02*
X111760000Y-71628000D01*
X111760000Y-71628000D02*
X110363000Y-70231000D01*
X110363000Y-70231000D02*
X110363000Y-69215000D01*
X110363000Y-69215000D02*
X109220000Y-68072000D01*
X111760000Y-71577200D02*
X111760000Y-71628000D01*
X111760000Y-71628000D02*
X113919000Y-69469000D01*
X113919000Y-69469000D02*
X117348000Y-69469000D01*
X117348000Y-69469000D02*
X117308400Y-69426000D01*
X111760000Y-74117200D02*
X111760000Y-74168000D01*
X111760000Y-74168000D02*
X113030000Y-72898000D01*
X113030000Y-72898000D02*
X117348000Y-72898000D01*
X117348000Y-72898000D02*
X117308400Y-72926000D01*
X111760000Y-76657200D02*
X111760000Y-76708000D01*
X111760000Y-76708000D02*
X112014000Y-76454000D01*
X112014000Y-76454000D02*
X117348000Y-76454000D01*
X117348000Y-76454000D02*
X117308400Y-76426000D01*
X111760000Y-79197200D02*
X111760000Y-79248000D01*
X111760000Y-79248000D02*
X112395000Y-79883000D01*
X112395000Y-79883000D02*
X117348000Y-79883000D01*
X117348000Y-79883000D02*
X117308400Y-79926000D01*
X111760000Y-58877200D02*
X111760000Y-58928000D01*
X111760000Y-58928000D02*
X111633000Y-59055000D01*
X111633000Y-59055000D02*
X106426000Y-59055000D01*
X106426000Y-59055000D02*
X106426000Y-59080400D01*
X117308400Y-58926000D02*
X117348000Y-58928000D01*
X117348000Y-58928000D02*
X111760000Y-58928000D01*
X111760000Y-58928000D02*
X111760000Y-58877200D01*
X106426000Y-74320400D02*
X106426000Y-74295000D01*
X106426000Y-74295000D02*
X107696000Y-75565000D01*
X107696000Y-75565000D02*
X107696000Y-76581000D01*
X107696000Y-76581000D02*
X108966000Y-77851000D01*
X111760000Y-81737200D02*
X111760000Y-81788000D01*
X111760000Y-81788000D02*
X113411000Y-83439000D01*
X113411000Y-83439000D02*
X117348000Y-83439000D01*
X117348000Y-83439000D02*
X117308400Y-83426000D01*
X117308400Y-86926000D02*
X117348000Y-86868000D01*
X117348000Y-86868000D02*
X116332000Y-85852000D01*
X116332000Y-85852000D02*
X111633000Y-85852000D01*
X111633000Y-85852000D02*
X111658400Y-85801200D01*
X117308400Y-90426000D02*
X117348000Y-90424000D01*
X117348000Y-90424000D02*
X115316000Y-88392000D01*
X115316000Y-88392000D02*
X111633000Y-88392000D01*
X111633000Y-88392000D02*
X111658400Y-88341200D01*
X63449200Y-60147200D02*
X63627000Y-60071000D01*
X63627000Y-60071000D02*
X64516000Y-59182000D01*
X64516000Y-59182000D02*
X68326000Y-59182000D01*
X68326000Y-59182000D02*
X68376800Y-59131200D01*
X57951600Y-59926400D02*
X57912000Y-59944000D01*
X57912000Y-59944000D02*
X58166000Y-60198000D01*
X58166000Y-60198000D02*
X63500000Y-60198000D01*
X63500000Y-60198000D02*
X63449200Y-60147200D01*
X63449200Y-62687200D02*
X63627000Y-62611000D01*
X63627000Y-62611000D02*
X64516000Y-61722000D01*
X64516000Y-61722000D02*
X68326000Y-61722000D01*
X68326000Y-61722000D02*
X68376800Y-61671200D01*
X57951600Y-63426400D02*
X57912000Y-63373000D01*
X57912000Y-63373000D02*
X58547000Y-62738000D01*
X58547000Y-62738000D02*
X63500000Y-62738000D01*
X63500000Y-62738000D02*
X63449200Y-62687200D01*
X63449200Y-65227200D02*
X63373000Y-65405000D01*
X63373000Y-65405000D02*
X61849000Y-66929000D01*
X61849000Y-66929000D02*
X57912000Y-66929000D01*
X57912000Y-66929000D02*
X57951600Y-66926400D01*
X68376800Y-64211200D02*
X67310000Y-65278000D01*
X67310000Y-65278000D02*
X63500000Y-65278000D01*
X63500000Y-65278000D02*
X63449200Y-65227200D01*
X57951600Y-70426400D02*
X57912000Y-70485000D01*
X57912000Y-70485000D02*
X59182000Y-69215000D01*
X59182000Y-69215000D02*
X64770000Y-69215000D01*
X64770000Y-69215000D02*
X67183000Y-66802000D01*
X67183000Y-66802000D02*
X68326000Y-66802000D01*
X68326000Y-66802000D02*
X68376800Y-66751200D01*
X80518000Y-107823000D02*
X80518000Y-105029000D01*
X80518000Y-103251000D02*
X80518000Y-101854000D01*
X80518000Y-101854000D02*
X75946000Y-97282000D01*
X75946000Y-97282000D02*
X75996800Y-97231200D01*
X75996800Y-89611200D02*
X76073000Y-89789000D01*
X76073000Y-89789000D02*
X77216000Y-90932000D01*
X77216000Y-90932000D02*
X77216000Y-94107000D01*
X77216000Y-94107000D02*
X80518000Y-97409000D01*
X80518000Y-90424000D02*
X80518000Y-89154000D01*
X80518000Y-89154000D02*
X75946000Y-84582000D01*
X75946000Y-84582000D02*
X75996800Y-84531200D01*
X75996800Y-74371200D02*
X76073000Y-74549000D01*
X76073000Y-74549000D02*
X82042000Y-80518000D01*
X82042000Y-80518000D02*
X82550000Y-80518000D01*
X82550000Y-80518000D02*
X82488000Y-80500400D01*
X75996800Y-71831200D02*
X76073000Y-72009000D01*
X76073000Y-72009000D02*
X81026000Y-76962000D01*
X81026000Y-76962000D02*
X82550000Y-76962000D01*
X82550000Y-76962000D02*
X82488000Y-77000400D01*
X75996800Y-69291200D02*
X76073000Y-69469000D01*
X76073000Y-69469000D02*
X80137000Y-73533000D01*
X80137000Y-73533000D02*
X82550000Y-73533000D01*
X82550000Y-73533000D02*
X82488000Y-73500400D01*
X75996800Y-66751200D02*
X76073000Y-66929000D01*
X76073000Y-66929000D02*
X79121000Y-69977000D01*
X79121000Y-69977000D02*
X82550000Y-69977000D01*
X82550000Y-69977000D02*
X82488000Y-70000400D01*
X75996800Y-64211200D02*
X76073000Y-64389000D01*
X76073000Y-64389000D02*
X78232000Y-66548000D01*
X78232000Y-66548000D02*
X82550000Y-66548000D01*
X82550000Y-66548000D02*
X82488000Y-66500400D01*
X82488000Y-63000400D02*
X82550000Y-62992000D01*
X82550000Y-62992000D02*
X81280000Y-61722000D01*
X81280000Y-61722000D02*
X75946000Y-61722000D01*
X75946000Y-61722000D02*
X75996800Y-61671200D01*
X75996800Y-59131200D02*
X76073000Y-59309000D01*
X76073000Y-59309000D02*
X76327000Y-59563000D01*
X76327000Y-59563000D02*
X82550000Y-59563000D01*
X82550000Y-59563000D02*
X82488000Y-59500400D01*
X94488000Y-107823000D02*
X94488000Y-102108000D01*
X94488000Y-102108000D02*
X95123000Y-101473000D01*
X95123000Y-101473000D02*
X95123000Y-101346000D01*
X95123000Y-101346000D02*
X95250000Y-101219000D01*
X95250000Y-101219000D02*
X95250000Y-100711000D01*
X95250000Y-100711000D02*
X98806000Y-97155000D01*
X98806000Y-97155000D02*
X98856800Y-97180400D01*
M02*
