%FSLAX45Y45*%
G04 Gerber Fmt 4.5, Leading zero omitted, Abs format (unit mm)*
G04 Created by KiCad (PCBNEW 201609150817+7155~55~ubuntu16.04.1-) date Thu Sep 29 09:43:52 2016*
%MOMM*%
%LPD*%
G01*
G04 APERTURE LIST*
%ADD10C,0.127000*%
%ADD11C,0.150000*%
%ADD12C,0.200000*%
%ADD13C,0.300000*%
G04 APERTURE END LIST*
D10*
D11*
X12446000Y-15240000D02*
X12446000Y-5715000D01*
X5080000Y-15240000D02*
X12446000Y-15240000D01*
X5080000Y-5715000D02*
X5080000Y-15240000D01*
X12446000Y-5715000D02*
X5080000Y-5715000D01*
D12*
X5669600Y-7549200D02*
X5709600Y-7589200D01*
X5709600Y-7549200D02*
X5669600Y-7589200D01*
X5987100Y-7536500D02*
X6027100Y-7576500D01*
X6027100Y-7536500D02*
X5987100Y-7576500D01*
X5987100Y-8844600D02*
X6027100Y-8884600D01*
X6027100Y-8844600D02*
X5987100Y-8884600D01*
X6317300Y-13391200D02*
X6357300Y-13431200D01*
X6357300Y-13391200D02*
X6317300Y-13431200D01*
X6571300Y-13238800D02*
X6611300Y-13278800D01*
X6611300Y-13238800D02*
X6571300Y-13278800D01*
X6571300Y-13657900D02*
X6611300Y-13697900D01*
X6611300Y-13657900D02*
X6571300Y-13697900D01*
X6571300Y-14013500D02*
X6611300Y-14053500D01*
X6611300Y-14013500D02*
X6571300Y-14053500D01*
X7612700Y-14013500D02*
X7652700Y-14053500D01*
X7652700Y-14013500D02*
X7612700Y-14053500D01*
X7841300Y-11473500D02*
X7881300Y-11513500D01*
X7881300Y-11473500D02*
X7841300Y-11513500D01*
X8031800Y-9022400D02*
X8071800Y-9062400D01*
X8071800Y-9022400D02*
X8031800Y-9062400D01*
X8031800Y-9720900D02*
X8071800Y-9760900D01*
X8071800Y-9720900D02*
X8031800Y-9760900D01*
X8031800Y-10305100D02*
X8071800Y-10345100D01*
X8071800Y-10305100D02*
X8031800Y-10345100D01*
X8031800Y-10482900D02*
X8071800Y-10522900D01*
X8071800Y-10482900D02*
X8031800Y-10522900D01*
X8031800Y-10762300D02*
X8071800Y-10802300D01*
X8071800Y-10762300D02*
X8031800Y-10802300D01*
X8781100Y-13988100D02*
X8821100Y-14028100D01*
X8821100Y-13988100D02*
X8781100Y-14028100D01*
X9060500Y-13988100D02*
X9100500Y-14028100D01*
X9100500Y-13988100D02*
X9060500Y-14028100D01*
X9428800Y-9022400D02*
X9468800Y-9062400D01*
X9468800Y-9022400D02*
X9428800Y-9062400D01*
X9428800Y-9720900D02*
X9468800Y-9760900D01*
X9468800Y-9720900D02*
X9428800Y-9760900D01*
X9428800Y-10063800D02*
X9468800Y-10103800D01*
X9468800Y-10063800D02*
X9428800Y-10103800D01*
X9428800Y-10762300D02*
X9468800Y-10802300D01*
X9468800Y-10762300D02*
X9428800Y-10802300D01*
X10622600Y-13988100D02*
X10662600Y-14028100D01*
X10662600Y-13988100D02*
X10622600Y-14028100D01*
X10876600Y-7765100D02*
X10916600Y-7805100D01*
X10916600Y-7765100D02*
X10876600Y-7805100D01*
X10876600Y-8692200D02*
X10916600Y-8732200D01*
X10916600Y-8692200D02*
X10876600Y-8732200D01*
X10876600Y-9200200D02*
X10916600Y-9240200D01*
X10916600Y-9200200D02*
X10876600Y-9240200D01*
X10876600Y-10216200D02*
X10916600Y-10256200D01*
X10916600Y-10216200D02*
X10876600Y-10256200D01*
X10876600Y-11473500D02*
X10916600Y-11513500D01*
X10916600Y-11473500D02*
X10876600Y-11513500D01*
X10889300Y-11727500D02*
X10929300Y-11767500D01*
X10929300Y-11727500D02*
X10889300Y-11767500D01*
X10902000Y-6787200D02*
X10942000Y-6827200D01*
X10942000Y-6787200D02*
X10902000Y-6827200D01*
X10965500Y-13988100D02*
X11005500Y-14028100D01*
X11005500Y-13988100D02*
X10965500Y-14028100D01*
X11143300Y-13022900D02*
X11183300Y-13062900D01*
X11183300Y-13022900D02*
X11143300Y-13062900D01*
X11435400Y-14204000D02*
X11475400Y-14244000D01*
X11475400Y-14204000D02*
X11435400Y-14244000D01*
X6385560Y-9088120D02*
G75*
G03X6385560Y-9088120I-50800J0D01*
G01*
X6385560Y-9342120D02*
G75*
G03X6385560Y-9342120I-50800J0D01*
G01*
X6385560Y-9596120D02*
G75*
G03X6385560Y-9596120I-50800J0D01*
G01*
X6385560Y-9850120D02*
G75*
G03X6385560Y-9850120I-50800J0D01*
G01*
X6385560Y-10104120D02*
G75*
G03X6385560Y-10104120I-50800J0D01*
G01*
X6385560Y-10358120D02*
G75*
G03X6385560Y-10358120I-50800J0D01*
G01*
X6385560Y-10612120D02*
G75*
G03X6385560Y-10612120I-50800J0D01*
G01*
X6385560Y-10866120D02*
G75*
G03X6385560Y-10866120I-50800J0D01*
G01*
X6390640Y-6802120D02*
G75*
G03X6390640Y-6802120I-50800J0D01*
G01*
X6390640Y-7056120D02*
G75*
G03X6390640Y-7056120I-50800J0D01*
G01*
X6390640Y-7310120D02*
G75*
G03X6390640Y-7310120I-50800J0D01*
G01*
X6390640Y-7564120D02*
G75*
G03X6390640Y-7564120I-50800J0D01*
G01*
X6390640Y-7818120D02*
G75*
G03X6390640Y-7818120I-50800J0D01*
G01*
X6390640Y-8072120D02*
G75*
G03X6390640Y-8072120I-50800J0D01*
G01*
X6390640Y-8326120D02*
G75*
G03X6390640Y-8326120I-50800J0D01*
G01*
X6390640Y-8580120D02*
G75*
G03X6390640Y-8580120I-50800J0D01*
G01*
X6390640Y-11374120D02*
G75*
G03X6390640Y-11374120I-50800J0D01*
G01*
X6390640Y-11628120D02*
G75*
G03X6390640Y-11628120I-50800J0D01*
G01*
X6390640Y-11882120D02*
G75*
G03X6390640Y-11882120I-50800J0D01*
G01*
X6390640Y-12136120D02*
G75*
G03X6390640Y-12136120I-50800J0D01*
G01*
X6390640Y-12390120D02*
G75*
G03X6390640Y-12390120I-50800J0D01*
G01*
X6390640Y-12644120D02*
G75*
G03X6390640Y-12644120I-50800J0D01*
G01*
X6390640Y-12898120D02*
G75*
G03X6390640Y-12898120I-50800J0D01*
G01*
X6390640Y-13152120D02*
G75*
G03X6390640Y-13152120I-50800J0D01*
G01*
X6395720Y-6014720D02*
G75*
G03X6395720Y-6014720I-50800J0D01*
G01*
X6395720Y-6268720D02*
G75*
G03X6395720Y-6268720I-50800J0D01*
G01*
X6395720Y-6522720D02*
G75*
G03X6395720Y-6522720I-50800J0D01*
G01*
X6888480Y-5913120D02*
G75*
G03X6888480Y-5913120I-50800J0D01*
G01*
X6888480Y-6167120D02*
G75*
G03X6888480Y-6167120I-50800J0D01*
G01*
X6888480Y-6421120D02*
G75*
G03X6888480Y-6421120I-50800J0D01*
G01*
X6888480Y-6675120D02*
G75*
G03X6888480Y-6675120I-50800J0D01*
G01*
X6888480Y-6929120D02*
G75*
G03X6888480Y-6929120I-50800J0D01*
G01*
X6888480Y-7183120D02*
G75*
G03X6888480Y-7183120I-50800J0D01*
G01*
X6888480Y-7437120D02*
G75*
G03X6888480Y-7437120I-50800J0D01*
G01*
X6888480Y-7691120D02*
G75*
G03X6888480Y-7691120I-50800J0D01*
G01*
X6888480Y-7945120D02*
G75*
G03X6888480Y-7945120I-50800J0D01*
G01*
X6888480Y-8199120D02*
G75*
G03X6888480Y-8199120I-50800J0D01*
G01*
X6888480Y-8453120D02*
G75*
G03X6888480Y-8453120I-50800J0D01*
G01*
X6888480Y-8707120D02*
G75*
G03X6888480Y-8707120I-50800J0D01*
G01*
X6888480Y-8961120D02*
G75*
G03X6888480Y-8961120I-50800J0D01*
G01*
X6888480Y-9215120D02*
G75*
G03X6888480Y-9215120I-50800J0D01*
G01*
X6888480Y-9469120D02*
G75*
G03X6888480Y-9469120I-50800J0D01*
G01*
X6888480Y-9723120D02*
G75*
G03X6888480Y-9723120I-50800J0D01*
G01*
X6888480Y-9977120D02*
G75*
G03X6888480Y-9977120I-50800J0D01*
G01*
X6888480Y-10231120D02*
G75*
G03X6888480Y-10231120I-50800J0D01*
G01*
X6888480Y-10485120D02*
G75*
G03X6888480Y-10485120I-50800J0D01*
G01*
X6888480Y-10739120D02*
G75*
G03X6888480Y-10739120I-50800J0D01*
G01*
X6888480Y-10993120D02*
G75*
G03X6888480Y-10993120I-50800J0D01*
G01*
X6888480Y-11247120D02*
G75*
G03X6888480Y-11247120I-50800J0D01*
G01*
X6888480Y-11501120D02*
G75*
G03X6888480Y-11501120I-50800J0D01*
G01*
X6888480Y-11755120D02*
G75*
G03X6888480Y-11755120I-50800J0D01*
G01*
X6888480Y-12009120D02*
G75*
G03X6888480Y-12009120I-50800J0D01*
G01*
X6888480Y-12263120D02*
G75*
G03X6888480Y-12263120I-50800J0D01*
G01*
X6888480Y-12517120D02*
G75*
G03X6888480Y-12517120I-50800J0D01*
G01*
X6888480Y-12771120D02*
G75*
G03X6888480Y-12771120I-50800J0D01*
G01*
X6888480Y-13025120D02*
G75*
G03X6888480Y-13025120I-50800J0D01*
G01*
X6898640Y-13426440D02*
G75*
G03X6898640Y-13426440I-50800J0D01*
G01*
X6898640Y-13680440D02*
G75*
G03X6898640Y-13680440I-50800J0D01*
G01*
X7142480Y-5913120D02*
G75*
G03X7142480Y-5913120I-50800J0D01*
G01*
X7142480Y-6167120D02*
G75*
G03X7142480Y-6167120I-50800J0D01*
G01*
X7142480Y-6421120D02*
G75*
G03X7142480Y-6421120I-50800J0D01*
G01*
X7142480Y-6675120D02*
G75*
G03X7142480Y-6675120I-50800J0D01*
G01*
X7142480Y-6929120D02*
G75*
G03X7142480Y-6929120I-50800J0D01*
G01*
X7142480Y-7183120D02*
G75*
G03X7142480Y-7183120I-50800J0D01*
G01*
X7142480Y-7437120D02*
G75*
G03X7142480Y-7437120I-50800J0D01*
G01*
X7142480Y-7691120D02*
G75*
G03X7142480Y-7691120I-50800J0D01*
G01*
X7142480Y-7945120D02*
G75*
G03X7142480Y-7945120I-50800J0D01*
G01*
X7142480Y-8199120D02*
G75*
G03X7142480Y-8199120I-50800J0D01*
G01*
X7142480Y-8453120D02*
G75*
G03X7142480Y-8453120I-50800J0D01*
G01*
X7142480Y-8707120D02*
G75*
G03X7142480Y-8707120I-50800J0D01*
G01*
X7142480Y-8961120D02*
G75*
G03X7142480Y-8961120I-50800J0D01*
G01*
X7142480Y-9215120D02*
G75*
G03X7142480Y-9215120I-50800J0D01*
G01*
X7142480Y-9469120D02*
G75*
G03X7142480Y-9469120I-50800J0D01*
G01*
X7142480Y-9723120D02*
G75*
G03X7142480Y-9723120I-50800J0D01*
G01*
X7142480Y-9977120D02*
G75*
G03X7142480Y-9977120I-50800J0D01*
G01*
X7142480Y-10231120D02*
G75*
G03X7142480Y-10231120I-50800J0D01*
G01*
X7142480Y-10485120D02*
G75*
G03X7142480Y-10485120I-50800J0D01*
G01*
X7142480Y-10739120D02*
G75*
G03X7142480Y-10739120I-50800J0D01*
G01*
X7142480Y-10993120D02*
G75*
G03X7142480Y-10993120I-50800J0D01*
G01*
X7142480Y-11247120D02*
G75*
G03X7142480Y-11247120I-50800J0D01*
G01*
X7142480Y-11501120D02*
G75*
G03X7142480Y-11501120I-50800J0D01*
G01*
X7142480Y-11755120D02*
G75*
G03X7142480Y-11755120I-50800J0D01*
G01*
X7142480Y-12009120D02*
G75*
G03X7142480Y-12009120I-50800J0D01*
G01*
X7142480Y-12263120D02*
G75*
G03X7142480Y-12263120I-50800J0D01*
G01*
X7142480Y-12517120D02*
G75*
G03X7142480Y-12517120I-50800J0D01*
G01*
X7142480Y-12771120D02*
G75*
G03X7142480Y-12771120I-50800J0D01*
G01*
X7142480Y-13025120D02*
G75*
G03X7142480Y-13025120I-50800J0D01*
G01*
X7152640Y-13426440D02*
G75*
G03X7152640Y-13426440I-50800J0D01*
G01*
X7152640Y-13680440D02*
G75*
G03X7152640Y-13680440I-50800J0D01*
G01*
X7396480Y-5913120D02*
G75*
G03X7396480Y-5913120I-50800J0D01*
G01*
X7396480Y-6167120D02*
G75*
G03X7396480Y-6167120I-50800J0D01*
G01*
X7396480Y-6421120D02*
G75*
G03X7396480Y-6421120I-50800J0D01*
G01*
X7396480Y-6675120D02*
G75*
G03X7396480Y-6675120I-50800J0D01*
G01*
X7396480Y-6929120D02*
G75*
G03X7396480Y-6929120I-50800J0D01*
G01*
X7396480Y-7183120D02*
G75*
G03X7396480Y-7183120I-50800J0D01*
G01*
X7396480Y-7437120D02*
G75*
G03X7396480Y-7437120I-50800J0D01*
G01*
X7396480Y-7691120D02*
G75*
G03X7396480Y-7691120I-50800J0D01*
G01*
X7396480Y-7945120D02*
G75*
G03X7396480Y-7945120I-50800J0D01*
G01*
X7396480Y-8199120D02*
G75*
G03X7396480Y-8199120I-50800J0D01*
G01*
X7396480Y-8453120D02*
G75*
G03X7396480Y-8453120I-50800J0D01*
G01*
X7396480Y-8707120D02*
G75*
G03X7396480Y-8707120I-50800J0D01*
G01*
X7396480Y-8961120D02*
G75*
G03X7396480Y-8961120I-50800J0D01*
G01*
X7396480Y-9215120D02*
G75*
G03X7396480Y-9215120I-50800J0D01*
G01*
X7396480Y-9469120D02*
G75*
G03X7396480Y-9469120I-50800J0D01*
G01*
X7396480Y-9723120D02*
G75*
G03X7396480Y-9723120I-50800J0D01*
G01*
X7396480Y-9977120D02*
G75*
G03X7396480Y-9977120I-50800J0D01*
G01*
X7396480Y-10231120D02*
G75*
G03X7396480Y-10231120I-50800J0D01*
G01*
X7396480Y-10485120D02*
G75*
G03X7396480Y-10485120I-50800J0D01*
G01*
X7396480Y-10739120D02*
G75*
G03X7396480Y-10739120I-50800J0D01*
G01*
X7396480Y-10993120D02*
G75*
G03X7396480Y-10993120I-50800J0D01*
G01*
X7396480Y-11247120D02*
G75*
G03X7396480Y-11247120I-50800J0D01*
G01*
X7396480Y-11501120D02*
G75*
G03X7396480Y-11501120I-50800J0D01*
G01*
X7396480Y-11755120D02*
G75*
G03X7396480Y-11755120I-50800J0D01*
G01*
X7396480Y-12009120D02*
G75*
G03X7396480Y-12009120I-50800J0D01*
G01*
X7396480Y-12263120D02*
G75*
G03X7396480Y-12263120I-50800J0D01*
G01*
X7396480Y-12517120D02*
G75*
G03X7396480Y-12517120I-50800J0D01*
G01*
X7396480Y-12771120D02*
G75*
G03X7396480Y-12771120I-50800J0D01*
G01*
X7396480Y-13025120D02*
G75*
G03X7396480Y-13025120I-50800J0D01*
G01*
X7406640Y-13426440D02*
G75*
G03X7406640Y-13426440I-50800J0D01*
G01*
X7406640Y-13680440D02*
G75*
G03X7406640Y-13680440I-50800J0D01*
G01*
X7650480Y-5913120D02*
G75*
G03X7650480Y-5913120I-50800J0D01*
G01*
X7650480Y-6167120D02*
G75*
G03X7650480Y-6167120I-50800J0D01*
G01*
X7650480Y-6421120D02*
G75*
G03X7650480Y-6421120I-50800J0D01*
G01*
X7650480Y-6675120D02*
G75*
G03X7650480Y-6675120I-50800J0D01*
G01*
X7650480Y-6929120D02*
G75*
G03X7650480Y-6929120I-50800J0D01*
G01*
X7650480Y-7183120D02*
G75*
G03X7650480Y-7183120I-50800J0D01*
G01*
X7650480Y-7437120D02*
G75*
G03X7650480Y-7437120I-50800J0D01*
G01*
X7650480Y-7691120D02*
G75*
G03X7650480Y-7691120I-50800J0D01*
G01*
X7650480Y-7945120D02*
G75*
G03X7650480Y-7945120I-50800J0D01*
G01*
X7650480Y-8199120D02*
G75*
G03X7650480Y-8199120I-50800J0D01*
G01*
X7650480Y-8453120D02*
G75*
G03X7650480Y-8453120I-50800J0D01*
G01*
X7650480Y-8707120D02*
G75*
G03X7650480Y-8707120I-50800J0D01*
G01*
X7650480Y-8961120D02*
G75*
G03X7650480Y-8961120I-50800J0D01*
G01*
X7650480Y-9215120D02*
G75*
G03X7650480Y-9215120I-50800J0D01*
G01*
X7650480Y-9469120D02*
G75*
G03X7650480Y-9469120I-50800J0D01*
G01*
X7650480Y-9723120D02*
G75*
G03X7650480Y-9723120I-50800J0D01*
G01*
X7650480Y-9977120D02*
G75*
G03X7650480Y-9977120I-50800J0D01*
G01*
X7650480Y-10231120D02*
G75*
G03X7650480Y-10231120I-50800J0D01*
G01*
X7650480Y-10485120D02*
G75*
G03X7650480Y-10485120I-50800J0D01*
G01*
X7650480Y-10739120D02*
G75*
G03X7650480Y-10739120I-50800J0D01*
G01*
X7650480Y-10993120D02*
G75*
G03X7650480Y-10993120I-50800J0D01*
G01*
X7650480Y-11247120D02*
G75*
G03X7650480Y-11247120I-50800J0D01*
G01*
X7650480Y-11501120D02*
G75*
G03X7650480Y-11501120I-50800J0D01*
G01*
X7650480Y-11755120D02*
G75*
G03X7650480Y-11755120I-50800J0D01*
G01*
X7650480Y-12009120D02*
G75*
G03X7650480Y-12009120I-50800J0D01*
G01*
X7650480Y-12263120D02*
G75*
G03X7650480Y-12263120I-50800J0D01*
G01*
X7650480Y-12517120D02*
G75*
G03X7650480Y-12517120I-50800J0D01*
G01*
X7650480Y-12771120D02*
G75*
G03X7650480Y-12771120I-50800J0D01*
G01*
X7650480Y-13025120D02*
G75*
G03X7650480Y-13025120I-50800J0D01*
G01*
X7660640Y-13426440D02*
G75*
G03X7660640Y-13426440I-50800J0D01*
G01*
X7660640Y-13680440D02*
G75*
G03X7660640Y-13680440I-50800J0D01*
G01*
X7899400Y-11755120D02*
G75*
G03X7899400Y-11755120I-50800J0D01*
G01*
X7899400Y-12009120D02*
G75*
G03X7899400Y-12009120I-50800J0D01*
G01*
X7899400Y-12263120D02*
G75*
G03X7899400Y-12263120I-50800J0D01*
G01*
X7899400Y-12517120D02*
G75*
G03X7899400Y-12517120I-50800J0D01*
G01*
X7899400Y-12771120D02*
G75*
G03X7899400Y-12771120I-50800J0D01*
G01*
X7899400Y-13025120D02*
G75*
G03X7899400Y-13025120I-50800J0D01*
G01*
X7914640Y-13426440D02*
G75*
G03X7914640Y-13426440I-50800J0D01*
G01*
X7914640Y-13680440D02*
G75*
G03X7914640Y-13680440I-50800J0D01*
G01*
X8153400Y-11755120D02*
G75*
G03X8153400Y-11755120I-50800J0D01*
G01*
X8153400Y-12009120D02*
G75*
G03X8153400Y-12009120I-50800J0D01*
G01*
X8153400Y-12263120D02*
G75*
G03X8153400Y-12263120I-50800J0D01*
G01*
X8153400Y-12517120D02*
G75*
G03X8153400Y-12517120I-50800J0D01*
G01*
X8153400Y-12771120D02*
G75*
G03X8153400Y-12771120I-50800J0D01*
G01*
X8153400Y-13025120D02*
G75*
G03X8153400Y-13025120I-50800J0D01*
G01*
X8168640Y-13426440D02*
G75*
G03X8168640Y-13426440I-50800J0D01*
G01*
X8168640Y-13680440D02*
G75*
G03X8168640Y-13680440I-50800J0D01*
G01*
X8417560Y-11755120D02*
G75*
G03X8417560Y-11755120I-50800J0D01*
G01*
X8417560Y-12009120D02*
G75*
G03X8417560Y-12009120I-50800J0D01*
G01*
X8417560Y-12263120D02*
G75*
G03X8417560Y-12263120I-50800J0D01*
G01*
X8417560Y-12517120D02*
G75*
G03X8417560Y-12517120I-50800J0D01*
G01*
X8417560Y-12771120D02*
G75*
G03X8417560Y-12771120I-50800J0D01*
G01*
X8417560Y-13025120D02*
G75*
G03X8417560Y-13025120I-50800J0D01*
G01*
X8422640Y-13426440D02*
G75*
G03X8422640Y-13426440I-50800J0D01*
G01*
X8422640Y-13680440D02*
G75*
G03X8422640Y-13680440I-50800J0D01*
G01*
X8671560Y-11755120D02*
G75*
G03X8671560Y-11755120I-50800J0D01*
G01*
X8671560Y-12009120D02*
G75*
G03X8671560Y-12009120I-50800J0D01*
G01*
X8671560Y-12263120D02*
G75*
G03X8671560Y-12263120I-50800J0D01*
G01*
X8671560Y-12517120D02*
G75*
G03X8671560Y-12517120I-50800J0D01*
G01*
X8671560Y-12771120D02*
G75*
G03X8671560Y-12771120I-50800J0D01*
G01*
X8671560Y-13025120D02*
G75*
G03X8671560Y-13025120I-50800J0D01*
G01*
X8676640Y-13426440D02*
G75*
G03X8676640Y-13426440I-50800J0D01*
G01*
X8676640Y-13680440D02*
G75*
G03X8676640Y-13680440I-50800J0D01*
G01*
X8925560Y-11755120D02*
G75*
G03X8925560Y-11755120I-50800J0D01*
G01*
X8925560Y-12009120D02*
G75*
G03X8925560Y-12009120I-50800J0D01*
G01*
X8925560Y-12263120D02*
G75*
G03X8925560Y-12263120I-50800J0D01*
G01*
X8925560Y-12517120D02*
G75*
G03X8925560Y-12517120I-50800J0D01*
G01*
X8925560Y-12771120D02*
G75*
G03X8925560Y-12771120I-50800J0D01*
G01*
X8925560Y-13025120D02*
G75*
G03X8925560Y-13025120I-50800J0D01*
G01*
X8930640Y-13426440D02*
G75*
G03X8930640Y-13426440I-50800J0D01*
G01*
X8930640Y-13680440D02*
G75*
G03X8930640Y-13680440I-50800J0D01*
G01*
X9179560Y-11755120D02*
G75*
G03X9179560Y-11755120I-50800J0D01*
G01*
X9179560Y-12009120D02*
G75*
G03X9179560Y-12009120I-50800J0D01*
G01*
X9179560Y-12263120D02*
G75*
G03X9179560Y-12263120I-50800J0D01*
G01*
X9179560Y-12517120D02*
G75*
G03X9179560Y-12517120I-50800J0D01*
G01*
X9179560Y-12771120D02*
G75*
G03X9179560Y-12771120I-50800J0D01*
G01*
X9179560Y-13025120D02*
G75*
G03X9179560Y-13025120I-50800J0D01*
G01*
X9184640Y-13426440D02*
G75*
G03X9184640Y-13426440I-50800J0D01*
G01*
X9184640Y-13680440D02*
G75*
G03X9184640Y-13680440I-50800J0D01*
G01*
X9428480Y-11755120D02*
G75*
G03X9428480Y-11755120I-50800J0D01*
G01*
X9428480Y-12009120D02*
G75*
G03X9428480Y-12009120I-50800J0D01*
G01*
X9428480Y-12263120D02*
G75*
G03X9428480Y-12263120I-50800J0D01*
G01*
X9428480Y-12517120D02*
G75*
G03X9428480Y-12517120I-50800J0D01*
G01*
X9428480Y-12771120D02*
G75*
G03X9428480Y-12771120I-50800J0D01*
G01*
X9428480Y-13025120D02*
G75*
G03X9428480Y-13025120I-50800J0D01*
G01*
X9438640Y-13426440D02*
G75*
G03X9438640Y-13426440I-50800J0D01*
G01*
X9438640Y-13680440D02*
G75*
G03X9438640Y-13680440I-50800J0D01*
G01*
X9682480Y-11755120D02*
G75*
G03X9682480Y-11755120I-50800J0D01*
G01*
X9682480Y-12009120D02*
G75*
G03X9682480Y-12009120I-50800J0D01*
G01*
X9682480Y-12263120D02*
G75*
G03X9682480Y-12263120I-50800J0D01*
G01*
X9682480Y-12517120D02*
G75*
G03X9682480Y-12517120I-50800J0D01*
G01*
X9682480Y-12771120D02*
G75*
G03X9682480Y-12771120I-50800J0D01*
G01*
X9682480Y-13025120D02*
G75*
G03X9682480Y-13025120I-50800J0D01*
G01*
X9692640Y-13426440D02*
G75*
G03X9692640Y-13426440I-50800J0D01*
G01*
X9692640Y-13680440D02*
G75*
G03X9692640Y-13680440I-50800J0D01*
G01*
X9936480Y-5908040D02*
G75*
G03X9936480Y-5908040I-50800J0D01*
G01*
X9936480Y-6162040D02*
G75*
G03X9936480Y-6162040I-50800J0D01*
G01*
X9936480Y-6416040D02*
G75*
G03X9936480Y-6416040I-50800J0D01*
G01*
X9936480Y-6670040D02*
G75*
G03X9936480Y-6670040I-50800J0D01*
G01*
X9936480Y-6924040D02*
G75*
G03X9936480Y-6924040I-50800J0D01*
G01*
X9936480Y-7178040D02*
G75*
G03X9936480Y-7178040I-50800J0D01*
G01*
X9936480Y-7432040D02*
G75*
G03X9936480Y-7432040I-50800J0D01*
G01*
X9936480Y-7686040D02*
G75*
G03X9936480Y-7686040I-50800J0D01*
G01*
X9936480Y-7940040D02*
G75*
G03X9936480Y-7940040I-50800J0D01*
G01*
X9936480Y-8194040D02*
G75*
G03X9936480Y-8194040I-50800J0D01*
G01*
X9936480Y-8448040D02*
G75*
G03X9936480Y-8448040I-50800J0D01*
G01*
X9936480Y-8702040D02*
G75*
G03X9936480Y-8702040I-50800J0D01*
G01*
X9936480Y-8956040D02*
G75*
G03X9936480Y-8956040I-50800J0D01*
G01*
X9936480Y-9210040D02*
G75*
G03X9936480Y-9210040I-50800J0D01*
G01*
X9936480Y-9464040D02*
G75*
G03X9936480Y-9464040I-50800J0D01*
G01*
X9936480Y-9718040D02*
G75*
G03X9936480Y-9718040I-50800J0D01*
G01*
X9936480Y-9972040D02*
G75*
G03X9936480Y-9972040I-50800J0D01*
G01*
X9936480Y-10226040D02*
G75*
G03X9936480Y-10226040I-50800J0D01*
G01*
X9936480Y-10480040D02*
G75*
G03X9936480Y-10480040I-50800J0D01*
G01*
X9936480Y-10734040D02*
G75*
G03X9936480Y-10734040I-50800J0D01*
G01*
X9936480Y-10988040D02*
G75*
G03X9936480Y-10988040I-50800J0D01*
G01*
X9936480Y-11242040D02*
G75*
G03X9936480Y-11242040I-50800J0D01*
G01*
X9936480Y-11496040D02*
G75*
G03X9936480Y-11496040I-50800J0D01*
G01*
X9936480Y-11750040D02*
G75*
G03X9936480Y-11750040I-50800J0D01*
G01*
X9936480Y-12004040D02*
G75*
G03X9936480Y-12004040I-50800J0D01*
G01*
X9936480Y-12258040D02*
G75*
G03X9936480Y-12258040I-50800J0D01*
G01*
X9936480Y-12512040D02*
G75*
G03X9936480Y-12512040I-50800J0D01*
G01*
X9936480Y-12766040D02*
G75*
G03X9936480Y-12766040I-50800J0D01*
G01*
X9936480Y-13020040D02*
G75*
G03X9936480Y-13020040I-50800J0D01*
G01*
X9946640Y-13426440D02*
G75*
G03X9946640Y-13426440I-50800J0D01*
G01*
X9946640Y-13680440D02*
G75*
G03X9946640Y-13680440I-50800J0D01*
G01*
X10190480Y-5908040D02*
G75*
G03X10190480Y-5908040I-50800J0D01*
G01*
X10190480Y-6162040D02*
G75*
G03X10190480Y-6162040I-50800J0D01*
G01*
X10190480Y-6416040D02*
G75*
G03X10190480Y-6416040I-50800J0D01*
G01*
X10190480Y-6670040D02*
G75*
G03X10190480Y-6670040I-50800J0D01*
G01*
X10190480Y-6924040D02*
G75*
G03X10190480Y-6924040I-50800J0D01*
G01*
X10190480Y-7178040D02*
G75*
G03X10190480Y-7178040I-50800J0D01*
G01*
X10190480Y-7432040D02*
G75*
G03X10190480Y-7432040I-50800J0D01*
G01*
X10190480Y-7686040D02*
G75*
G03X10190480Y-7686040I-50800J0D01*
G01*
X10190480Y-7940040D02*
G75*
G03X10190480Y-7940040I-50800J0D01*
G01*
X10190480Y-8194040D02*
G75*
G03X10190480Y-8194040I-50800J0D01*
G01*
X10190480Y-8448040D02*
G75*
G03X10190480Y-8448040I-50800J0D01*
G01*
X10190480Y-8702040D02*
G75*
G03X10190480Y-8702040I-50800J0D01*
G01*
X10190480Y-8956040D02*
G75*
G03X10190480Y-8956040I-50800J0D01*
G01*
X10190480Y-9210040D02*
G75*
G03X10190480Y-9210040I-50800J0D01*
G01*
X10190480Y-9464040D02*
G75*
G03X10190480Y-9464040I-50800J0D01*
G01*
X10190480Y-9718040D02*
G75*
G03X10190480Y-9718040I-50800J0D01*
G01*
X10190480Y-9972040D02*
G75*
G03X10190480Y-9972040I-50800J0D01*
G01*
X10190480Y-10226040D02*
G75*
G03X10190480Y-10226040I-50800J0D01*
G01*
X10190480Y-10480040D02*
G75*
G03X10190480Y-10480040I-50800J0D01*
G01*
X10190480Y-10734040D02*
G75*
G03X10190480Y-10734040I-50800J0D01*
G01*
X10190480Y-10988040D02*
G75*
G03X10190480Y-10988040I-50800J0D01*
G01*
X10190480Y-11242040D02*
G75*
G03X10190480Y-11242040I-50800J0D01*
G01*
X10190480Y-11496040D02*
G75*
G03X10190480Y-11496040I-50800J0D01*
G01*
X10190480Y-11750040D02*
G75*
G03X10190480Y-11750040I-50800J0D01*
G01*
X10190480Y-12004040D02*
G75*
G03X10190480Y-12004040I-50800J0D01*
G01*
X10190480Y-12258040D02*
G75*
G03X10190480Y-12258040I-50800J0D01*
G01*
X10190480Y-12512040D02*
G75*
G03X10190480Y-12512040I-50800J0D01*
G01*
X10190480Y-12766040D02*
G75*
G03X10190480Y-12766040I-50800J0D01*
G01*
X10190480Y-13020040D02*
G75*
G03X10190480Y-13020040I-50800J0D01*
G01*
X10200640Y-13426440D02*
G75*
G03X10200640Y-13426440I-50800J0D01*
G01*
X10200640Y-13680440D02*
G75*
G03X10200640Y-13680440I-50800J0D01*
G01*
X10439400Y-5908040D02*
G75*
G03X10439400Y-5908040I-50800J0D01*
G01*
X10439400Y-6162040D02*
G75*
G03X10439400Y-6162040I-50800J0D01*
G01*
X10439400Y-6416040D02*
G75*
G03X10439400Y-6416040I-50800J0D01*
G01*
X10439400Y-6670040D02*
G75*
G03X10439400Y-6670040I-50800J0D01*
G01*
X10439400Y-6924040D02*
G75*
G03X10439400Y-6924040I-50800J0D01*
G01*
X10439400Y-7178040D02*
G75*
G03X10439400Y-7178040I-50800J0D01*
G01*
X10439400Y-7432040D02*
G75*
G03X10439400Y-7432040I-50800J0D01*
G01*
X10439400Y-7686040D02*
G75*
G03X10439400Y-7686040I-50800J0D01*
G01*
X10439400Y-7940040D02*
G75*
G03X10439400Y-7940040I-50800J0D01*
G01*
X10439400Y-8194040D02*
G75*
G03X10439400Y-8194040I-50800J0D01*
G01*
X10439400Y-8448040D02*
G75*
G03X10439400Y-8448040I-50800J0D01*
G01*
X10439400Y-8702040D02*
G75*
G03X10439400Y-8702040I-50800J0D01*
G01*
X10439400Y-8956040D02*
G75*
G03X10439400Y-8956040I-50800J0D01*
G01*
X10439400Y-9210040D02*
G75*
G03X10439400Y-9210040I-50800J0D01*
G01*
X10439400Y-9464040D02*
G75*
G03X10439400Y-9464040I-50800J0D01*
G01*
X10439400Y-9718040D02*
G75*
G03X10439400Y-9718040I-50800J0D01*
G01*
X10439400Y-9972040D02*
G75*
G03X10439400Y-9972040I-50800J0D01*
G01*
X10439400Y-10226040D02*
G75*
G03X10439400Y-10226040I-50800J0D01*
G01*
X10439400Y-10480040D02*
G75*
G03X10439400Y-10480040I-50800J0D01*
G01*
X10439400Y-10734040D02*
G75*
G03X10439400Y-10734040I-50800J0D01*
G01*
X10439400Y-10988040D02*
G75*
G03X10439400Y-10988040I-50800J0D01*
G01*
X10439400Y-11242040D02*
G75*
G03X10439400Y-11242040I-50800J0D01*
G01*
X10439400Y-11496040D02*
G75*
G03X10439400Y-11496040I-50800J0D01*
G01*
X10439400Y-11750040D02*
G75*
G03X10439400Y-11750040I-50800J0D01*
G01*
X10439400Y-12004040D02*
G75*
G03X10439400Y-12004040I-50800J0D01*
G01*
X10439400Y-12258040D02*
G75*
G03X10439400Y-12258040I-50800J0D01*
G01*
X10439400Y-12512040D02*
G75*
G03X10439400Y-12512040I-50800J0D01*
G01*
X10439400Y-12766040D02*
G75*
G03X10439400Y-12766040I-50800J0D01*
G01*
X10439400Y-13020040D02*
G75*
G03X10439400Y-13020040I-50800J0D01*
G01*
X10454640Y-13426440D02*
G75*
G03X10454640Y-13426440I-50800J0D01*
G01*
X10454640Y-13680440D02*
G75*
G03X10454640Y-13680440I-50800J0D01*
G01*
X10693400Y-5908040D02*
G75*
G03X10693400Y-5908040I-50800J0D01*
G01*
X10693400Y-6162040D02*
G75*
G03X10693400Y-6162040I-50800J0D01*
G01*
X10693400Y-6416040D02*
G75*
G03X10693400Y-6416040I-50800J0D01*
G01*
X10693400Y-6670040D02*
G75*
G03X10693400Y-6670040I-50800J0D01*
G01*
X10693400Y-6924040D02*
G75*
G03X10693400Y-6924040I-50800J0D01*
G01*
X10693400Y-7178040D02*
G75*
G03X10693400Y-7178040I-50800J0D01*
G01*
X10693400Y-7432040D02*
G75*
G03X10693400Y-7432040I-50800J0D01*
G01*
X10693400Y-7686040D02*
G75*
G03X10693400Y-7686040I-50800J0D01*
G01*
X10693400Y-7940040D02*
G75*
G03X10693400Y-7940040I-50800J0D01*
G01*
X10693400Y-8194040D02*
G75*
G03X10693400Y-8194040I-50800J0D01*
G01*
X10693400Y-8448040D02*
G75*
G03X10693400Y-8448040I-50800J0D01*
G01*
X10693400Y-8702040D02*
G75*
G03X10693400Y-8702040I-50800J0D01*
G01*
X10693400Y-8956040D02*
G75*
G03X10693400Y-8956040I-50800J0D01*
G01*
X10693400Y-9210040D02*
G75*
G03X10693400Y-9210040I-50800J0D01*
G01*
X10693400Y-9464040D02*
G75*
G03X10693400Y-9464040I-50800J0D01*
G01*
X10693400Y-9718040D02*
G75*
G03X10693400Y-9718040I-50800J0D01*
G01*
X10693400Y-9972040D02*
G75*
G03X10693400Y-9972040I-50800J0D01*
G01*
X10693400Y-10226040D02*
G75*
G03X10693400Y-10226040I-50800J0D01*
G01*
X10693400Y-10480040D02*
G75*
G03X10693400Y-10480040I-50800J0D01*
G01*
X10693400Y-10734040D02*
G75*
G03X10693400Y-10734040I-50800J0D01*
G01*
X10693400Y-10988040D02*
G75*
G03X10693400Y-10988040I-50800J0D01*
G01*
X10693400Y-11242040D02*
G75*
G03X10693400Y-11242040I-50800J0D01*
G01*
X10693400Y-11496040D02*
G75*
G03X10693400Y-11496040I-50800J0D01*
G01*
X10693400Y-11750040D02*
G75*
G03X10693400Y-11750040I-50800J0D01*
G01*
X10693400Y-12004040D02*
G75*
G03X10693400Y-12004040I-50800J0D01*
G01*
X10693400Y-12258040D02*
G75*
G03X10693400Y-12258040I-50800J0D01*
G01*
X10693400Y-12512040D02*
G75*
G03X10693400Y-12512040I-50800J0D01*
G01*
X10693400Y-12766040D02*
G75*
G03X10693400Y-12766040I-50800J0D01*
G01*
X10693400Y-13020040D02*
G75*
G03X10693400Y-13020040I-50800J0D01*
G01*
X10708640Y-13426440D02*
G75*
G03X10708640Y-13426440I-50800J0D01*
G01*
X10708640Y-13680440D02*
G75*
G03X10708640Y-13680440I-50800J0D01*
G01*
X10962640Y-13426440D02*
G75*
G03X10962640Y-13426440I-50800J0D01*
G01*
X10962640Y-13680440D02*
G75*
G03X10962640Y-13680440I-50800J0D01*
G01*
X11216640Y-8580120D02*
G75*
G03X11216640Y-8580120I-50800J0D01*
G01*
X11216640Y-8834120D02*
G75*
G03X11216640Y-8834120I-50800J0D01*
G01*
X11216640Y-9088120D02*
G75*
G03X11216640Y-9088120I-50800J0D01*
G01*
X11216640Y-9342120D02*
G75*
G03X11216640Y-9342120I-50800J0D01*
G01*
X11216640Y-9596120D02*
G75*
G03X11216640Y-9596120I-50800J0D01*
G01*
X11216640Y-9850120D02*
G75*
G03X11216640Y-9850120I-50800J0D01*
G01*
X11216640Y-10104120D02*
G75*
G03X11216640Y-10104120I-50800J0D01*
G01*
X11216640Y-10358120D02*
G75*
G03X11216640Y-10358120I-50800J0D01*
G01*
X11216640Y-10866120D02*
G75*
G03X11216640Y-10866120I-50800J0D01*
G01*
X11216640Y-11120120D02*
G75*
G03X11216640Y-11120120I-50800J0D01*
G01*
X11216640Y-11374120D02*
G75*
G03X11216640Y-11374120I-50800J0D01*
G01*
X11216640Y-11628120D02*
G75*
G03X11216640Y-11628120I-50800J0D01*
G01*
X11216640Y-11882120D02*
G75*
G03X11216640Y-11882120I-50800J0D01*
G01*
X11216640Y-12136120D02*
G75*
G03X11216640Y-12136120I-50800J0D01*
G01*
X11216640Y-12390120D02*
G75*
G03X11216640Y-12390120I-50800J0D01*
G01*
X11216640Y-12644120D02*
G75*
G03X11216640Y-12644120I-50800J0D01*
G01*
X11216640Y-13426440D02*
G75*
G03X11216640Y-13426440I-50800J0D01*
G01*
X11216640Y-13680440D02*
G75*
G03X11216640Y-13680440I-50800J0D01*
G01*
X11226800Y-5887720D02*
G75*
G03X11226800Y-5887720I-50800J0D01*
G01*
X11226800Y-6141720D02*
G75*
G03X11226800Y-6141720I-50800J0D01*
G01*
X11226800Y-6395720D02*
G75*
G03X11226800Y-6395720I-50800J0D01*
G01*
X11226800Y-6649720D02*
G75*
G03X11226800Y-6649720I-50800J0D01*
G01*
X11226800Y-6903720D02*
G75*
G03X11226800Y-6903720I-50800J0D01*
G01*
X11226800Y-7157720D02*
G75*
G03X11226800Y-7157720I-50800J0D01*
G01*
X11226800Y-7411720D02*
G75*
G03X11226800Y-7411720I-50800J0D01*
G01*
X11226800Y-7665720D02*
G75*
G03X11226800Y-7665720I-50800J0D01*
G01*
X11226800Y-7919720D02*
G75*
G03X11226800Y-7919720I-50800J0D01*
G01*
X11226800Y-8173720D02*
G75*
G03X11226800Y-8173720I-50800J0D01*
G01*
X5795160Y-5932640D02*
X5795160Y-6052640D01*
X5735160Y-5992640D02*
X5855160Y-5992640D01*
X5795160Y-6282640D02*
X5795160Y-6402640D01*
X5735160Y-6342640D02*
X5855160Y-6342640D01*
X5795160Y-6632640D02*
X5795160Y-6752640D01*
X5735160Y-6692640D02*
X5855160Y-6692640D01*
X5795160Y-6982640D02*
X5795160Y-7102640D01*
X5735160Y-7042640D02*
X5855160Y-7042640D01*
X5795160Y-7331200D02*
X5795160Y-7451200D01*
X5735160Y-7391200D02*
X5855160Y-7391200D01*
X5795160Y-7681200D02*
X5795160Y-7801200D01*
X5735160Y-7741200D02*
X5855160Y-7741200D01*
X5795160Y-8031200D02*
X5795160Y-8151200D01*
X5735160Y-8091200D02*
X5855160Y-8091200D01*
X5795160Y-8381200D02*
X5795160Y-8501200D01*
X5735160Y-8441200D02*
X5855160Y-8441200D01*
X5795160Y-8731200D02*
X5795160Y-8851200D01*
X5735160Y-8791200D02*
X5855160Y-8791200D01*
X5795160Y-9081200D02*
X5795160Y-9201200D01*
X5735160Y-9141200D02*
X5855160Y-9141200D01*
X5795160Y-9431200D02*
X5795160Y-9551200D01*
X5735160Y-9491200D02*
X5855160Y-9491200D01*
X5795160Y-9781200D02*
X5795160Y-9901200D01*
X5735160Y-9841200D02*
X5855160Y-9841200D01*
X5795160Y-10131200D02*
X5795160Y-10251200D01*
X5735160Y-10191200D02*
X5855160Y-10191200D01*
X5795160Y-10481200D02*
X5795160Y-10601200D01*
X5735160Y-10541200D02*
X5855160Y-10541200D01*
X5795160Y-10830800D02*
X5795160Y-10950800D01*
X5735160Y-10890800D02*
X5855160Y-10890800D01*
X5795160Y-11180800D02*
X5795160Y-11300800D01*
X5735160Y-11240800D02*
X5855160Y-11240800D01*
X5795160Y-11530800D02*
X5795160Y-11650800D01*
X5735160Y-11590800D02*
X5855160Y-11590800D01*
X5795160Y-11880800D02*
X5795160Y-12000800D01*
X5735160Y-11940800D02*
X5855160Y-11940800D01*
X5795160Y-12230800D02*
X5795160Y-12350800D01*
X5735160Y-12290800D02*
X5855160Y-12290800D01*
X5795160Y-12580800D02*
X5795160Y-12700800D01*
X5735160Y-12640800D02*
X5855160Y-12640800D01*
X5795160Y-12930800D02*
X5795160Y-13050800D01*
X5735160Y-12990800D02*
X5855160Y-12990800D01*
X5795160Y-13280800D02*
X5795160Y-13400800D01*
X5735160Y-13340800D02*
X5855160Y-13340800D01*
X5929720Y-14165120D02*
X5929720Y-14285120D01*
X5869720Y-14225120D02*
X5989720Y-14225120D01*
X5929720Y-14708680D02*
X5929720Y-14828680D01*
X5869720Y-14768680D02*
X5989720Y-14768680D01*
X6279720Y-14165120D02*
X6279720Y-14285120D01*
X6219720Y-14225120D02*
X6339720Y-14225120D01*
X6279720Y-14708680D02*
X6279720Y-14828680D01*
X6219720Y-14768680D02*
X6339720Y-14768680D01*
X6629720Y-14165120D02*
X6629720Y-14285120D01*
X6569720Y-14225120D02*
X6689720Y-14225120D01*
X6629720Y-14708680D02*
X6629720Y-14828680D01*
X6569720Y-14768680D02*
X6689720Y-14768680D01*
X6979720Y-14165120D02*
X6979720Y-14285120D01*
X6919720Y-14225120D02*
X7039720Y-14225120D01*
X6979720Y-14708680D02*
X6979720Y-14828680D01*
X6919720Y-14768680D02*
X7039720Y-14768680D01*
X7329720Y-14165120D02*
X7329720Y-14285120D01*
X7269720Y-14225120D02*
X7389720Y-14225120D01*
X7329720Y-14708680D02*
X7329720Y-14828680D01*
X7269720Y-14768680D02*
X7389720Y-14768680D01*
X7679720Y-14165120D02*
X7679720Y-14285120D01*
X7619720Y-14225120D02*
X7739720Y-14225120D01*
X7679720Y-14708680D02*
X7679720Y-14828680D01*
X7619720Y-14768680D02*
X7739720Y-14768680D01*
X8029720Y-14165120D02*
X8029720Y-14285120D01*
X7969720Y-14225120D02*
X8089720Y-14225120D01*
X8029720Y-14708680D02*
X8029720Y-14828680D01*
X7969720Y-14768680D02*
X8089720Y-14768680D01*
X8248800Y-5890040D02*
X8248800Y-6010040D01*
X8188800Y-5950040D02*
X8308800Y-5950040D01*
X8248800Y-6240040D02*
X8248800Y-6360040D01*
X8188800Y-6300040D02*
X8308800Y-6300040D01*
X8248800Y-6590040D02*
X8248800Y-6710040D01*
X8188800Y-6650040D02*
X8308800Y-6650040D01*
X8248800Y-6940040D02*
X8248800Y-7060040D01*
X8188800Y-7000040D02*
X8308800Y-7000040D01*
X8248800Y-7290040D02*
X8248800Y-7410040D01*
X8188800Y-7350040D02*
X8308800Y-7350040D01*
X8248800Y-7640040D02*
X8248800Y-7760040D01*
X8188800Y-7700040D02*
X8308800Y-7700040D01*
X8248800Y-7990040D02*
X8248800Y-8110040D01*
X8188800Y-8050040D02*
X8308800Y-8050040D01*
X8248800Y-8340040D02*
X8248800Y-8460040D01*
X8188800Y-8400040D02*
X8308800Y-8400040D01*
X8248800Y-8690040D02*
X8248800Y-8810040D01*
X8188800Y-8750040D02*
X8308800Y-8750040D01*
X8248800Y-9040040D02*
X8248800Y-9160040D01*
X8188800Y-9100040D02*
X8308800Y-9100040D01*
X8248800Y-9390040D02*
X8248800Y-9510040D01*
X8188800Y-9450040D02*
X8308800Y-9450040D01*
X8248800Y-9740040D02*
X8248800Y-9860040D01*
X8188800Y-9800040D02*
X8308800Y-9800040D01*
X8248800Y-10090040D02*
X8248800Y-10210040D01*
X8188800Y-10150040D02*
X8308800Y-10150040D01*
X8248800Y-10440040D02*
X8248800Y-10560040D01*
X8188800Y-10500040D02*
X8308800Y-10500040D01*
X8248800Y-10790040D02*
X8248800Y-10910040D01*
X8188800Y-10850040D02*
X8308800Y-10850040D01*
X8248800Y-11140040D02*
X8248800Y-11260040D01*
X8188800Y-11200040D02*
X8308800Y-11200040D01*
X8379720Y-14165120D02*
X8379720Y-14285120D01*
X8319720Y-14225120D02*
X8439720Y-14225120D01*
X8379720Y-14708680D02*
X8379720Y-14828680D01*
X8319720Y-14768680D02*
X8439720Y-14768680D01*
X8729720Y-14165120D02*
X8729720Y-14285120D01*
X8669720Y-14225120D02*
X8789720Y-14225120D01*
X8729720Y-14708680D02*
X8729720Y-14828680D01*
X8669720Y-14768680D02*
X8789720Y-14768680D01*
X9079720Y-14165120D02*
X9079720Y-14285120D01*
X9019720Y-14225120D02*
X9139720Y-14225120D01*
X9079720Y-14708680D02*
X9079720Y-14828680D01*
X9019720Y-14768680D02*
X9139720Y-14768680D01*
X9241640Y-5890040D02*
X9241640Y-6010040D01*
X9181640Y-5950040D02*
X9301640Y-5950040D01*
X9241640Y-6240040D02*
X9241640Y-6360040D01*
X9181640Y-6300040D02*
X9301640Y-6300040D01*
X9241640Y-6590040D02*
X9241640Y-6710040D01*
X9181640Y-6650040D02*
X9301640Y-6650040D01*
X9241640Y-6940040D02*
X9241640Y-7060040D01*
X9181640Y-7000040D02*
X9301640Y-7000040D01*
X9241640Y-7290040D02*
X9241640Y-7410040D01*
X9181640Y-7350040D02*
X9301640Y-7350040D01*
X9241640Y-7640040D02*
X9241640Y-7760040D01*
X9181640Y-7700040D02*
X9301640Y-7700040D01*
X9241640Y-7990040D02*
X9241640Y-8110040D01*
X9181640Y-8050040D02*
X9301640Y-8050040D01*
X9241640Y-8340040D02*
X9241640Y-8460040D01*
X9181640Y-8400040D02*
X9301640Y-8400040D01*
X9241640Y-8690040D02*
X9241640Y-8810040D01*
X9181640Y-8750040D02*
X9301640Y-8750040D01*
X9241640Y-9040040D02*
X9241640Y-9160040D01*
X9181640Y-9100040D02*
X9301640Y-9100040D01*
X9241640Y-9390040D02*
X9241640Y-9510040D01*
X9181640Y-9450040D02*
X9301640Y-9450040D01*
X9241640Y-9740040D02*
X9241640Y-9860040D01*
X9181640Y-9800040D02*
X9301640Y-9800040D01*
X9241640Y-10090040D02*
X9241640Y-10210040D01*
X9181640Y-10150040D02*
X9301640Y-10150040D01*
X9241640Y-10440040D02*
X9241640Y-10560040D01*
X9181640Y-10500040D02*
X9301640Y-10500040D01*
X9241640Y-10790040D02*
X9241640Y-10910040D01*
X9181640Y-10850040D02*
X9301640Y-10850040D01*
X9241640Y-11140040D02*
X9241640Y-11260040D01*
X9181640Y-11200040D02*
X9301640Y-11200040D01*
X9429720Y-14165120D02*
X9429720Y-14285120D01*
X9369720Y-14225120D02*
X9489720Y-14225120D01*
X9429720Y-14708680D02*
X9429720Y-14828680D01*
X9369720Y-14768680D02*
X9489720Y-14768680D01*
X9779720Y-14165120D02*
X9779720Y-14285120D01*
X9719720Y-14225120D02*
X9839720Y-14225120D01*
X9779720Y-14708680D02*
X9779720Y-14828680D01*
X9719720Y-14768680D02*
X9839720Y-14768680D01*
X10129720Y-14165120D02*
X10129720Y-14285120D01*
X10069720Y-14225120D02*
X10189720Y-14225120D01*
X10129720Y-14708680D02*
X10129720Y-14828680D01*
X10069720Y-14768680D02*
X10189720Y-14768680D01*
X10479720Y-14165120D02*
X10479720Y-14285120D01*
X10419720Y-14225120D02*
X10539720Y-14225120D01*
X10479720Y-14708680D02*
X10479720Y-14828680D01*
X10419720Y-14768680D02*
X10539720Y-14768680D01*
X10829720Y-14165120D02*
X10829720Y-14285120D01*
X10769720Y-14225120D02*
X10889720Y-14225120D01*
X10829720Y-14708680D02*
X10829720Y-14828680D01*
X10769720Y-14768680D02*
X10889720Y-14768680D01*
X11179720Y-14165120D02*
X11179720Y-14285120D01*
X11119720Y-14225120D02*
X11239720Y-14225120D01*
X11179720Y-14708680D02*
X11179720Y-14828680D01*
X11119720Y-14768680D02*
X11239720Y-14768680D01*
X11730840Y-5832600D02*
X11730840Y-5952600D01*
X11670840Y-5892600D02*
X11790840Y-5892600D01*
X11730840Y-6182600D02*
X11730840Y-6302600D01*
X11670840Y-6242600D02*
X11790840Y-6242600D01*
X11730840Y-6532600D02*
X11730840Y-6652600D01*
X11670840Y-6592600D02*
X11790840Y-6592600D01*
X11730840Y-6882600D02*
X11730840Y-7002600D01*
X11670840Y-6942600D02*
X11790840Y-6942600D01*
X11730840Y-7232600D02*
X11730840Y-7352600D01*
X11670840Y-7292600D02*
X11790840Y-7292600D01*
X11730840Y-7582600D02*
X11730840Y-7702600D01*
X11670840Y-7642600D02*
X11790840Y-7642600D01*
X11730840Y-7932600D02*
X11730840Y-8052600D01*
X11670840Y-7992600D02*
X11790840Y-7992600D01*
X11730840Y-8282600D02*
X11730840Y-8402600D01*
X11670840Y-8342600D02*
X11790840Y-8342600D01*
X11730840Y-8632600D02*
X11730840Y-8752600D01*
X11670840Y-8692600D02*
X11790840Y-8692600D01*
X11730840Y-8982600D02*
X11730840Y-9102600D01*
X11670840Y-9042600D02*
X11790840Y-9042600D01*
X11730840Y-9337800D02*
X11730840Y-9457800D01*
X11670840Y-9397800D02*
X11790840Y-9397800D01*
X11730840Y-9687800D02*
X11730840Y-9807800D01*
X11670840Y-9747800D02*
X11790840Y-9747800D01*
X11730840Y-10037800D02*
X11730840Y-10157800D01*
X11670840Y-10097800D02*
X11790840Y-10097800D01*
X11730840Y-10387800D02*
X11730840Y-10507800D01*
X11670840Y-10447800D02*
X11790840Y-10447800D01*
X11730840Y-10737800D02*
X11730840Y-10857800D01*
X11670840Y-10797800D02*
X11790840Y-10797800D01*
X11730840Y-11087800D02*
X11730840Y-11207800D01*
X11670840Y-11147800D02*
X11790840Y-11147800D01*
X11730840Y-11437800D02*
X11730840Y-11557800D01*
X11670840Y-11497800D02*
X11790840Y-11497800D01*
X11730840Y-11787800D02*
X11730840Y-11907800D01*
X11670840Y-11847800D02*
X11790840Y-11847800D01*
X11730840Y-12137800D02*
X11730840Y-12257800D01*
X11670840Y-12197800D02*
X11790840Y-12197800D01*
X11730840Y-12487800D02*
X11730840Y-12607800D01*
X11670840Y-12547800D02*
X11790840Y-12547800D01*
X11730840Y-12841440D02*
X11730840Y-12961440D01*
X11670840Y-12901440D02*
X11790840Y-12901440D01*
X11730840Y-13191440D02*
X11730840Y-13311440D01*
X11670840Y-13251440D02*
X11790840Y-13251440D01*
X11730840Y-13541440D02*
X11730840Y-13661440D01*
X11670840Y-13601440D02*
X11790840Y-13601440D01*
X11730840Y-13891440D02*
X11730840Y-14011440D01*
X11670840Y-13951440D02*
X11790840Y-13951440D01*
D13*
X5358928Y-15713214D02*
X5358928Y-15413214D01*
X5430357Y-15413214D01*
X5473214Y-15427500D01*
X5501786Y-15456071D01*
X5516071Y-15484643D01*
X5530357Y-15541786D01*
X5530357Y-15584643D01*
X5516071Y-15641786D01*
X5501786Y-15670357D01*
X5473214Y-15698929D01*
X5430357Y-15713214D01*
X5358928Y-15713214D01*
X5658928Y-15713214D02*
X5658928Y-15513214D01*
X5658928Y-15570357D02*
X5673214Y-15541786D01*
X5687500Y-15527500D01*
X5716071Y-15513214D01*
X5744643Y-15513214D01*
X5844643Y-15713214D02*
X5844643Y-15513214D01*
X5844643Y-15413214D02*
X5830357Y-15427500D01*
X5844643Y-15441786D01*
X5858928Y-15427500D01*
X5844643Y-15413214D01*
X5844643Y-15441786D01*
X6030357Y-15713214D02*
X6001786Y-15698929D01*
X5987500Y-15670357D01*
X5987500Y-15413214D01*
X6187500Y-15713214D02*
X6158928Y-15698929D01*
X6144643Y-15670357D01*
X6144643Y-15413214D01*
X6530357Y-15713214D02*
X6530357Y-15413214D01*
X6630357Y-15627500D01*
X6730357Y-15413214D01*
X6730357Y-15713214D01*
X7001786Y-15713214D02*
X7001786Y-15556071D01*
X6987500Y-15527500D01*
X6958928Y-15513214D01*
X6901786Y-15513214D01*
X6873214Y-15527500D01*
X7001786Y-15698929D02*
X6973214Y-15713214D01*
X6901786Y-15713214D01*
X6873214Y-15698929D01*
X6858928Y-15670357D01*
X6858928Y-15641786D01*
X6873214Y-15613214D01*
X6901786Y-15598929D01*
X6973214Y-15598929D01*
X7001786Y-15584643D01*
X7144643Y-15513214D02*
X7144643Y-15813214D01*
X7144643Y-15527500D02*
X7173214Y-15513214D01*
X7230357Y-15513214D01*
X7258928Y-15527500D01*
X7273214Y-15541786D01*
X7287500Y-15570357D01*
X7287500Y-15656071D01*
X7273214Y-15684643D01*
X7258928Y-15698929D01*
X7230357Y-15713214D01*
X7173214Y-15713214D01*
X7144643Y-15698929D01*
X7416071Y-15684643D02*
X7430357Y-15698929D01*
X7416071Y-15713214D01*
X7401786Y-15698929D01*
X7416071Y-15684643D01*
X7416071Y-15713214D01*
X7416071Y-15527500D02*
X7430357Y-15541786D01*
X7416071Y-15556071D01*
X7401786Y-15541786D01*
X7416071Y-15527500D01*
X7416071Y-15556071D01*
X5032500Y-16187500D02*
X5072500Y-16227500D01*
X5072500Y-16187500D02*
X5032500Y-16227500D01*
X5416071Y-16043214D02*
X5444643Y-16043214D01*
X5473214Y-16057500D01*
X5487500Y-16071786D01*
X5501786Y-16100357D01*
X5516071Y-16157500D01*
X5516071Y-16228929D01*
X5501786Y-16286071D01*
X5487500Y-16314643D01*
X5473214Y-16328929D01*
X5444643Y-16343214D01*
X5416071Y-16343214D01*
X5387500Y-16328929D01*
X5373214Y-16314643D01*
X5358928Y-16286071D01*
X5344643Y-16228929D01*
X5344643Y-16157500D01*
X5358928Y-16100357D01*
X5373214Y-16071786D01*
X5387500Y-16057500D01*
X5416071Y-16043214D01*
X5644643Y-16314643D02*
X5658928Y-16328929D01*
X5644643Y-16343214D01*
X5630357Y-16328929D01*
X5644643Y-16314643D01*
X5644643Y-16343214D01*
X5916071Y-16143214D02*
X5916071Y-16343214D01*
X5844643Y-16028929D02*
X5773214Y-16243214D01*
X5958928Y-16243214D01*
X6130357Y-16043214D02*
X6158928Y-16043214D01*
X6187500Y-16057500D01*
X6201786Y-16071786D01*
X6216071Y-16100357D01*
X6230357Y-16157500D01*
X6230357Y-16228929D01*
X6216071Y-16286071D01*
X6201786Y-16314643D01*
X6187500Y-16328929D01*
X6158928Y-16343214D01*
X6130357Y-16343214D01*
X6101786Y-16328929D01*
X6087500Y-16314643D01*
X6073214Y-16286071D01*
X6058928Y-16228929D01*
X6058928Y-16157500D01*
X6073214Y-16100357D01*
X6087500Y-16071786D01*
X6101786Y-16057500D01*
X6130357Y-16043214D01*
X6358928Y-16343214D02*
X6358928Y-16143214D01*
X6358928Y-16171786D02*
X6373214Y-16157500D01*
X6401786Y-16143214D01*
X6444643Y-16143214D01*
X6473214Y-16157500D01*
X6487500Y-16186071D01*
X6487500Y-16343214D01*
X6487500Y-16186071D02*
X6501786Y-16157500D01*
X6530357Y-16143214D01*
X6573214Y-16143214D01*
X6601786Y-16157500D01*
X6616071Y-16186071D01*
X6616071Y-16343214D01*
X6758928Y-16343214D02*
X6758928Y-16143214D01*
X6758928Y-16171786D02*
X6773214Y-16157500D01*
X6801786Y-16143214D01*
X6844643Y-16143214D01*
X6873214Y-16157500D01*
X6887500Y-16186071D01*
X6887500Y-16343214D01*
X6887500Y-16186071D02*
X6901786Y-16157500D01*
X6930357Y-16143214D01*
X6973214Y-16143214D01*
X7001786Y-16157500D01*
X7016071Y-16186071D01*
X7016071Y-16343214D01*
X7601786Y-16028929D02*
X7344643Y-16414643D01*
X7987500Y-16043214D02*
X8016071Y-16043214D01*
X8044643Y-16057500D01*
X8058928Y-16071786D01*
X8073214Y-16100357D01*
X8087500Y-16157500D01*
X8087500Y-16228929D01*
X8073214Y-16286071D01*
X8058928Y-16314643D01*
X8044643Y-16328929D01*
X8016071Y-16343214D01*
X7987500Y-16343214D01*
X7958928Y-16328929D01*
X7944643Y-16314643D01*
X7930357Y-16286071D01*
X7916071Y-16228929D01*
X7916071Y-16157500D01*
X7930357Y-16100357D01*
X7944643Y-16071786D01*
X7958928Y-16057500D01*
X7987500Y-16043214D01*
X8216071Y-16314643D02*
X8230357Y-16328929D01*
X8216071Y-16343214D01*
X8201786Y-16328929D01*
X8216071Y-16314643D01*
X8216071Y-16343214D01*
X8416071Y-16043214D02*
X8444643Y-16043214D01*
X8473214Y-16057500D01*
X8487500Y-16071786D01*
X8501786Y-16100357D01*
X8516071Y-16157500D01*
X8516071Y-16228929D01*
X8501786Y-16286071D01*
X8487500Y-16314643D01*
X8473214Y-16328929D01*
X8444643Y-16343214D01*
X8416071Y-16343214D01*
X8387500Y-16328929D01*
X8373214Y-16314643D01*
X8358928Y-16286071D01*
X8344643Y-16228929D01*
X8344643Y-16157500D01*
X8358928Y-16100357D01*
X8373214Y-16071786D01*
X8387500Y-16057500D01*
X8416071Y-16043214D01*
X8801786Y-16343214D02*
X8630357Y-16343214D01*
X8716071Y-16343214D02*
X8716071Y-16043214D01*
X8687500Y-16086071D01*
X8658928Y-16114643D01*
X8630357Y-16128929D01*
X9058928Y-16043214D02*
X9001786Y-16043214D01*
X8973214Y-16057500D01*
X8958928Y-16071786D01*
X8930357Y-16114643D01*
X8916071Y-16171786D01*
X8916071Y-16286071D01*
X8930357Y-16314643D01*
X8944643Y-16328929D01*
X8973214Y-16343214D01*
X9030357Y-16343214D01*
X9058928Y-16328929D01*
X9073214Y-16314643D01*
X9087500Y-16286071D01*
X9087500Y-16214643D01*
X9073214Y-16186071D01*
X9058928Y-16171786D01*
X9030357Y-16157500D01*
X8973214Y-16157500D01*
X8944643Y-16171786D01*
X8930357Y-16186071D01*
X8916071Y-16214643D01*
X9201786Y-16043214D02*
X9201786Y-16100357D01*
X9316071Y-16043214D02*
X9316071Y-16100357D01*
X9758928Y-16457500D02*
X9744643Y-16443214D01*
X9716071Y-16400357D01*
X9701786Y-16371786D01*
X9687500Y-16328929D01*
X9673214Y-16257500D01*
X9673214Y-16200357D01*
X9687500Y-16128929D01*
X9701786Y-16086071D01*
X9716071Y-16057500D01*
X9744643Y-16014643D01*
X9758928Y-16000357D01*
X9844643Y-16043214D02*
X10030357Y-16043214D01*
X9930357Y-16157500D01*
X9973214Y-16157500D01*
X10001786Y-16171786D01*
X10016071Y-16186071D01*
X10030357Y-16214643D01*
X10030357Y-16286071D01*
X10016071Y-16314643D01*
X10001786Y-16328929D01*
X9973214Y-16343214D01*
X9887500Y-16343214D01*
X9858928Y-16328929D01*
X9844643Y-16314643D01*
X10316071Y-16343214D02*
X10144643Y-16343214D01*
X10230357Y-16343214D02*
X10230357Y-16043214D01*
X10201786Y-16086071D01*
X10173214Y-16114643D01*
X10144643Y-16128929D01*
X10673214Y-16343214D02*
X10673214Y-16043214D01*
X10801786Y-16343214D02*
X10801786Y-16186071D01*
X10787500Y-16157500D01*
X10758928Y-16143214D01*
X10716071Y-16143214D01*
X10687500Y-16157500D01*
X10673214Y-16171786D01*
X10987500Y-16343214D02*
X10958928Y-16328929D01*
X10944643Y-16314643D01*
X10930357Y-16286071D01*
X10930357Y-16200357D01*
X10944643Y-16171786D01*
X10958928Y-16157500D01*
X10987500Y-16143214D01*
X11030357Y-16143214D01*
X11058928Y-16157500D01*
X11073214Y-16171786D01*
X11087500Y-16200357D01*
X11087500Y-16286071D01*
X11073214Y-16314643D01*
X11058928Y-16328929D01*
X11030357Y-16343214D01*
X10987500Y-16343214D01*
X11258928Y-16343214D02*
X11230357Y-16328929D01*
X11216071Y-16300357D01*
X11216071Y-16043214D01*
X11487500Y-16328929D02*
X11458928Y-16343214D01*
X11401786Y-16343214D01*
X11373214Y-16328929D01*
X11358928Y-16300357D01*
X11358928Y-16186071D01*
X11373214Y-16157500D01*
X11401786Y-16143214D01*
X11458928Y-16143214D01*
X11487500Y-16157500D01*
X11501786Y-16186071D01*
X11501786Y-16214643D01*
X11358928Y-16243214D01*
X11616071Y-16328929D02*
X11644643Y-16343214D01*
X11701786Y-16343214D01*
X11730357Y-16328929D01*
X11744643Y-16300357D01*
X11744643Y-16286071D01*
X11730357Y-16257500D01*
X11701786Y-16243214D01*
X11658928Y-16243214D01*
X11630357Y-16228929D01*
X11616071Y-16200357D01*
X11616071Y-16186071D01*
X11630357Y-16157500D01*
X11658928Y-16143214D01*
X11701786Y-16143214D01*
X11730357Y-16157500D01*
X11844643Y-16457500D02*
X11858928Y-16443214D01*
X11887500Y-16400357D01*
X11901786Y-16371786D01*
X11916071Y-16328929D01*
X11930357Y-16257500D01*
X11930357Y-16200357D01*
X11916071Y-16128929D01*
X11901786Y-16086071D01*
X11887500Y-16057500D01*
X11858928Y-16014643D01*
X11844643Y-16000357D01*
X5072500Y-16603500D02*
G75*
G03X5072500Y-16603500I-50800J0D01*
G01*
X5516071Y-16739214D02*
X5344643Y-16739214D01*
X5430357Y-16739214D02*
X5430357Y-16439214D01*
X5401786Y-16482071D01*
X5373214Y-16510643D01*
X5344643Y-16524929D01*
X5644643Y-16710643D02*
X5658928Y-16724929D01*
X5644643Y-16739214D01*
X5630357Y-16724929D01*
X5644643Y-16710643D01*
X5644643Y-16739214D01*
X5844643Y-16439214D02*
X5873214Y-16439214D01*
X5901786Y-16453500D01*
X5916071Y-16467786D01*
X5930357Y-16496357D01*
X5944643Y-16553500D01*
X5944643Y-16624929D01*
X5930357Y-16682071D01*
X5916071Y-16710643D01*
X5901786Y-16724929D01*
X5873214Y-16739214D01*
X5844643Y-16739214D01*
X5816071Y-16724929D01*
X5801786Y-16710643D01*
X5787500Y-16682071D01*
X5773214Y-16624929D01*
X5773214Y-16553500D01*
X5787500Y-16496357D01*
X5801786Y-16467786D01*
X5816071Y-16453500D01*
X5844643Y-16439214D01*
X6058928Y-16467786D02*
X6073214Y-16453500D01*
X6101786Y-16439214D01*
X6173214Y-16439214D01*
X6201786Y-16453500D01*
X6216071Y-16467786D01*
X6230357Y-16496357D01*
X6230357Y-16524929D01*
X6216071Y-16567786D01*
X6044643Y-16739214D01*
X6230357Y-16739214D01*
X6358928Y-16739214D02*
X6358928Y-16539214D01*
X6358928Y-16567786D02*
X6373214Y-16553500D01*
X6401786Y-16539214D01*
X6444643Y-16539214D01*
X6473214Y-16553500D01*
X6487500Y-16582071D01*
X6487500Y-16739214D01*
X6487500Y-16582071D02*
X6501786Y-16553500D01*
X6530357Y-16539214D01*
X6573214Y-16539214D01*
X6601786Y-16553500D01*
X6616071Y-16582071D01*
X6616071Y-16739214D01*
X6758928Y-16739214D02*
X6758928Y-16539214D01*
X6758928Y-16567786D02*
X6773214Y-16553500D01*
X6801786Y-16539214D01*
X6844643Y-16539214D01*
X6873214Y-16553500D01*
X6887500Y-16582071D01*
X6887500Y-16739214D01*
X6887500Y-16582071D02*
X6901786Y-16553500D01*
X6930357Y-16539214D01*
X6973214Y-16539214D01*
X7001786Y-16553500D01*
X7016071Y-16582071D01*
X7016071Y-16739214D01*
X7601786Y-16424929D02*
X7344643Y-16810643D01*
X7987500Y-16439214D02*
X8016071Y-16439214D01*
X8044643Y-16453500D01*
X8058928Y-16467786D01*
X8073214Y-16496357D01*
X8087500Y-16553500D01*
X8087500Y-16624929D01*
X8073214Y-16682071D01*
X8058928Y-16710643D01*
X8044643Y-16724929D01*
X8016071Y-16739214D01*
X7987500Y-16739214D01*
X7958928Y-16724929D01*
X7944643Y-16710643D01*
X7930357Y-16682071D01*
X7916071Y-16624929D01*
X7916071Y-16553500D01*
X7930357Y-16496357D01*
X7944643Y-16467786D01*
X7958928Y-16453500D01*
X7987500Y-16439214D01*
X8216071Y-16710643D02*
X8230357Y-16724929D01*
X8216071Y-16739214D01*
X8201786Y-16724929D01*
X8216071Y-16710643D01*
X8216071Y-16739214D01*
X8416071Y-16439214D02*
X8444643Y-16439214D01*
X8473214Y-16453500D01*
X8487500Y-16467786D01*
X8501786Y-16496357D01*
X8516071Y-16553500D01*
X8516071Y-16624929D01*
X8501786Y-16682071D01*
X8487500Y-16710643D01*
X8473214Y-16724929D01*
X8444643Y-16739214D01*
X8416071Y-16739214D01*
X8387500Y-16724929D01*
X8373214Y-16710643D01*
X8358928Y-16682071D01*
X8344643Y-16624929D01*
X8344643Y-16553500D01*
X8358928Y-16496357D01*
X8373214Y-16467786D01*
X8387500Y-16453500D01*
X8416071Y-16439214D01*
X8773214Y-16539214D02*
X8773214Y-16739214D01*
X8701786Y-16424929D02*
X8630357Y-16639214D01*
X8816071Y-16639214D01*
X8987500Y-16439214D02*
X9016071Y-16439214D01*
X9044643Y-16453500D01*
X9058928Y-16467786D01*
X9073214Y-16496357D01*
X9087500Y-16553500D01*
X9087500Y-16624929D01*
X9073214Y-16682071D01*
X9058928Y-16710643D01*
X9044643Y-16724929D01*
X9016071Y-16739214D01*
X8987500Y-16739214D01*
X8958928Y-16724929D01*
X8944643Y-16710643D01*
X8930357Y-16682071D01*
X8916071Y-16624929D01*
X8916071Y-16553500D01*
X8930357Y-16496357D01*
X8944643Y-16467786D01*
X8958928Y-16453500D01*
X8987500Y-16439214D01*
X9201786Y-16439214D02*
X9201786Y-16496357D01*
X9316071Y-16439214D02*
X9316071Y-16496357D01*
X9758928Y-16853500D02*
X9744643Y-16839214D01*
X9716071Y-16796357D01*
X9701786Y-16767786D01*
X9687500Y-16724929D01*
X9673214Y-16653500D01*
X9673214Y-16596357D01*
X9687500Y-16524929D01*
X9701786Y-16482071D01*
X9716071Y-16453500D01*
X9744643Y-16410643D01*
X9758928Y-16396357D01*
X9844643Y-16439214D02*
X10030357Y-16439214D01*
X9930357Y-16553500D01*
X9973214Y-16553500D01*
X10001786Y-16567786D01*
X10016071Y-16582071D01*
X10030357Y-16610643D01*
X10030357Y-16682071D01*
X10016071Y-16710643D01*
X10001786Y-16724929D01*
X9973214Y-16739214D01*
X9887500Y-16739214D01*
X9858928Y-16724929D01*
X9844643Y-16710643D01*
X10287500Y-16439214D02*
X10230357Y-16439214D01*
X10201786Y-16453500D01*
X10187500Y-16467786D01*
X10158928Y-16510643D01*
X10144643Y-16567786D01*
X10144643Y-16682071D01*
X10158928Y-16710643D01*
X10173214Y-16724929D01*
X10201786Y-16739214D01*
X10258928Y-16739214D01*
X10287500Y-16724929D01*
X10301786Y-16710643D01*
X10316071Y-16682071D01*
X10316071Y-16610643D01*
X10301786Y-16582071D01*
X10287500Y-16567786D01*
X10258928Y-16553500D01*
X10201786Y-16553500D01*
X10173214Y-16567786D01*
X10158928Y-16582071D01*
X10144643Y-16610643D01*
X10458928Y-16739214D02*
X10516071Y-16739214D01*
X10544643Y-16724929D01*
X10558928Y-16710643D01*
X10587500Y-16667786D01*
X10601786Y-16610643D01*
X10601786Y-16496357D01*
X10587500Y-16467786D01*
X10573214Y-16453500D01*
X10544643Y-16439214D01*
X10487500Y-16439214D01*
X10458928Y-16453500D01*
X10444643Y-16467786D01*
X10430357Y-16496357D01*
X10430357Y-16567786D01*
X10444643Y-16596357D01*
X10458928Y-16610643D01*
X10487500Y-16624929D01*
X10544643Y-16624929D01*
X10573214Y-16610643D01*
X10587500Y-16596357D01*
X10601786Y-16567786D01*
X10958928Y-16739214D02*
X10958928Y-16439214D01*
X11087500Y-16739214D02*
X11087500Y-16582071D01*
X11073214Y-16553500D01*
X11044643Y-16539214D01*
X11001786Y-16539214D01*
X10973214Y-16553500D01*
X10958928Y-16567786D01*
X11273214Y-16739214D02*
X11244643Y-16724929D01*
X11230357Y-16710643D01*
X11216071Y-16682071D01*
X11216071Y-16596357D01*
X11230357Y-16567786D01*
X11244643Y-16553500D01*
X11273214Y-16539214D01*
X11316071Y-16539214D01*
X11344643Y-16553500D01*
X11358928Y-16567786D01*
X11373214Y-16596357D01*
X11373214Y-16682071D01*
X11358928Y-16710643D01*
X11344643Y-16724929D01*
X11316071Y-16739214D01*
X11273214Y-16739214D01*
X11544643Y-16739214D02*
X11516071Y-16724929D01*
X11501786Y-16696357D01*
X11501786Y-16439214D01*
X11773214Y-16724929D02*
X11744643Y-16739214D01*
X11687500Y-16739214D01*
X11658928Y-16724929D01*
X11644643Y-16696357D01*
X11644643Y-16582071D01*
X11658928Y-16553500D01*
X11687500Y-16539214D01*
X11744643Y-16539214D01*
X11773214Y-16553500D01*
X11787500Y-16582071D01*
X11787500Y-16610643D01*
X11644643Y-16639214D01*
X11901786Y-16724929D02*
X11930357Y-16739214D01*
X11987500Y-16739214D01*
X12016071Y-16724929D01*
X12030357Y-16696357D01*
X12030357Y-16682071D01*
X12016071Y-16653500D01*
X11987500Y-16639214D01*
X11944643Y-16639214D01*
X11916071Y-16624929D01*
X11901786Y-16596357D01*
X11901786Y-16582071D01*
X11916071Y-16553500D01*
X11944643Y-16539214D01*
X11987500Y-16539214D01*
X12016071Y-16553500D01*
X12130357Y-16853500D02*
X12144643Y-16839214D01*
X12173214Y-16796357D01*
X12187500Y-16767786D01*
X12201786Y-16724929D01*
X12216071Y-16653500D01*
X12216071Y-16596357D01*
X12201786Y-16524929D01*
X12187500Y-16482071D01*
X12173214Y-16453500D01*
X12144643Y-16410643D01*
X12130357Y-16396357D01*
X5012500Y-16939500D02*
X5012500Y-17059500D01*
X4952500Y-16999500D02*
X5072500Y-16999500D01*
X5516071Y-17135214D02*
X5344643Y-17135214D01*
X5430357Y-17135214D02*
X5430357Y-16835214D01*
X5401786Y-16878072D01*
X5373214Y-16906643D01*
X5344643Y-16920929D01*
X5644643Y-17106643D02*
X5658928Y-17120929D01*
X5644643Y-17135214D01*
X5630357Y-17120929D01*
X5644643Y-17106643D01*
X5644643Y-17135214D01*
X5773214Y-16863786D02*
X5787500Y-16849500D01*
X5816071Y-16835214D01*
X5887500Y-16835214D01*
X5916071Y-16849500D01*
X5930357Y-16863786D01*
X5944643Y-16892357D01*
X5944643Y-16920929D01*
X5930357Y-16963786D01*
X5758928Y-17135214D01*
X5944643Y-17135214D01*
X6130357Y-16835214D02*
X6158928Y-16835214D01*
X6187500Y-16849500D01*
X6201786Y-16863786D01*
X6216071Y-16892357D01*
X6230357Y-16949500D01*
X6230357Y-17020929D01*
X6216071Y-17078072D01*
X6201786Y-17106643D01*
X6187500Y-17120929D01*
X6158928Y-17135214D01*
X6130357Y-17135214D01*
X6101786Y-17120929D01*
X6087500Y-17106643D01*
X6073214Y-17078072D01*
X6058928Y-17020929D01*
X6058928Y-16949500D01*
X6073214Y-16892357D01*
X6087500Y-16863786D01*
X6101786Y-16849500D01*
X6130357Y-16835214D01*
X6358928Y-17135214D02*
X6358928Y-16935214D01*
X6358928Y-16963786D02*
X6373214Y-16949500D01*
X6401786Y-16935214D01*
X6444643Y-16935214D01*
X6473214Y-16949500D01*
X6487500Y-16978072D01*
X6487500Y-17135214D01*
X6487500Y-16978072D02*
X6501786Y-16949500D01*
X6530357Y-16935214D01*
X6573214Y-16935214D01*
X6601786Y-16949500D01*
X6616071Y-16978072D01*
X6616071Y-17135214D01*
X6758928Y-17135214D02*
X6758928Y-16935214D01*
X6758928Y-16963786D02*
X6773214Y-16949500D01*
X6801786Y-16935214D01*
X6844643Y-16935214D01*
X6873214Y-16949500D01*
X6887500Y-16978072D01*
X6887500Y-17135214D01*
X6887500Y-16978072D02*
X6901786Y-16949500D01*
X6930357Y-16935214D01*
X6973214Y-16935214D01*
X7001786Y-16949500D01*
X7016071Y-16978072D01*
X7016071Y-17135214D01*
X7601786Y-16820929D02*
X7344643Y-17206643D01*
X7987500Y-16835214D02*
X8016071Y-16835214D01*
X8044643Y-16849500D01*
X8058928Y-16863786D01*
X8073214Y-16892357D01*
X8087500Y-16949500D01*
X8087500Y-17020929D01*
X8073214Y-17078072D01*
X8058928Y-17106643D01*
X8044643Y-17120929D01*
X8016071Y-17135214D01*
X7987500Y-17135214D01*
X7958928Y-17120929D01*
X7944643Y-17106643D01*
X7930357Y-17078072D01*
X7916071Y-17020929D01*
X7916071Y-16949500D01*
X7930357Y-16892357D01*
X7944643Y-16863786D01*
X7958928Y-16849500D01*
X7987500Y-16835214D01*
X8216071Y-17106643D02*
X8230357Y-17120929D01*
X8216071Y-17135214D01*
X8201786Y-17120929D01*
X8216071Y-17106643D01*
X8216071Y-17135214D01*
X8416071Y-16835214D02*
X8444643Y-16835214D01*
X8473214Y-16849500D01*
X8487500Y-16863786D01*
X8501786Y-16892357D01*
X8516071Y-16949500D01*
X8516071Y-17020929D01*
X8501786Y-17078072D01*
X8487500Y-17106643D01*
X8473214Y-17120929D01*
X8444643Y-17135214D01*
X8416071Y-17135214D01*
X8387500Y-17120929D01*
X8373214Y-17106643D01*
X8358928Y-17078072D01*
X8344643Y-17020929D01*
X8344643Y-16949500D01*
X8358928Y-16892357D01*
X8373214Y-16863786D01*
X8387500Y-16849500D01*
X8416071Y-16835214D01*
X8773214Y-16935214D02*
X8773214Y-17135214D01*
X8701786Y-16820929D02*
X8630357Y-17035214D01*
X8816071Y-17035214D01*
X8901786Y-16835214D02*
X9101786Y-16835214D01*
X8973214Y-17135214D01*
X9201786Y-16835214D02*
X9201786Y-16892357D01*
X9316071Y-16835214D02*
X9316071Y-16892357D01*
X9758928Y-17249500D02*
X9744643Y-17235214D01*
X9716071Y-17192357D01*
X9701786Y-17163786D01*
X9687500Y-17120929D01*
X9673214Y-17049500D01*
X9673214Y-16992357D01*
X9687500Y-16920929D01*
X9701786Y-16878072D01*
X9716071Y-16849500D01*
X9744643Y-16806643D01*
X9758928Y-16792357D01*
X10030357Y-17135214D02*
X9858928Y-17135214D01*
X9944643Y-17135214D02*
X9944643Y-16835214D01*
X9916071Y-16878072D01*
X9887500Y-16906643D01*
X9858928Y-16920929D01*
X10316071Y-17135214D02*
X10144643Y-17135214D01*
X10230357Y-17135214D02*
X10230357Y-16835214D01*
X10201786Y-16878072D01*
X10173214Y-16906643D01*
X10144643Y-16920929D01*
X10501786Y-16835214D02*
X10530357Y-16835214D01*
X10558928Y-16849500D01*
X10573214Y-16863786D01*
X10587500Y-16892357D01*
X10601786Y-16949500D01*
X10601786Y-17020929D01*
X10587500Y-17078072D01*
X10573214Y-17106643D01*
X10558928Y-17120929D01*
X10530357Y-17135214D01*
X10501786Y-17135214D01*
X10473214Y-17120929D01*
X10458928Y-17106643D01*
X10444643Y-17078072D01*
X10430357Y-17020929D01*
X10430357Y-16949500D01*
X10444643Y-16892357D01*
X10458928Y-16863786D01*
X10473214Y-16849500D01*
X10501786Y-16835214D01*
X10958928Y-17135214D02*
X10958928Y-16835214D01*
X11087500Y-17135214D02*
X11087500Y-16978072D01*
X11073214Y-16949500D01*
X11044643Y-16935214D01*
X11001786Y-16935214D01*
X10973214Y-16949500D01*
X10958928Y-16963786D01*
X11273214Y-17135214D02*
X11244643Y-17120929D01*
X11230357Y-17106643D01*
X11216071Y-17078072D01*
X11216071Y-16992357D01*
X11230357Y-16963786D01*
X11244643Y-16949500D01*
X11273214Y-16935214D01*
X11316071Y-16935214D01*
X11344643Y-16949500D01*
X11358928Y-16963786D01*
X11373214Y-16992357D01*
X11373214Y-17078072D01*
X11358928Y-17106643D01*
X11344643Y-17120929D01*
X11316071Y-17135214D01*
X11273214Y-17135214D01*
X11544643Y-17135214D02*
X11516071Y-17120929D01*
X11501786Y-17092357D01*
X11501786Y-16835214D01*
X11773214Y-17120929D02*
X11744643Y-17135214D01*
X11687500Y-17135214D01*
X11658928Y-17120929D01*
X11644643Y-17092357D01*
X11644643Y-16978072D01*
X11658928Y-16949500D01*
X11687500Y-16935214D01*
X11744643Y-16935214D01*
X11773214Y-16949500D01*
X11787500Y-16978072D01*
X11787500Y-17006643D01*
X11644643Y-17035214D01*
X11901786Y-17120929D02*
X11930357Y-17135214D01*
X11987500Y-17135214D01*
X12016071Y-17120929D01*
X12030357Y-17092357D01*
X12030357Y-17078072D01*
X12016071Y-17049500D01*
X11987500Y-17035214D01*
X11944643Y-17035214D01*
X11916071Y-17020929D01*
X11901786Y-16992357D01*
X11901786Y-16978072D01*
X11916071Y-16949500D01*
X11944643Y-16935214D01*
X11987500Y-16935214D01*
X12016071Y-16949500D01*
X12130357Y-17249500D02*
X12144643Y-17235214D01*
X12173214Y-17192357D01*
X12187500Y-17163786D01*
X12201786Y-17120929D01*
X12216071Y-17049500D01*
X12216071Y-16992357D01*
X12201786Y-16920929D01*
X12187500Y-16878072D01*
X12173214Y-16849500D01*
X12144643Y-16806643D01*
X12130357Y-16792357D01*
M02*
